<svg id="Layer_1" data-name="Layer 1" xmlns="http://www.w3.org/2000/svg" viewBox="0 0 100 46"><defs><style>.cls-1{fill:#26265f;}.cls-2{fill:#25b8d2;}.cls-3{fill:#e94444;}.cls-4{fill:#05b8d3;}.cls-5{fill:#231f20;}</style></defs><title>logo</title><path class="cls-1" d="M31,34.81H29.65a1.72,1.72,0,0,1-1.71-1.71V24.32c0-1.81-.9-2.65-2.85-2.65a4.23,4.23,0,0,0-4.39,2.82V33.1a1.63,1.63,0,0,1-.5,1.21,1.66,1.66,0,0,1-1.2.5H17.69a.39.39,0,0,1-.39-.4v-21a.38.38,0,0,1,.39-.39H19a1.71,1.71,0,0,1,1.7,1.7v5.66a5.92,5.92,0,0,1,4.79-1.93c3.84,0,5.86,1.93,5.86,5.56V34.41a.4.4,0,0,1-.39.4M25.09,20.89c2.38,0,3.64,1.18,3.64,3.43V33.1a.82.82,0,0,0,.27.64.86.86,0,0,0,.65.28h.91V24a4.7,4.7,0,0,0-1.24-3.58,5.41,5.41,0,0,0-3.83-1.19c-2.35,0-4,.89-4.82,2.65a.42.42,0,0,1-.35.23l-.22.39V22a.39.39,0,0,1-.18-.33v-7a1,1,0,0,0-.92-.92h-.92V34H19a.87.87,0,0,0,.64-.27.83.83,0,0,0,.28-.65V24.42a.3.3,0,0,1,0-.13c.8-2.26,2.54-3.4,5.15-3.4"/><path class="cls-1" d="M37.87,34.81H36.56a.39.39,0,0,1-.39-.4V19a.39.39,0,0,1,.39-.4h1.31a1.72,1.72,0,0,1,1.71,1.7,4.85,4.85,0,0,1,4-1.88,13.53,13.53,0,0,1,3,.36.39.39,0,0,1,.31.38v1.27c0,.52-.22,1.4-1.66,1.4H45.2a13.58,13.58,0,0,0-2-.13c-1.7,0-2.91.95-3.59,2.82V33.1a1.71,1.71,0,0,1-1.71,1.71M37,34h.91a.87.87,0,0,0,.65-.26.88.88,0,0,0,.27-.66V24.44a.68.68,0,0,1,0-.14c.8-2.25,2.27-3.4,4.36-3.4a16.62,16.62,0,0,1,2.12.13c.74,0,.84-.3.84-.61v-1a12.64,12.64,0,0,0-2.55-.27,4.23,4.23,0,0,0-4,2.65.41.41,0,0,1-.34.23l-.23.41V22a.39.39,0,0,1-.18-.33V20.3a.92.92,0,0,0-.92-.92H37Z"/><path class="cls-2" d="M67.85,8.34c.11-1.24.23-2.48.41-3.72L67.82,5a2.52,2.52,0,0,1,.49.37c.11.09.3-.11.35-.19a7.92,7.92,0,0,0,.87-2.91l-.47.38c.22.3.5.54.73.85.09.12.25,0,.33-.07a8.52,8.52,0,0,0,.72-.87l-.38.14c1.13,2.23-1.38,3.87-1,6.1,0,.09.08.11.16.1,1.29-.13,3-1.63,3.31.43l.34-.49c-2.25.43-3.72,2.3-5.68,3.31-1.33.69-2.6,1.5-3.92,2.2-.63.33-3.09,1.91-3.75,1.15-.24-.27,1.94-1.12,2.22-1.23.91-.38,4-1.52,2.87-3a3.66,3.66,0,0,0-1.38-.91A17.8,17.8,0,0,1,61.09,9a4.86,4.86,0,0,1-2-6l-.43.23A7.76,7.76,0,0,0,62.6,6c1.69.6,4.93.94,5.36,3,.07.32.54-.17.5-.4C68.1,6.9,66.43,6.5,65,6c-2.2-.71-4.49-1.35-5.89-3.33-.13-.19-.38.1-.43.22A5.06,5.06,0,0,0,59.1,8c1.16,1.66,3,2.3,4.7,3.24.3.16,1.14.67.86,1.12a3,3,0,0,1-1.3.85c-1,.52-2.2.85-3.22,1.45-.43.26-1.07.82-.71,1.37.51.79,2.23-.17,2.8-.42,1.6-.73,3.11-1.65,4.64-2.52.68-.4,1.37-.76,2-1.21,1.35-.94,2.5-2.09,4.17-2.41a.5.5,0,0,0,.33-.5c-.1-.64-.35-1.44-1.16-1.36A4.47,4.47,0,0,0,71.05,8c-.49.2-1.2.7-1.17-.1,0-1,.82-1.94,1.15-2.87a3.27,3.27,0,0,0-.12-2.75c-.09-.17-.33.07-.38.15a7,7,0,0,1-.61.72L70.24,3c-.22-.3-.5-.55-.73-.85s-.45.24-.47.38A6.65,6.65,0,0,1,68.35,5l.35-.18a2.67,2.67,0,0,0-.49-.36c-.22-.12-.42.25-.44.41-.18,1.24-.3,2.48-.42,3.72,0,.39.47,0,.5-.26"/><polygon class="cls-2" points="58.78 3.14 58.46 4.37 58.62 5.78 59 7.23 59.57 8.12 60.43 8.89 61.2 9.49 62.38 10.04 63.93 10.93 64.82 11.6 64.97 12.19 64.88 12.73 64.11 13.08 63.07 13.52 61.97 14.11 61.1 14.48 60.09 14.93 59.59 15.47 59.79 15.87 60.78 15.96 61.55 15.67 64.08 14.36 65.69 13.5 67.51 12.46 68.86 11.7 69.8 10.93 70.69 10.22 71.63 9.72 72.85 9.18 73.12 8.59 72.74 8.1 72.22 7.92 71.73 8.05 71.14 8.15 70.3 8.44 69.65 8.54 69.58 7.92 69.83 7.21 70.47 5.68 70.91 4.79 70.96 3.85 70.99 3.14 70.68 2.66 70 3.24 69.36 2.66 69.04 3.76 68.6 4.88 68.06 4.82 67.86 5.71 67.76 6.94 67.73 7.7 66.94 7.18 65.69 6.62 64.45 6.3 62.48 5.68 61.2 4.99 60.23 4.18 59.25 3.49 58.78 3.14"/><path class="cls-1" d="M3.93,21.49a1.31,1.31,0,0,1-1.31-1.31V19H4.78V15.07a1.2,1.2,0,0,1,.39-.92,1.23,1.23,0,0,1,.92-.39H7.4V19h4.9a1.31,1.31,0,0,1,1.31,1.31v1.19H7.4v7.64a2.82,2.82,0,0,0,.92,2.45,4.83,4.83,0,0,0,2.65.54A11.35,11.35,0,0,0,12.66,32c.84,0,1.26.33,1.26,1v1.27a14.32,14.32,0,0,1-2.95.32,7.41,7.41,0,0,1-4.55-1.1c-1.1-.84-1.64-2.3-1.64-4.36V21.49Z"/><path class="cls-1" d="M11,34.9a7.79,7.79,0,0,1-4.74-1.17c-1.16-.9-1.76-2.45-1.76-4.6V21.79H3.93a1.59,1.59,0,0,1-1.14-.47,1.55,1.55,0,0,1-.47-1.14v-1.5H4.47V15.07A1.52,1.52,0,0,1,5,13.93a1.55,1.55,0,0,1,1.13-.47H7.32v5.22h5a1.62,1.62,0,0,1,1.61,1.62v1.49H7.7v7.34a2.57,2.57,0,0,0,.8,2.21,4.59,4.59,0,0,0,2.47.48,8.29,8.29,0,0,0,1.34-.13h0c1.37,0,1.57.83,1.57,1.32v1.51l-.24.05A11.69,11.69,0,0,1,11,34.9m-8-15.61v.89a.92.92,0,0,0,.3.7.92.92,0,0,0,.71.3H5.08v8c0,1.95.51,3.34,1.52,4.12a7.24,7.24,0,0,0,4.37,1A13.54,13.54,0,0,0,13.62,34V33c0-.35-.11-.7-.94-.71a11.51,11.51,0,0,1-1.71.13,5,5,0,0,1-2.82-.59,3.09,3.09,0,0,1-1.05-2.7V21.18h6.21V20.3a1,1,0,0,0-.3-.71,1,1,0,0,0-.71-.3H7.1V14.06h-1a1,1,0,0,0-1,1v4.22Z"/><path class="cls-1" d="M11,34.68a7.55,7.55,0,0,1-4.61-1.12c-1.11-.86-1.67-2.35-1.67-4.43V21.58H3.93a1.35,1.35,0,0,1-1-.42,1.31,1.31,0,0,1-.41-1V19a.09.09,0,0,1,.09-.09H4.69V15.07a1.35,1.35,0,0,1,.41-1,1.38,1.38,0,0,1,1-.41H7.4a.09.09,0,0,1,.09.09V18.9H12.3a1.34,1.34,0,0,1,1,.41,1.37,1.37,0,0,1,.41,1v1.19a.09.09,0,0,1-.09.09H7.49v7.55a2.78,2.78,0,0,0,.88,2.38A4.78,4.78,0,0,0,11,32a11.1,11.1,0,0,0,1.67-.13h0c1.12,0,1.35.6,1.35,1.1v1.27a.08.08,0,0,1-.07.08,13.86,13.86,0,0,1-3,.33M2.71,19.08v1.1A1.23,1.23,0,0,0,3.93,21.4h.85a.09.09,0,0,1,.09.09v7.64c0,2,.54,3.47,1.6,4.29A7.41,7.41,0,0,0,11,34.5a13.53,13.53,0,0,0,2.86-.31V33c0-.62-.38-.92-1.17-.92a11.26,11.26,0,0,1-1.69.13,4.93,4.93,0,0,1-2.7-.55,2.92,2.92,0,0,1-1-2.53V21.49a.09.09,0,0,1,.09-.09h6.12V20.3a1.16,1.16,0,0,0-.36-.86,1.14,1.14,0,0,0-.86-.36H7.4A.09.09,0,0,1,7.31,19V13.85H6.09a1.16,1.16,0,0,0-.86.36,1.13,1.13,0,0,0-.36.86V19a.09.09,0,0,1-.09.09Z"/><path class="cls-1" d="M10.73,35a7.84,7.84,0,0,1-4.8-1.19c-1.19-.92-1.79-2.49-1.79-4.67V21.88H3.69A1.71,1.71,0,0,1,2,20.18V19a.4.4,0,0,1,.4-.4H4.14V15.07a1.62,1.62,0,0,1,.51-1.21,1.63,1.63,0,0,1,1.2-.49H7.16a.39.39,0,0,1,.39.39v4.83h4.82a1.72,1.72,0,0,1,1.7,1.71v1.19a.39.39,0,0,1-.39.39H7.55v7.25a2.45,2.45,0,0,0,.76,2.13,4.34,4.34,0,0,0,2.42.47,11.75,11.75,0,0,0,1.62-.13h.06a1.75,1.75,0,0,1,1.32.46,1.33,1.33,0,0,1,.34,1v1.27a.39.39,0,0,1-.31.38,14.43,14.43,0,0,1-3,.34m-8-15.61v.8a.82.82,0,0,0,.27.64.85.85,0,0,0,.65.27h.85a.4.4,0,0,1,.39.4v7.64c0,1.92.5,3.29,1.48,4.05a7.15,7.15,0,0,0,4.32,1,13.4,13.4,0,0,0,2.56-.26V33c0-.32-.11-.61-.85-.62a11.61,11.61,0,0,1-1.71.13,5.22,5.22,0,0,1-2.87-.6,3.19,3.19,0,0,1-1.1-2.78V21.49a.4.4,0,0,1,.4-.4H13V20.3a.85.85,0,0,0-.27-.65.89.89,0,0,0-.64-.27H7.16a.4.4,0,0,1-.4-.39V14.15H5.85a.86.86,0,0,0-.65.28.81.81,0,0,0-.27.64V19a.4.4,0,0,1-.39.39Z"/><path class="cls-1" d="M31,34.41H29.65a1.3,1.3,0,0,1-1.31-1.31V24.32c0-2-1.09-3-3.25-3-2.44,0-4,1-4.78,3.14V33.1a1.24,1.24,0,0,1-.39.93,1.22,1.22,0,0,1-.92.38H17.69v-21H19a1.23,1.23,0,0,1,.92.39,1.25,1.25,0,0,1,.39.92v7q1.38-2.87,5.18-2.87Q31,18.81,31,24Z"/><path class="cls-1" d="M31.12,34.59l-1.47.13a1.56,1.56,0,0,1-1.14-.48A1.53,1.53,0,0,1,28,33.1V24.32c0-1.87-.93-2.74-2.94-2.74-2.3,0-3.77,1-4.48,2.89V33.1a1.53,1.53,0,0,1-.48,1.15,1.55,1.55,0,0,1-1.13.47H17.6V13.07H19a1.6,1.6,0,0,1,1.61,1.61V20.6a5.75,5.75,0,0,1,4.88-2.1c3.83,0,5.77,1.85,5.77,5.47ZM25.09,21c2.32,0,3.55,1.15,3.55,3.34V33.1a1,1,0,0,0,.29.71,1,1,0,0,0,.72.3h1V24c0-3.27-1.69-4.86-5.17-4.86-2.42,0-4,.88-4.91,2.7L20,23V14.68a1,1,0,0,0-.3-.71,1,1,0,0,0-.71-.3H18V34.11h1a1,1,0,0,0,.71-.3.93.93,0,0,0,.3-.71V24.32c.79-2.22,2.5-3.34,5.07-3.34"/><path class="cls-1" d="M31,34.5H29.65a1.4,1.4,0,0,1-1.4-1.4V24.32c0-2-1-2.95-3.16-2.95a4.5,4.5,0,0,0-4.69,3.07V33.1A1.4,1.4,0,0,1,19,34.5H17.69a.09.09,0,0,1-.09-.09v-21a.09.09,0,0,1,.09-.09H19a1.4,1.4,0,0,1,1.4,1.4v6.63c1-1.72,2.69-2.59,5.09-2.59,3.69,0,5.56,1.77,5.56,5.25V34.41a.09.09,0,0,1-.09.09M25.09,21.19c2.21,0,3.34,1,3.34,3.13V33.1a1.1,1.1,0,0,0,.36.86,1.13,1.13,0,0,0,.86.36h1.22V24a5,5,0,0,0-1.34-3.81,5.72,5.72,0,0,0-4-1.26c-2.48,0-4.2,1-5.1,2.82a.09.09,0,0,1-.1.05.1.1,0,0,1-.07-.09v-7a1.2,1.2,0,0,0-.36-.86,1.16,1.16,0,0,0-.86-.36H17.78V34.32H19a1.23,1.23,0,0,0,1.22-1.22V24.39a4.68,4.68,0,0,1,4.87-3.2"/><path class="cls-1" d="M36.56,19h1.31a1.3,1.3,0,0,1,1.31,1.31v1.38a4.61,4.61,0,0,1,4.4-2.87,13.21,13.21,0,0,1,2.94.34v1.27c0,.67-.42,1-1.26,1a14.33,14.33,0,0,0-2.09-.14q-2.87,0-4,3.15V33.1a1.31,1.31,0,0,1-.38.94,1.29,1.29,0,0,1-.93.37H36.56Z"/><path class="cls-1" d="M37.87,34.72l-1.35-.26-.09-15.61,1.44-.17a1.56,1.56,0,0,1,1.14.48,1.54,1.54,0,0,1,.48,1.14v.27a4.74,4.74,0,0,1,4.09-2.07,13.85,13.85,0,0,1,3,.35l.24.06v1.51c0,.49-.21,1.31-1.57,1.31h0a13.63,13.63,0,0,0-2-.13c-1.77,0-3,.94-3.68,2.89V33.1A1.59,1.59,0,0,1,39,34.26a1.62,1.62,0,0,1-1.14.46m-1-.61h1a1,1,0,0,0,1-1V24.38l0,0c.79-2.22,2.23-3.35,4.27-3.35a16.34,16.34,0,0,1,2.11.13c.83,0,.94-.36.94-.7v-1a13.55,13.55,0,0,0-2.64-.28,4.27,4.27,0,0,0-4.12,2.7L38.88,23V20.3a1,1,0,0,0-1-1h-1Z"/><path class="cls-1" d="M37.87,34.5H36.56a.09.09,0,0,1-.09-.09V19a.09.09,0,0,1,.09-.09h1.31a1.33,1.33,0,0,1,1,.41,1.37,1.37,0,0,1,.41,1v1a4.64,4.64,0,0,1,4.31-2.59,13.39,13.39,0,0,1,3,.34.09.09,0,0,1,.07.09v1.27c0,.73-.45,1.1-1.35,1.1h0a14.18,14.18,0,0,0-2.08-.14c-1.86,0-3.17,1-3.9,3.07V33.1a1.37,1.37,0,0,1-1.4,1.4m-1.22-.18h1.22a1.2,1.2,0,0,0,1.22-1.22V24.44a0,0,0,0,1,0,0c.75-2.13,2.12-3.21,4.07-3.21a14.23,14.23,0,0,1,2.09.14c.79,0,1.17-.31,1.17-.92v-1.2a13.53,13.53,0,0,0-2.85-.32,4.55,4.55,0,0,0-4.32,2.82.08.08,0,0,1-.1.05.1.1,0,0,1-.07-.09V20.3a1.16,1.16,0,0,0-.36-.86,1.13,1.13,0,0,0-.86-.36H36.65Z"/><path class="cls-3" d="M51.14,23.12a.89.89,0,0,1,.44-.75,1.86,1.86,0,0,1,1.06-.31h1.5V33.41a.88.88,0,0,1-.44.74,1.8,1.8,0,0,1-1.06.32h-1.5Z"/><path class="cls-3" d="M52.64,34.71H50.79V23.12a1.09,1.09,0,0,1,.55-.92,2.22,2.22,0,0,1,1.3-.38h1.85V33.41a1.11,1.11,0,0,1-.55.92,2.24,2.24,0,0,1-1.3.38m-1.16-.49h1.16a1.36,1.36,0,0,0,.81-.24.66.66,0,0,0,.34-.57V22.31H52.64a1.3,1.3,0,0,0-.81.24.67.67,0,0,0-.35.57Z"/><path class="cls-3" d="M52.64,34.54h-1.5c-.06,0-.11,0-.11-.07V23.12a.94.94,0,0,1,.48-.8A1.91,1.91,0,0,1,52.64,22h1.5c.06,0,.1,0,.1.07V33.41a1,1,0,0,1-.47.8,1.93,1.93,0,0,1-1.13.33m-1.4-.15h1.4a1.6,1.6,0,0,0,1-.29.81.81,0,0,0,.42-.69V22.13h-1.4a1.7,1.7,0,0,0-1,.29.84.84,0,0,0-.41.7Z"/><path class="cls-3" d="M52.64,34.78h-1.5c-.25,0-.45-.14-.45-.31V23.12a1.13,1.13,0,0,1,.58-1,2.29,2.29,0,0,1,1.37-.4h1.5c.25,0,.45.14.45.31V33.41a1.15,1.15,0,0,1-.58,1,2.31,2.31,0,0,1-1.37.4m-1-.63h1a1.22,1.22,0,0,0,.74-.22.6.6,0,0,0,.31-.52v-11h-1a1.22,1.22,0,0,0-.74.22.6.6,0,0,0-.31.52Z"/><path class="cls-4" d="M60.46,20.13a1.18,1.18,0,0,1,.44-.93A1.56,1.56,0,0,1,62,18.81h1.5V33.06A1.15,1.15,0,0,1,63,34a1.56,1.56,0,0,1-1.06.39h-1.5Z"/><path class="cls-4" d="M62,34.69H60.11V20.13A1.48,1.48,0,0,1,60.66,19a2,2,0,0,1,1.3-.57h1.85V33.06a1.42,1.42,0,0,1-.55,1.15,1.88,1.88,0,0,1-1.3.48m-1.15-.61H62a1.22,1.22,0,0,0,.82-.3.9.9,0,0,0,.34-.72V19.12H62a1.2,1.2,0,0,0-.81.3.88.88,0,0,0-.34.71Z"/><path class="cls-4" d="M62,34.48h-1.5a.1.1,0,0,1-.1-.1V20.13a1.26,1.26,0,0,1,.47-1A1.67,1.67,0,0,1,62,18.72h1.5a.1.1,0,0,1,.11.09V33.06a1.25,1.25,0,0,1-.48,1,1.63,1.63,0,0,1-1.13.42m-1.4-.19H62a1.45,1.45,0,0,0,1-.36,1.08,1.08,0,0,0,.41-.87V18.9H62a1.41,1.41,0,0,0-1,.37,1.07,1.07,0,0,0-.42.86Z"/><path class="cls-4" d="M61.74,34.78H60.41a.4.4,0,0,1-.4-.4V20.13a1.57,1.57,0,0,1,.52-1.21,1.63,1.63,0,0,1,1.21-.51h1.33a.39.39,0,0,1,.39.4V33.06A1.64,1.64,0,0,1,63,34.28a1.66,1.66,0,0,1-1.21.5M60.81,34h.93a.88.88,0,0,0,.65-.28.83.83,0,0,0,.28-.65V19.21h-.93a.91.91,0,0,0-.66.27.84.84,0,0,0-.27.65Z"/><path class="cls-1" d="M69.09,18.85a1.64,1.64,0,0,1,1.74,1.33l3.6,12.31L78,20.18a1.62,1.62,0,0,1,1.73-1.33h1.33L76.91,33.08a1.63,1.63,0,0,1-1.73,1.34H73.67a1.64,1.64,0,0,1-1.73-1.34L67.76,18.85Z"/><path class="cls-1" d="M75.18,34.72H73.67a1.93,1.93,0,0,1-2-1.56l-4.2-14.55,1.64-.06a1.93,1.93,0,0,1,2,1.55l3.31,11.34L77.74,20.1a1.92,1.92,0,0,1,2-1.55l1.54.12-4.1,14.5a1.93,1.93,0,0,1-2,1.55m-7-15.57L72.23,33a1.34,1.34,0,0,0,1.44,1.12h1.51A1.34,1.34,0,0,0,76.62,33l4.07-13.86h-.93a1.33,1.33,0,0,0-1.44,1.11L74.43,33.55,70.54,20.27a1.34,1.34,0,0,0-1.45-1.12Z"/><path class="cls-1" d="M75.18,34.51H73.67a1.72,1.72,0,0,1-1.82-1.4L67.68,18.87a.08.08,0,0,1,0-.08.09.09,0,0,1,.07,0h1.33a1.71,1.71,0,0,1,1.82,1.4l3.52,12,3.51-12a1.72,1.72,0,0,1,1.82-1.4h1.33a.08.08,0,0,1,.07,0,.09.09,0,0,1,0,.08L77,33.11a1.72,1.72,0,0,1-1.82,1.4m-7.3-15.57L72,33.06a1.55,1.55,0,0,0,1.65,1.27h1.51a1.55,1.55,0,0,0,1.65-1.27L81,18.94H79.76a1.54,1.54,0,0,0-1.65,1.26l-3.6,12.32a.08.08,0,0,1-.08.06.09.09,0,0,1-.09-.06l-3.6-12.31a1.54,1.54,0,0,0-1.65-1.27Z"/><path class="cls-1" d="M75.18,34.81H73.67a2,2,0,0,1-2.11-1.62L67.39,19a.37.37,0,0,1,.06-.35.4.4,0,0,1,.31-.15h1.33a2,2,0,0,1,2.12,1.62l3.22,11,3.22-11a2,2,0,0,1,2.11-1.61h1.33a.4.4,0,0,1,.31.15.37.37,0,0,1,.06.35L77.29,33.2a2,2,0,0,1-2.11,1.61M68.29,19.24l4,13.73A1.26,1.26,0,0,0,73.67,34h1.51A1.26,1.26,0,0,0,76.54,33l4-13.74h-.81a1.25,1.25,0,0,0-1.36,1L74.8,32.6a.41.41,0,0,1-.26.27l-.11.36-.11-.36a.41.41,0,0,1-.27-.27l-3.6-12.31a1.24,1.24,0,0,0-1.36-1.05Z"/><path class="cls-1" d="M94.63,31.74a12.69,12.69,0,0,1-3.08.39q-4.48,0-4.6-4.22h9.37c.87,0,1.31-.4,1.31-1.2a10,10,0,0,0-1.27-5.56q-1.56-2.29-5.26-2.3-6.82,0-6.83,7.87t7.28,7.87a14.1,14.1,0,0,0,3.08-.31ZM87.88,22.5a4,4,0,0,1,3.22-1.19,3.58,3.58,0,0,1,3.08,1.21A6,6,0,0,1,95,25.41H87a5.14,5.14,0,0,1,.93-2.91"/><path class="cls-1" d="M91.55,34.9c-5,0-7.58-2.75-7.58-8.18s2.4-8.17,7.13-8.17c2.56,0,4.42.82,5.51,2.43a10.28,10.28,0,0,1,1.32,5.73,1.4,1.4,0,0,1-1.61,1.5H87.26c.18,2.43,1.58,3.62,4.29,3.62a12.67,12.67,0,0,0,3-.38l.38-.09v3.16l-.24,0a14.29,14.29,0,0,1-3.15.33M91.1,19.15c-4.39,0-6.53,2.48-6.53,7.57s2.29,7.57,7,7.57A14.42,14.42,0,0,0,94.33,34V32.12a12.74,12.74,0,0,1-2.78.31c-3.17,0-4.82-1.52-4.91-4.51v-.31h9.69c.7,0,1-.27,1-.9a9.64,9.64,0,0,0-1.21-5.39c-1-1.44-2.66-2.17-5-2.17m4.18,6.57H86.62l0-.33a5.45,5.45,0,0,1,1-3.08h0A4.27,4.27,0,0,1,91.1,21a3.86,3.86,0,0,1,3.32,1.33,6.17,6.17,0,0,1,.83,3.05Zm-8-.61h7.34a5.38,5.38,0,0,0-.69-2.42,3.31,3.31,0,0,0-2.83-1.07,3.71,3.71,0,0,0-3,1.08,4.55,4.55,0,0,0-.83,2.41"/><path class="cls-1" d="M94.63,34.18a14.14,14.14,0,0,1-3.08.32,7,7,0,0,1-5.39-1.94c-1.19-1.28-1.8-3.25-1.8-5.84s.57-4.55,1.69-5.84a6.34,6.34,0,0,1,5-1.94c2.43,0,4.17.76,5.19,2.26a9.89,9.89,0,0,1,1.25,5.51c0,.75-.4,1.11-1.22,1.11H87a.09.09,0,0,0-.07,0,0,0,0,0,0,0,.06c.08,2.86,1.66,4.31,4.69,4.31a12.69,12.69,0,0,0,3.08-.39v-.18a12.69,12.69,0,0,1-3.08.39c-2.93,0-4.4-1.32-4.51-4h9.28c.93,0,1.39-.43,1.39-1.29a10.06,10.06,0,0,0-1.27-5.61c-1.06-1.55-2.85-2.34-5.34-2.34-4.59,0-6.92,2.68-6.92,8s2.48,8,7.37,8a14.16,14.16,0,0,0,3.08-.31Z"/><path class="cls-1" d="M91.55,35a7.48,7.48,0,0,1-5.74-2.1c-1.28-1.38-1.93-3.46-1.93-6.17s.61-4.78,1.81-6.16a6.81,6.81,0,0,1,5.41-2.1c2.6,0,4.48.83,5.59,2.47A10.38,10.38,0,0,1,98,26.71a1.49,1.49,0,0,1-1.7,1.59h-9c.2,2.34,1.54,3.44,4.19,3.44a12.26,12.26,0,0,0,3-.39l.38-.09v.81l-.23.06a13.52,13.52,0,0,1-3.16.39c-3.18,0-4.91-1.59-5-4.6a.39.39,0,0,1,.11-.28.4.4,0,0,1,.29-.12h9.37c.65,0,.91-.24.91-.81A9.66,9.66,0,0,0,96,21.37c-1-1.41-2.62-2.13-4.94-2.13a6.08,6.08,0,0,0-4.82,1.83c-1.07,1.24-1.62,3.14-1.62,5.65s.58,4.41,1.72,5.64a6.75,6.75,0,0,0,5.17,1.84,13.79,13.79,0,0,0,3-.31l.37-.08v.8l-.24,0a14.43,14.43,0,0,1-3.15.33"/><path class="cls-1" d="M95,25.5l.07,0a.1.1,0,0,0,0-.07,6.13,6.13,0,0,0-.79-2.95,3.67,3.67,0,0,0-3.15-1.24,4.09,4.09,0,0,0-3.29,1.23,5.26,5.26,0,0,0-1,3,.07.07,0,0,0,0,.07l.07,0Zm-7-2.94a3.89,3.89,0,0,1,3.15-1.15,3.52,3.52,0,0,1,3,1.16,5.89,5.89,0,0,1,.74,2.75H87A5,5,0,0,1,88,22.56"/><path class="cls-1" d="M95,25.81H87a.39.39,0,0,1-.29-.13.37.37,0,0,1-.11-.29,5.56,5.56,0,0,1,1-3.14,4.36,4.36,0,0,1,3.52-1.33,3.93,3.93,0,0,1,3.4,1.37,6.33,6.33,0,0,1,.84,3.09.41.41,0,0,1-.1.3.39.39,0,0,1-.29.13M87.38,25h7.14a5.16,5.16,0,0,0-.66-2.28,3.24,3.24,0,0,0-2.76-1,3.66,3.66,0,0,0-2.92,1,4.42,4.42,0,0,0-.8,2.27"/><path class="cls-5" d="M67.87,8.33c.11-1.26.23-2.51.42-3.76L67.84,5a2.87,2.87,0,0,1,.5.36c.11.1.3-.1.35-.18a8,8,0,0,0,.88-2.95l-.48.39c.23.3.52.55.74.85.1.13.26,0,.33-.07a8.72,8.72,0,0,0,.74-.87l-.39.14c1.15,2.25-1.4,3.92-1.05,6.16a.13.13,0,0,0,.16.11c1.3-.13,3-1.65,3.35.44l.34-.51c-2.28.44-3.76,2.33-5.74,3.35-1.35.7-2.62,1.52-4,2.23-.64.34-3.13,1.92-3.79,1.16-.25-.28,2-1.13,2.24-1.25C63,14,66.14,12.83,65,11.3a3.84,3.84,0,0,0-1.39-.92A16.37,16.37,0,0,1,61,9a4.91,4.91,0,0,1-2-6.08l-.43.23a7.81,7.81,0,0,0,4,2.78c1.71.6,5,.94,5.42,3,.07.33.54-.16.49-.39-.35-1.7-2-2.1-3.49-2.56C62.77,5.29,60.45,4.64,59,2.64c-.14-.19-.39.1-.44.22A5.12,5.12,0,0,0,59,8c1.18,1.68,3,2.33,4.76,3.28.3.17,1.15.68.87,1.13a3.18,3.18,0,0,1-1.31.87c-1.07.52-2.23.86-3.26,1.46-.43.26-1.09.83-.72,1.39.52.8,2.25-.17,2.83-.43a53.17,53.17,0,0,0,4.69-2.55c.69-.4,1.38-.76,2-1.22,1.36-.95,2.52-2.12,4.21-2.44a.5.5,0,0,0,.34-.5c-.11-.65-.36-1.46-1.18-1.38A4.2,4.2,0,0,0,71.11,8c-.49.19-1.22.7-1.19-.11,0-1,.83-1.95,1.17-2.9A3.28,3.28,0,0,0,71,2.17c-.09-.18-.34.06-.39.14A6.14,6.14,0,0,1,70,3L70.29,3c-.22-.31-.51-.55-.74-.86s-.45.24-.48.38A6.9,6.9,0,0,1,68.38,5a3.9,3.9,0,0,1,.35-.19,2.94,2.94,0,0,0-.5-.37c-.21-.11-.42.26-.44.43-.18,1.24-.3,2.49-.42,3.75,0,.4.48,0,.5-.26"/><path class="cls-3" d="M53.39,11.89c-1-2.92-6.3-5.6-7.46-1.41-.44,1.58.93,3.15,1.9,4.23,1.25,1.41,2.83,2.52,4,3.95.13.15.67-.52.48-.74-1.76-2.07-4.17-3.51-5.51-6a2.58,2.58,0,0,1-.36-1.89c.36-1.28,2.15-1.12,3.05-.81a5.59,5.59,0,0,1,3.32,3.29c.07.22.63-.41.54-.67"/><path class="cls-3" d="M53,11.36c.4-1.45,2.06-3.22,3.54-1.81,1.27,1.22.44,3.14-.47,4.25-1.39,1.71-3.43,2.79-4.63,4.66-.3.46.24.81.54.34,1.8-2.79,6.48-4.47,5.82-8.43a2.33,2.33,0,0,0-2.67-2.1c-1.56.22-2.47,1.82-2.83,3.17-.16.56.59.34.7-.08"/><polygon class="cls-3" points="50.23 9.23 48.91 8.34 47.76 8.79 46.78 8.96 46.16 10.72 46.64 12.55 48.2 14.47 50.01 16.15 51.49 17.46 52.35 17.92 55.01 15.32 56.83 13.5 57.56 11.65 57.32 9.92 56.4 8.71 54.85 8.34 53.79 9.13 52.94 10.42 52.37 11.13 50.23 9.23"/><path class="cls-5" d="M53.39,11.89c-1-2.92-6.3-5.6-7.46-1.41-.44,1.58.93,3.15,1.9,4.23,1.25,1.41,2.83,2.52,4,3.95.13.15.67-.52.48-.74-1.76-2.07-4.17-3.51-5.51-6a2.58,2.58,0,0,1-.36-1.89c.36-1.28,2.15-1.12,3.05-.81a5.59,5.59,0,0,1,3.32,3.29c.07.22.63-.41.54-.67"/><path class="cls-5" d="M53,11.36c.4-1.45,2.06-3.22,3.54-1.81,1.27,1.22.44,3.14-.47,4.25-1.39,1.71-3.43,2.79-4.63,4.66-.3.46.24.81.54.34,1.8-2.79,6.48-4.47,5.82-8.43a2.33,2.33,0,0,0-2.67-2.1c-1.56.22-2.47,1.82-2.83,3.17-.16.56.59.34.7-.08"/><path class="cls-1" d="M18.38,40.6a2,2,0,0,1,.73-.77,2,2,0,0,1,1-.27,1.86,1.86,0,0,1,.87.2,1.72,1.72,0,0,1,.6.49v-.62h.89v4.26H21.6v-.64a1.83,1.83,0,0,1-.61.51,1.93,1.93,0,0,1-.88.2,2,2,0,0,1-1-.28,2.11,2.11,0,0,1-.72-.79,2.41,2.41,0,0,1-.26-1.15A2.34,2.34,0,0,1,18.38,40.6Zm3,.39a1.28,1.28,0,0,0-.48-.5,1.32,1.32,0,0,0-1.26,0,1.19,1.19,0,0,0-.48.49,1.53,1.53,0,0,0-.18.76,1.59,1.59,0,0,0,.18.77,1.31,1.31,0,0,0,.48.51,1.29,1.29,0,0,0,.63.17,1.15,1.15,0,0,0,.63-.17,1.22,1.22,0,0,0,.48-.5,1.72,1.72,0,0,0,0-1.53Z"/><path class="cls-1" d="M25.07,43.78a1.59,1.59,0,0,1-.63-.5,1.19,1.19,0,0,1-.25-.7h.91a.62.62,0,0,0,.26.45.89.89,0,0,0,.59.19,1,1,0,0,0,.58-.15.44.44,0,0,0,.2-.36.38.38,0,0,0-.23-.36,3.8,3.8,0,0,0-.72-.25,7.83,7.83,0,0,1-.78-.26,1.37,1.37,0,0,1-.52-.38,1,1,0,0,1-.22-.67,1,1,0,0,1,.2-.62,1.34,1.34,0,0,1,.58-.45,2.1,2.1,0,0,1,.86-.16,1.76,1.76,0,0,1,1.17.37,1.29,1.29,0,0,1,.47,1h-.88a.63.63,0,0,0-.23-.46.89.89,0,0,0-.56-.17,1,1,0,0,0-.54.13.42.42,0,0,0-.18.35.4.4,0,0,0,.12.29,1.09,1.09,0,0,0,.3.18l.53.16a6,6,0,0,1,.76.26,1.34,1.34,0,0,1,.51.37,1,1,0,0,1,.23.66,1.14,1.14,0,0,1-.2.65,1.43,1.43,0,0,1-.57.45A2.27,2.27,0,0,1,26,44,2.13,2.13,0,0,1,25.07,43.78Z"/><path class="cls-1" d="M30.35,40.35v2.36a.46.46,0,0,0,.11.34.56.56,0,0,0,.38.1h.55v.74h-.7a1.31,1.31,0,0,1-.91-.28,1.16,1.16,0,0,1-.32-.9V40.35H29v-.72h.5V38.57h.89v1.06h1v.72Z"/><path class="cls-1" d="M34.36,39.74a1.57,1.57,0,0,1,.77-.18v.91H34.9a1,1,0,0,0-.78.27,1.22,1.22,0,0,0-.27.91v2.24H33V39.63h.88v.62A1.39,1.39,0,0,1,34.36,39.74Z"/><path class="cls-1" d="M37.47,43.68a2,2,0,0,1-.77-.77,2.4,2.4,0,0,1-.28-1.16,2.31,2.31,0,0,1,.29-1.15,2,2,0,0,1,.78-.77,2.4,2.4,0,0,1,2.21,0,2,2,0,0,1,.78.77,2.31,2.31,0,0,1,.29,1.15,2.23,2.23,0,0,1-.3,1.16,2,2,0,0,1-.8.77,2.21,2.21,0,0,1-1.11.28A2.11,2.11,0,0,1,37.47,43.68ZM39.19,43a1.28,1.28,0,0,0,.49-.49,1.59,1.59,0,0,0,.18-.79,1.7,1.7,0,0,0-.17-.78A1.29,1.29,0,0,0,38,40.49a1.18,1.18,0,0,0-.46.48,1.7,1.7,0,0,0-.17.78,1.53,1.53,0,0,0,.35,1.07,1.17,1.17,0,0,0,.89.37A1.26,1.26,0,0,0,39.19,43Z"/><path class="cls-1" d="M50.26,39.63l-1.32,4.26H48l-.86-3.15-.85,3.15h-.93L44,39.63h.89l.89,3.42.91-3.42h.92L48.51,43l.88-3.41Z"/><path class="cls-1" d="M55.56,42.09H52.31a1.16,1.16,0,0,0,.38.82,1.2,1.2,0,0,0,.83.31,1,1,0,0,0,1-.6h.95a1.91,1.91,0,0,1-.7,1,2.27,2.27,0,0,1-2.35.1,1.94,1.94,0,0,1-.76-.77,2.65,2.65,0,0,1,0-2.31,1.92,1.92,0,0,1,.75-.77,2.23,2.23,0,0,1,1.11-.27,2.27,2.27,0,0,1,1.08.26,1.92,1.92,0,0,1,.73.74,2.28,2.28,0,0,1,.26,1.09A2.94,2.94,0,0,1,55.56,42.09Zm-.89-.71a1,1,0,0,0-.35-.78,1.2,1.2,0,0,0-.84-.3,1.16,1.16,0,0,0-.78.29,1.24,1.24,0,0,0-.38.79Z"/><path class="cls-1" d="M58.11,38.17v5.72h-.88V38.17Z"/><path class="cls-1" d="M60.93,38.17v5.72H60V38.17Z"/><path class="cls-1" d="M65.91,39.77a1.48,1.48,0,0,1,.62.62,2,2,0,0,1,.22,1v2.51h-.87V41.51a1.24,1.24,0,0,0-.29-.88,1.16,1.16,0,0,0-1.56,0,1.2,1.2,0,0,0-.29.88v2.38h-.88V39.63h.88v.49a1.33,1.33,0,0,1,.55-.41,1.75,1.75,0,0,1,.72-.15A1.93,1.93,0,0,1,65.91,39.77Z"/><path class="cls-1" d="M72.52,42.09H69.26a1.18,1.18,0,0,0,1.22,1.13,1,1,0,0,0,1-.6h1a1.91,1.91,0,0,1-.7,1,2,2,0,0,1-1.25.38,2.14,2.14,0,0,1-1.1-.28,1.92,1.92,0,0,1-.75-.77,2.29,2.29,0,0,1-.28-1.16,2.38,2.38,0,0,1,.27-1.15,1.92,1.92,0,0,1,.75-.77,2.23,2.23,0,0,1,1.11-.27,2.2,2.2,0,0,1,1.07.26,1.88,1.88,0,0,1,.74.74,2.28,2.28,0,0,1,.26,1.09A2.94,2.94,0,0,1,72.52,42.09Zm-.89-.71a1,1,0,0,0-.35-.78,1.24,1.24,0,0,0-.84-.3,1.14,1.14,0,0,0-.78.29,1.2,1.2,0,0,0-.39.79Z"/><path class="cls-1" d="M74.83,43.78a1.75,1.75,0,0,1-.63-.5,1.18,1.18,0,0,1-.24-.7h.91a.59.59,0,0,0,.26.45.87.87,0,0,0,.59.19.94.94,0,0,0,.57-.15.42.42,0,0,0,.21-.36.39.39,0,0,0-.23-.36,3.8,3.8,0,0,0-.72-.25,7.83,7.83,0,0,1-.78-.26,1.33,1.33,0,0,1-.53-.38,1,1,0,0,1-.22-.67,1,1,0,0,1,.2-.62,1.4,1.4,0,0,1,.58-.45,2.13,2.13,0,0,1,.86-.16,1.73,1.73,0,0,1,1.17.37,1.3,1.3,0,0,1,.48,1h-.88a.7.7,0,0,0-.23-.46.9.9,0,0,0-.57-.17,1,1,0,0,0-.53.13.41.41,0,0,0-.19.35.37.37,0,0,0,.13.29,1.09,1.09,0,0,0,.3.18c.12,0,.29.1.52.16a6.21,6.21,0,0,1,.77.26,1.52,1.52,0,0,1,.51.37,1,1,0,0,1,.22.66,1.14,1.14,0,0,1-.2.65,1.3,1.3,0,0,1-.57.45,2.24,2.24,0,0,1-.86.16A2.19,2.19,0,0,1,74.83,43.78Z"/><path class="cls-1" d="M79.73,43.78a1.75,1.75,0,0,1-.63-.5,1.35,1.35,0,0,1-.25-.7h.92A.59.59,0,0,0,80,43a.87.87,0,0,0,.59.19,1,1,0,0,0,.57-.15.42.42,0,0,0,.21-.36.39.39,0,0,0-.23-.36,3.8,3.8,0,0,0-.72-.25,7.83,7.83,0,0,1-.78-.26,1.33,1.33,0,0,1-.53-.38,1,1,0,0,1-.22-.67,1,1,0,0,1,.21-.62,1.3,1.3,0,0,1,.57-.45,2.13,2.13,0,0,1,.86-.16,1.73,1.73,0,0,1,1.17.37,1.3,1.3,0,0,1,.48,1h-.88a.7.7,0,0,0-.23-.46.9.9,0,0,0-.57-.17,1,1,0,0,0-.53.13.43.43,0,0,0-.19.35.37.37,0,0,0,.13.29,1.09,1.09,0,0,0,.3.18c.12,0,.29.1.52.16a6.21,6.21,0,0,1,.77.26A1.52,1.52,0,0,1,82,42a1,1,0,0,1,.22.66,1.07,1.07,0,0,1-.2.65,1.3,1.3,0,0,1-.57.45,2.24,2.24,0,0,1-.86.16A2.19,2.19,0,0,1,79.73,43.78Z"/><path class="cls-1" d="M15,41.08a.22.22,0,0,1,0,.16s-.08.08-.1.11a2.61,2.61,0,0,1-.31.27l-.54.43s0,0,0,0c.11.37.21.74.32,1.11a1.62,1.62,0,0,1,0,.19.22.22,0,0,1-.25.25l-.07,0-.1-.07c-.21-.19-.42-.38-.64-.56l-.22-.2s0,0,0,0a9.33,9.33,0,0,0-.94.6l-.37.25-.13.08c-.08,0-.15.09-.21,0s0-.08,0-.13a5,5,0,0,1,.29-.73c.08-.2.16-.4.22-.6a1,1,0,0,0,0-.14s0,0,0,0l-.51-.37-.2-.17a.13.13,0,0,1,0-.16.17.17,0,0,1,.1-.1,2,2,0,0,1,.42-.09l.6-.08s0,0,0,0c.14-.3.24-.61.35-.91a2.09,2.09,0,0,0,.08-.23.59.59,0,0,1,0-.08.23.23,0,0,1,.36,0,.42.42,0,0,1,.07.13c.13.32.24.63.36.95,0,0,0,0,0,0a1.19,1.19,0,0,0,.46.05h.47a1.13,1.13,0,0,1,.36.06Z"/><path class="cls-1" d="M88.79,41.16a.18.18,0,0,1,0,.16s-.08.09-.1.12a2.73,2.73,0,0,1-.31.27l-.54.43s0,0,0,0c.1.38.21.75.31,1.12a1.33,1.33,0,0,1,0,.19.22.22,0,0,1-.25.24.11.11,0,0,1-.08,0l-.09-.06-.65-.56-.22-.2h0a9.93,9.93,0,0,0-.93.61l-.38.25a.57.57,0,0,1-.13.08c-.07,0-.14.09-.2,0s0-.08,0-.13a5.16,5.16,0,0,1,.29-.74,5.33,5.33,0,0,0,.23-.6l0-.14s0,0,0,0c-.17-.12-.34-.24-.5-.37l-.21-.17a.14.14,0,0,1,0-.16.17.17,0,0,1,.1-.1,1.58,1.58,0,0,1,.42-.09l.6-.08s0,0,0,0c.14-.3.24-.61.36-.91a1.55,1.55,0,0,1,.08-.23.36.36,0,0,1,0-.09A.23.23,0,0,1,87,40s0,.08.07.13l.36,1s0,0,0,0a1.8,1.8,0,0,0,.46,0h.47a1.13,1.13,0,0,1,.36.06Z"/></svg>