<svg id="Layer_1" data-name="Layer 1" xmlns="http://www.w3.org/2000/svg" viewBox="0 0 50.51 54.51"><defs><style>.cls-1{fill:#05b8d3;}.cls-1,.cls-2,.cls-3{fill-rule:evenodd;}.cls-2{fill:#e94444;}.cls-3{fill:#f91919;}</style></defs><title>lv01</title><path class="cls-1" d="M23.05,14.24a8,8,0,0,0-2.86,10.22,7.63,7.63,0,0,0,3.5,3.64l.47.25a2.69,2.69,0,0,1-.22,2.7,10.09,10.09,0,0,1-5.75-4.74,10.68,10.68,0,1,1,15,3.7c-.09.06-.19.1-.28.15s-.23-.16-.24-.29c-.06-.83,0-1.66-.08-2.48a.6.6,0,0,1,.1-.25,8.33,8.33,0,0,0,2.68-4.59,8.05,8.05,0,0,0-6-9.38,7,7,0,0,0-1.7-.23"/><path class="cls-2" d="M24.65,35.2a8,8,0,0,0-1.92-13.1,1.08,1.08,0,0,1-.18-.11c-.07,0-.16-.11-.18-.19a4.26,4.26,0,0,1,.12-2.32.25.25,0,0,1,.28-.19,10.1,10.1,0,0,1,5.57,4.56,10.54,10.54,0,0,1-1.85,13.21,10.17,10.17,0,0,1-11,2.24,10.07,10.07,0,0,1-6.86-8.77c-.5-4.38,1.27-7.8,4.9-10.27a1.28,1.28,0,0,1,.24-.11c.23,0,.25.18.26.33.06.76,0,1.53.11,2.29a.71.71,0,0,1-.14.39,8.33,8.33,0,0,0-2.68,4.6,8,8,0,0,0,6,9.38,8.27,8.27,0,0,0,3.36.1"/><path class="cls-2" d="M17.84,43.68c0-.58,0-1.15,0-1.72,0-.35.12-.43.43-.4a7.49,7.49,0,0,0,1.77,0c.41-.05.47.12.47.48,0,1,0,2,0,3,0,1.15.52,1.68,1.66,1.68.63,0,1.25,0,1.88,0,.26,0,.35.09.34.34,0,.63,0,1.26,0,1.89,0,.32-.09.44-.42.43-.64,0-1.29,0-1.94,0a1.4,1.4,0,0,0-1.52,1.55c0,.59,0,1.18,0,1.77,0,.42-.13.52-.52.49a14.41,14.41,0,0,0-1.61,0c-.4,0-.57-.07-.54-.52s0-1.22,0-1.82a1.37,1.37,0,0,0-1.44-1.46q-1,0-2,0c-.31,0-.41-.11-.4-.41,0-.62,0-1.25,0-1.88,0-.28.09-.37.37-.37.65,0,1.29,0,1.94,0a1.43,1.43,0,0,0,1.58-1.6Z"/><path class="cls-1" d="M41.94,1.33c1.57,0,3.15,0,4.73,0,.36,0,.43.11.43.45,0,3.16,0,6.31,0,9.47,0,.42-.13.51-.52.49a15.5,15.5,0,0,0-1.67,0c-.35,0-.45-.1-.45-.45,0-1.86,0-3.73,0-5.59C44.48,4.5,43.94,4,42.75,4c-1.83,0-3.66,0-5.49,0-.4,0-.58-.06-.54-.51a8.13,8.13,0,0,0,0-1.56c-.05-.51.16-.58.6-.57C38.85,1.35,40.39,1.33,41.94,1.33Z"/><path class="cls-1" d="M42.87,6.65c.15.54-.17,1-.62,1.42C40.59,9.68,39,11.32,37.34,13c-.25.24-.38.28-.61,0a7.11,7.11,0,0,0-1.28-1.29c-.2-.17-.28-.28-.05-.5,1.81-1.8,3.6-3.6,5.4-5.4a.64.64,0,0,1,.53-.21h.59C42.87,5.57,42.87,5.57,42.87,6.65Z"/><path class="cls-1" d="M32.66,27.14a16.63,16.63,0,0,1,.11,2.73.32.32,0,0,0,.11.29,6.25,6.25,0,0,1-1.53.76,10.29,10.29,0,0,0,0-2.71c0-.21.12-.28.25-.37Z"/><path class="cls-2" d="M14,23.16a19.18,19.18,0,0,1-.11-2.73.31.31,0,0,0-.12-.28,6.52,6.52,0,0,1,1.54-.77,10.36,10.36,0,0,0,0,2.72c0,.2-.13.27-.26.36Z"/><path class="cls-2" d="M22.77,19.29a1.29,1.29,0,0,0-.31,1A4.58,4.58,0,0,0,22.55,22l-.49-.2c-1.1-.39-1.1-.39-1-1.57.12-1.41.19-1.47,1.53-1Z"/><path class="cls-1" d="M23.94,31.05a4.53,4.53,0,0,0,.22-2.7l.35.14c1.18.42,1.18.42,1,1.7s-.24,1.36-1.46.93A.91.91,0,0,1,23.94,31.05Z"/><path class="cls-3" d="M3.4,9.11a2.54,2.54,0,0,1,.53-1.62,2.15,2.15,0,0,1,3.5-.14,2.48,2.48,0,0,1,.19.26c.63.82,1.1.83,1.73,0,.05-.06.09-.12.14-.17a2.14,2.14,0,0,1,3.72.28A3.43,3.43,0,0,1,13,11.31a11.55,11.55,0,0,1-4.3,3.94.33.33,0,0,1-.39,0A11.85,11.85,0,0,1,4,11.38,4.1,4.1,0,0,1,3.4,9.11Z"/><path class="cls-3" d="M39.35,37.58a2.77,2.77,0,0,1-.71,1.69,7.55,7.55,0,0,1-2,1.65.38.38,0,0,1-.49,0,7.21,7.21,0,0,1-2.31-2.12,2.22,2.22,0,0,1-.36-1.68,1.22,1.22,0,0,1,1-1,1.06,1.06,0,0,1,1.1.51c.56.71,1,.74,1.56.09.35-.44.72-.76,1.32-.56A1.39,1.39,0,0,1,39.35,37.58Z"/></svg>