<?xml version="1.0" encoding="utf-8"?>
<!-- Generator: Adobe Illustrator 16.0.0, SVG Export Plug-In . SVG Version: 6.00 Build 0)  -->
<!DOCTYPE svg PUBLIC "-//W3C//DTD SVG 1.1//EN" "http://www.w3.org/Graphics/SVG/1.1/DTD/svg11.dtd">
<svg version="1.1" id="Layer_1" xmlns="http://www.w3.org/2000/svg" xmlns:xlink="http://www.w3.org/1999/xlink" x="0px" y="0px"
	 width="73.08px" height="76.632px" viewBox="0 0 73.08 76.632" enable-background="new 0 0 73.08 76.632" xml:space="preserve">
<path fill="#0285CC" d="M73.08,25.792h-1.316l-0.091-0.243c-7.309-19.401-28.96-29.208-48.364-21.9
	c-10.112,3.809-18.092,11.79-21.901,21.9l-0.093,0.243H0l0.186-0.505C7.642,5.211,29.962-5.02,50.041,2.437
	C60.62,6.364,68.962,14.708,72.892,25.287L73.08,25.792z"/>
<path fill="#0285CC" d="M71.535,58.158c-0.29-0.17-0.637-0.213-0.961-0.122c-0.317,0.095-0.619,0.237-0.894,0.424
	c-0.634,0.401-1.231,0.857-1.794,1.353c1.162-2.048,2.131-4.232,2.84-6.554c0.267-0.82,0.506-1.701,0.739-2.693l0.188-0.81
	l-0.646,0.535c-0.14,0.106-0.282,0.217-0.426,0.322l-0.085,0.062l-0.024,0.1c-0.126,0.513-0.249,0.964-0.373,1.392
	c-0.021-0.307-0.043-0.614-0.111-0.918c-0.061-0.332-0.234-0.735-0.572-0.734c-0.183,0.014-0.343,0.122-0.424,0.284
	c-0.078,0.161-0.127,0.335-0.141,0.513c-0.245,1.375-0.188,2.779,0.13,4.136c-0.438,1.094-0.953,2.141-1.503,3.165
	c0.152-0.586,0.243-1.188,0.229-1.8c0-0.324-0.059-0.704-0.356-0.81c-0.188-0.053-0.391,0.002-0.528,0.143
	c-0.132,0.14-0.231,0.304-0.296,0.485c-0.585,1.252-0.641,2.672-0.211,3.978c-1.197,1.886-2.578,3.63-4.125,5.202
	c0.325-0.543,0.6-1.115,0.758-1.729c0.073-0.227,0.095-0.466,0.063-0.702c-0.035-0.238-0.2-0.439-0.429-0.519
	c-0.322-0.089-0.647,0.163-0.862,0.424c-0.556,0.633-0.988,1.364-1.272,2.157c-0.12,0.334-0.669,1.981-0.37,2.341
	c-0.903,0.765-1.861,1.459-2.846,2.117c0.09-0.126,0.173-0.245,0.239-0.344c0.505-0.74,0.858-1.573,1.036-2.453
	c0.068-0.341,0.07-0.772-0.231-0.947c-0.197-0.098-0.433-0.078-0.613,0.051c-0.176,0.127-0.322,0.288-0.436,0.474
	c-0.83,1.214-1.445,2.563-1.817,3.986c-0.04,0.155-0.089,0.307-0.11,0.432c-1.677,0.955-3.441,1.757-5.279,2.395
	c0.83-0.645,1.51-1.473,1.929-2.46c0.104-0.199,0.162-0.422,0.176-0.646c0.01-0.232-0.104-0.449-0.298-0.574
	c-0.226-0.102-0.486-0.07-0.684,0.08c-0.188,0.15-0.347,0.335-0.468,0.544c-0.445,0.679-0.876,1.364-1.294,2.063
	c-0.189,0.32-0.706,0.978-0.9,1.485c-1.09,0.316-2.201,0.571-3.331,0.77c1.067-0.729,1.826-1.855,2.073-3.162
	c0.063-0.242,0.063-0.494,0-0.737c-0.07-0.246-0.283-0.424-0.537-0.449c-0.243,0.025-0.466,0.15-0.619,0.343
	c-0.771,0.769-1.436,1.641-1.976,2.586c-0.177,0.313-0.72,1.18-0.742,1.684c-1.432,0.166-2.884,0.26-4.358,0.227h-0.117
	l-0.013,0.013c-0.114-0.004-0.23-0.009-0.338-0.009C21.551,75.229,6.685,63.866,2.213,47.494l-0.057-0.208H1.072l0.096,0.354
	C5.716,64.536,21.03,76.281,38.525,76.292h0.017c0.392,0.021,0.783,0.021,1.171,0.021c2.463-0.01,4.869-0.315,7.196-0.853
	c0.457,0.318,1.499,0.649,1.742,0.731c0.7,0.233,1.428,0.377,2.164,0.426c0.278,0.03,0.559,0.009,0.827-0.068
	c0.272-0.082,0.488-0.287,0.579-0.557c0.063-0.363-0.103-0.729-0.42-0.917c-0.315-0.178-0.666-0.278-1.027-0.297
	c-0.147-0.016-0.595-0.05-1.138-0.069c0.525-0.17,1.04-0.365,1.554-0.563c1.419,0.132,3.865,0.151,4.269,0.07
	c0.322-0.022,0.614-0.193,0.791-0.464c0.103-0.312-0.023-0.654-0.303-0.828c-0.277-0.161-0.596-0.244-0.917-0.239
	c-0.259,0.03-0.516,0.074-0.772,0.114c0.705-0.356,1.393-0.741,2.069-1.146c0.52,0.245,1.53,0.347,1.823,0.371
	c0.738,0.059,1.481-0.026,2.188-0.252c0.388-0.106,0.744-0.311,1.037-0.589c0.294-0.287,0.41-0.71,0.307-1.107
	c-0.142-0.362-0.457-0.629-0.837-0.712c-0.373-0.075-0.759-0.071-1.131,0.014c-0.03,0.005-0.07,0.015-0.112,0.023
	c0.618-0.481,1.218-0.981,1.799-1.507c0.837,0.545,3.447,0.435,4.015,0.367c0.51-0.035,1.006-0.184,1.456-0.429
	c0.365-0.178,0.64-0.508,0.75-0.9c0.214-0.761-0.231-1.553-0.993-1.767c-0.606-0.201-1.26-0.215-1.873-0.04
	c-0.309,0.07-0.604,0.177-0.897,0.289c1.163-1.302,2.226-2.7,3.172-4.188c0.047,0.029,0.082,0.061,0.148,0.088
	c1.33,0.403,2.77,0.147,3.88-0.688c0.413-0.277,0.726-0.682,0.889-1.152C72.103,58.995,71.938,58.466,71.535,58.158"/>
<path fill="#0285CC" d="M68.943,37.771c0,17.896-14.509,32.402-32.403,32.402c-17.896,0-32.403-14.506-32.403-32.402
	c0-17.896,14.507-32.403,32.403-32.403C54.434,5.368,68.943,19.876,68.943,37.771"/>
<path fill="#FFFFFF" d="M49.95,44.645c1.033,1.772,2.04,3.502,3.048,5.231c0.25,0.429,0.498,0.859,0.753,1.287
	c0.172,0.288,0.217,0.576,0.003,0.858c-0.226,0.295-0.519,0.333-0.864,0.239c-1.72-0.469-3.442-0.926-5.163-1.387
	c-0.11-0.029-0.223-0.046-0.37-0.075c-0.332,1.232-0.66,2.441-0.985,3.652c-0.158,0.593-0.32,1.184-0.472,1.778
	c-0.093,0.365-0.253,0.67-0.666,0.717c-0.394,0.044-0.605-0.215-0.783-0.524c-1.093-1.901-2.192-3.798-3.277-5.703
	c-0.135-0.236-0.309-0.332-0.56-0.416c-0.69-0.229-1.364-0.511-2.041-0.779c-0.312-0.124-0.62-0.26-0.926-0.397
	c-0.722-0.324-1.441-0.321-2.166-0.004c-0.803,0.351-1.582,0.804-2.422,1.006c-0.78,0.187-1.156,0.636-1.506,1.269
	c-0.93,1.674-1.905,3.322-2.858,4.983c-0.182,0.318-0.386,0.615-0.802,0.565c-0.429-0.051-0.579-0.372-0.68-0.756
	c-0.45-1.709-0.916-3.414-1.378-5.12c-0.022-0.081-0.055-0.16-0.097-0.281c-0.759,0.201-1.504,0.396-2.249,0.596
	c-1.044,0.279-2.089,0.554-3.13,0.845c-0.376,0.106-0.729,0.151-0.994-0.204c-0.25-0.337-0.119-0.655,0.068-0.977
	c1.152-1.985,2.298-3.974,3.445-5.96c0.08-0.14,0.155-0.279,0.239-0.432c-0.052-0.047-0.089-0.093-0.135-0.119
	c-0.95-0.536-1.376-1.389-1.362-2.438c0.013-0.859,0.104-1.721,0.216-2.576c0.126-0.964-0.093-1.78-0.779-2.492
	c-0.578-0.599-1.145-1.219-1.641-1.885c-0.94-1.265-0.944-2.41-0.007-3.669c0.515-0.689,1.108-1.324,1.7-1.949
	c0.647-0.683,0.846-1.468,0.732-2.381c-0.104-0.826-0.208-1.657-0.224-2.487c-0.029-1.493,0.65-2.446,2.075-2.887
	c0.862-0.267,1.757-0.433,2.644-0.612c0.814-0.166,1.402-0.603,1.812-1.322c0.448-0.787,0.877-1.59,1.396-2.329
	c0.853-1.214,1.933-1.545,3.344-1.105c0.319,0.101,0.631,0.229,0.939,0.361c0.55,0.238,1.093,0.491,1.641,0.732
	c0.722,0.317,1.445,0.317,2.168-0.002c0.455-0.199,0.909-0.4,1.363-0.602c0.214-0.095,0.424-0.198,0.64-0.287
	c1.9-0.782,3.117-0.405,4.223,1.338c0.399,0.629,0.751,1.287,1.117,1.938c0.389,0.693,0.97,1.104,1.75,1.268
	c0.871,0.183,1.752,0.346,2.601,0.604c1.52,0.461,2.179,1.371,2.148,2.958c-0.018,0.889-0.131,1.777-0.224,2.665
	c-0.083,0.789,0.123,1.469,0.664,2.056c0.524,0.571,1.062,1.133,1.547,1.737c1.217,1.516,1.207,2.798-0.016,4.318
	c-0.329,0.409-0.667,0.824-1.06,1.169c-1.075,0.94-1.338,2.097-1.072,3.452c0.108,0.542,0.129,1.103,0.16,1.657
	C51.545,43.005,51.148,44.013,49.95,44.645 M50.069,25.132c0.043-1.387-0.225-1.767-1.396-2.09
	c-0.479-0.134-0.965-0.253-1.455-0.315c-1.799-0.226-3.091-1.12-3.864-2.779c-0.252-0.54-0.578-1.053-0.921-1.541
	c-0.545-0.773-1.003-0.923-1.89-0.603c-0.658,0.238-1.301,0.524-1.929,0.834c-1.396,0.69-2.775,0.694-4.169-0.004
	c-0.56-0.281-1.136-0.538-1.721-0.765c-1.087-0.42-1.583-0.263-2.225,0.719c-0.351,0.536-0.674,1.096-0.964,1.669
	c-0.695,1.371-1.796,2.141-3.304,2.393c-0.762,0.127-1.517,0.312-2.259,0.524c-0.646,0.187-1,0.658-0.973,1.345
	c0.028,0.685,0.057,1.375,0.162,2.051c0.258,1.646-0.098,3.07-1.336,4.242c-0.413,0.391-0.792,0.822-1.15,1.265
	c-0.778,0.962-0.782,1.544-0.001,2.497c0.473,0.575,0.992,1.113,1.495,1.664c0.814,0.894,1.174,1.936,1.042,3.144
	c-0.071,0.653-0.156,1.307-0.199,1.963c-0.109,1.661,0.161,2.009,1.801,2.376c0.613,0.138,1.228,0.263,1.843,0.39
	c1.206,0.248,2.089,0.925,2.698,1.989c0.427,0.748,0.846,1.505,1.333,2.215c0.476,0.696,0.952,0.84,1.751,0.565
	c0.646-0.225,1.283-0.496,1.892-0.808c1.463-0.748,2.906-0.769,4.37-0.015c0.492,0.253,1.002,0.479,1.517,0.686
	c1.197,0.483,1.73,0.313,2.426-0.785c0.304-0.48,0.592-0.976,0.843-1.486c0.734-1.494,1.947-2.269,3.568-2.51
	c0.688-0.104,1.373-0.284,2.043-0.481c0.646-0.19,0.982-0.66,0.972-1.347c-0.006-0.395-0.018-0.79-0.05-1.183
	c-0.043-0.524-0.108-1.047-0.164-1.57c-0.134-1.224,0.239-2.271,1.067-3.178c0.581-0.636,1.159-1.277,1.698-1.947
	c0.48-0.599,0.46-1.243,0.005-1.859c-0.219-0.293-0.451-0.575-0.692-0.849c-0.385-0.44-0.787-0.866-1.174-1.306
	c-0.729-0.824-1.012-1.796-0.909-2.883C49.924,26.558,50.007,25.759,50.069,25.132 M30.633,50.139
	c-0.986-0.592-1.503-1.543-2.021-2.494c-0.168-0.307-0.35-0.607-0.519-0.914c-0.385-0.698-0.975-1.107-1.75-1.264
	c-0.501-0.101-1.005-0.189-1.499-0.317c-0.279-0.073-0.415,0.004-0.554,0.248c-0.901,1.587-1.819,3.165-2.729,4.746
	c-0.052,0.09-0.086,0.191-0.153,0.342c1.532-0.407,2.995-0.799,4.459-1.186c0.641-0.169,0.921-0.003,1.094,0.644
	c0.329,1.227,0.653,2.453,0.981,3.68c0.065,0.24,0.138,0.478,0.233,0.803C29.024,52.946,29.82,51.557,30.633,50.139 M42.42,50.15
	c0.818,1.416,1.619,2.801,2.47,4.27c0.049-0.152,0.066-0.2,0.08-0.249c0.382-1.426,0.761-2.852,1.145-4.275
	c0.159-0.587,0.462-0.76,1.048-0.606c0.438,0.114,0.873,0.238,1.312,0.356c1.039,0.28,2.079,0.559,3.217,0.864
	c-0.125-0.224-0.198-0.359-0.275-0.493c-0.7-1.215-1.399-2.431-2.104-3.646c-0.242-0.415-0.412-1.025-0.771-1.178
	c-0.384-0.162-0.95,0.121-1.439,0.193c-1.062,0.158-1.841,0.687-2.317,1.663c-0.211,0.434-0.464,0.847-0.704,1.265
	C43.669,49.03,43.196,49.695,42.42,50.15"/>
<path fill="#FFFFFF" d="M36.528,44.261c-6.033-0.006-10.947-4.915-10.949-10.938c-0.002-6.039,4.938-10.967,10.981-10.953
	c6.023,0.013,10.94,4.946,10.928,10.964C47.476,39.361,42.555,44.267,36.528,44.261 M36.519,42.844
	c5.277,0.007,9.566-4.265,9.564-9.525c-0.002-5.241-4.276-9.528-9.514-9.544c-5.269-0.016-9.566,4.249-9.585,9.513
	C26.962,38.541,31.249,42.837,36.519,42.844"/>
<path fill="#FFFFFF" d="M35.07,36.203c0.134-0.188,0.212-0.336,0.324-0.448c2.168-2.175,4.34-4.346,6.513-6.517
	c0.102-0.104,0.202-0.217,0.321-0.295c0.31-0.199,0.621-0.177,0.881,0.08c0.26,0.26,0.274,0.575,0.079,0.881
	c-0.085,0.134-0.209,0.244-0.321,0.357c-2.375,2.382-4.75,4.763-7.127,7.144c-0.57,0.572-0.859,0.571-1.43,0
	c-1.376-1.375-2.751-2.75-4.126-4.125c-0.062-0.063-0.127-0.122-0.185-0.188c-0.302-0.331-0.319-0.738-0.045-1.019
	c0.283-0.291,0.686-0.302,1.015,0.019c0.818,0.797,1.62,1.606,2.425,2.414C33.921,35.034,34.442,35.566,35.07,36.203"/>
</svg>
