<?xml version="1.0" encoding="utf-8"?>
<!-- Generator: Adobe Illustrator 16.0.0, SVG Export Plug-In . SVG Version: 6.00 Build 0)  -->
<!DOCTYPE svg PUBLIC "-//W3C//DTD SVG 1.1//EN" "http://www.w3.org/Graphics/SVG/1.1/DTD/svg11.dtd">
<svg version="1.1" id="Layer_1" xmlns="http://www.w3.org/2000/svg" xmlns:xlink="http://www.w3.org/1999/xlink" x="0px" y="0px"
	 width="73.974px" height="76.638px" viewBox="0 0 73.974 76.638" enable-background="new 0 0 73.974 76.638" xml:space="preserve">
<path fill="#9D549D" d="M73.079,25.798h-1.316l-0.09-0.243c-7.309-19.401-28.96-29.208-48.364-21.9
	c-10.112,3.809-18.092,11.79-21.901,21.9l-0.093,0.243H0l0.187-0.505C7.642,5.217,29.963-5.014,50.041,2.442
	C60.618,6.37,68.962,14.714,72.892,25.293L73.079,25.798z"/>
<path fill="#9D549D" d="M71.108,58.164c-0.29-0.17-0.637-0.213-0.961-0.122c-0.317,0.095-0.619,0.237-0.894,0.424
	c-0.634,0.401-1.231,0.857-1.794,1.353c1.162-2.048,2.131-4.232,2.84-6.554c0.267-0.82,0.506-1.701,0.739-2.693l0.188-0.81
	l-0.646,0.535c-0.139,0.106-0.282,0.217-0.426,0.322l-0.085,0.062l-0.024,0.1c-0.126,0.513-0.249,0.964-0.373,1.392
	c-0.021-0.307-0.042-0.614-0.111-0.918c-0.061-0.332-0.234-0.735-0.572-0.734c-0.183,0.014-0.343,0.122-0.424,0.284
	c-0.077,0.161-0.125,0.335-0.14,0.513c-0.246,1.375-0.189,2.779,0.13,4.136c-0.438,1.094-0.954,2.141-1.504,3.165
	c0.152-0.586,0.243-1.188,0.229-1.8c0-0.324-0.058-0.704-0.356-0.81c-0.188-0.053-0.391,0.002-0.528,0.143
	c-0.132,0.14-0.231,0.304-0.296,0.485c-0.584,1.252-0.641,2.672-0.211,3.978c-1.197,1.886-2.578,3.63-4.125,5.202
	c0.325-0.543,0.6-1.115,0.76-1.729c0.071-0.227,0.093-0.466,0.062-0.702c-0.036-0.238-0.201-0.439-0.43-0.519
	c-0.322-0.089-0.647,0.163-0.862,0.424c-0.556,0.633-0.988,1.364-1.272,2.157c-0.119,0.334-0.669,1.981-0.37,2.341
	c-0.903,0.765-1.861,1.459-2.846,2.117c0.09-0.126,0.173-0.245,0.239-0.344c0.505-0.74,0.858-1.573,1.036-2.453
	c0.068-0.341,0.07-0.772-0.231-0.947c-0.197-0.098-0.433-0.078-0.613,0.051c-0.176,0.127-0.322,0.288-0.436,0.474
	c-0.83,1.214-1.443,2.563-1.817,3.986c-0.04,0.155-0.089,0.307-0.11,0.432c-1.676,0.955-3.441,1.757-5.279,2.395
	c0.83-0.645,1.51-1.473,1.929-2.46c0.104-0.199,0.163-0.422,0.176-0.646c0.01-0.232-0.104-0.449-0.298-0.574
	c-0.226-0.102-0.486-0.07-0.683,0.08c-0.189,0.15-0.348,0.335-0.469,0.544c-0.444,0.679-0.876,1.364-1.294,2.063
	c-0.189,0.32-0.706,0.978-0.9,1.485c-1.09,0.316-2.201,0.571-3.331,0.77c1.067-0.729,1.826-1.855,2.073-3.162
	c0.063-0.242,0.063-0.494,0-0.737c-0.069-0.246-0.283-0.424-0.537-0.449c-0.243,0.025-0.465,0.15-0.619,0.343
	c-0.771,0.769-1.436,1.641-1.976,2.586c-0.177,0.313-0.72,1.18-0.742,1.684c-1.432,0.166-2.884,0.26-4.357,0.227h-0.117
	l-0.014,0.013c-0.113-0.004-0.229-0.009-0.338-0.009C21.125,75.235,6.259,63.872,1.787,47.5l-0.058-0.208H0.646l0.097,0.354
	C5.29,64.542,20.604,76.287,38.1,76.298h0.017c0.392,0.021,0.783,0.021,1.171,0.021c2.463-0.01,4.869-0.315,7.196-0.853
	c0.457,0.318,1.499,0.649,1.742,0.731c0.7,0.233,1.428,0.377,2.164,0.426c0.278,0.03,0.559,0.009,0.827-0.068
	c0.272-0.082,0.488-0.287,0.579-0.557c0.064-0.363-0.103-0.729-0.42-0.917c-0.315-0.178-0.666-0.278-1.027-0.297
	c-0.147-0.016-0.595-0.05-1.138-0.069c0.525-0.17,1.04-0.365,1.554-0.563c1.419,0.132,3.865,0.151,4.269,0.07
	c0.323-0.022,0.614-0.193,0.791-0.464c0.103-0.312-0.023-0.654-0.302-0.828c-0.278-0.161-0.597-0.244-0.918-0.239
	c-0.259,0.03-0.516,0.074-0.772,0.114c0.705-0.356,1.393-0.741,2.069-1.146c0.52,0.245,1.53,0.347,1.823,0.371
	c0.738,0.059,1.481-0.026,2.188-0.252c0.389-0.106,0.745-0.311,1.037-0.589c0.294-0.287,0.41-0.71,0.307-1.107
	c-0.142-0.362-0.456-0.629-0.837-0.712c-0.373-0.075-0.759-0.071-1.131,0.014c-0.029,0.005-0.07,0.015-0.112,0.023
	c0.618-0.481,1.218-0.981,1.8-1.507c0.836,0.545,3.446,0.435,4.014,0.367c0.51-0.035,1.006-0.184,1.456-0.429
	c0.365-0.178,0.64-0.508,0.75-0.9c0.214-0.761-0.231-1.553-0.993-1.767c-0.606-0.201-1.259-0.215-1.873-0.04
	c-0.308,0.07-0.604,0.177-0.897,0.289c1.163-1.302,2.226-2.7,3.172-4.188c0.047,0.029,0.082,0.061,0.148,0.088
	c1.33,0.403,2.77,0.147,3.88-0.688c0.413-0.277,0.726-0.682,0.889-1.152C71.677,59.001,71.512,58.472,71.108,58.164"/>
<path fill="#9D549D" d="M68.388,37.777c0,17.896-14.508,32.402-32.402,32.402c-17.896,0-32.403-14.506-32.403-32.402
	c0-17.896,14.507-32.403,32.403-32.403C53.88,5.374,68.388,19.882,68.388,37.777"/>
<path fill="#FFFFFF" d="M56.572,41.544c-0.132,0.634-0.216,1.282-0.404,1.897c-0.21,0.68-0.497,1.34-0.79,1.99
	c-0.211,0.469-0.66,0.618-1.068,0.418c-0.406-0.2-0.561-0.647-0.324-1.098c0.789-1.506,1.048-3.108,1.03-4.794
	c-0.03-3.284-0.005-6.568-0.011-9.853c-0.002-1.128-1.016-1.881-2.049-1.541c-0.623,0.204-1.069,0.772-1.071,1.439
	c-0.011,2.163-0.008,4.326,0.002,6.49c0,0.116,0.085,0.27,0.179,0.341c1.699,1.299,1.857,3.403,0.353,4.916
	c-1.259,1.268-2.524,2.527-3.787,3.788c-0.341,0.34-0.681,0.418-1.016,0.247c-0.495-0.252-0.575-0.847-0.153-1.28
	c0.609-0.626,1.232-1.237,1.849-1.855c0.673-0.673,1.349-1.343,2.018-2.019c0.697-0.706,0.733-1.652,0.095-2.299
	c-0.637-0.644-1.591-0.614-2.299,0.078c-0.419,0.41-0.835,0.823-1.244,1.244c-1.672,1.723-3.784,2.551-6.094,2.896
	c-1.739,0.259-2.887,1.456-2.89,3.211c-0.004,2.972-0.001,5.943-0.001,8.914v0.373h6.728v-0.425c0-1.121,0.003-2.241-0.002-3.362
	c-0.002-0.376,0.142-0.649,0.483-0.819c0.968-0.481,1.929-0.974,2.898-1.449c0.438-0.215,0.871-0.078,1.077,0.309
	c0.215,0.403,0.071,0.85-0.379,1.084c-0.728,0.379-1.458,0.749-2.2,1.098c-0.253,0.119-0.324,0.269-0.321,0.535
	c0.015,1.213,0.008,2.424,0.006,3.636c-0.001,0.717-0.271,0.983-1,0.984c-2.619,0.001-5.238,0.001-7.857-0.001
	c-0.724,0-0.995-0.27-0.995-0.987c-0.001-3.271-0.002-6.542,0-9.813c0.002-2.637,1.684-4.47,4.3-4.847
	c1.979-0.286,3.796-0.999,5.212-2.508c0.347-0.37,0.728-0.709,1.075-1.081c0.635-0.679,1.405-1.063,2.395-1.105v-0.414
	c0-1.968-0.013-3.936,0.007-5.902c0.014-1.448,1.067-2.7,2.466-2.986c1.465-0.301,2.905,0.427,3.507,1.781
	c0.114,0.258,0.186,0.535,0.278,0.804V41.544z"/>
<path fill="#FFFFFF" d="M22.784,36.298c1.067,0.025,1.873,0.502,2.543,1.251c0.156,0.175,0.343,0.323,0.494,0.501
	c1.585,1.837,3.67,2.674,6.005,3.015c2.197,0.32,3.904,2.182,3.928,4.397c0.037,3.44,0.015,6.882,0.012,10.323
	c0,0.538-0.315,0.85-0.854,0.851c-2.712,0.005-5.423,0.005-8.134,0.001c-0.558-0.001-0.859-0.313-0.861-0.883
	c-0.007-1.238-0.016-2.477,0.007-3.715c0.005-0.312-0.104-0.45-0.372-0.583c-1.32-0.648-2.669-1.25-3.932-2
	c-3.278-1.948-5.001-4.88-5.075-8.691c-0.069-3.544-0.021-7.09-0.015-10.636c0.003-1.815,1.378-3.213,3.137-3.209
	c1.757,0.004,3.111,1.401,3.117,3.228c0.007,1.902,0.001,3.806,0.001,5.709V36.298z M34.169,55.057
	c0.017-0.056,0.029-0.08,0.029-0.104c0-3.167,0.023-6.333-0.01-9.499c-0.015-1.377-1.098-2.552-2.447-2.824
	c-0.675-0.136-1.35-0.281-2.013-0.467c-1.861-0.521-3.553-1.336-4.846-2.84c-0.322-0.373-0.684-0.72-1.055-1.045
	c-0.926-0.812-2.306-0.357-2.568,0.84c-0.134,0.601,0.087,1.093,0.513,1.517c1.264,1.26,2.526,2.522,3.787,3.787
	c0.426,0.429,0.466,0.889,0.116,1.231c-0.334,0.325-0.806,0.284-1.206-0.116c-1.283-1.278-2.57-2.554-3.842-3.843
	c-1.44-1.461-1.265-3.612,0.372-4.839c0.11-0.083,0.211-0.264,0.212-0.4c0.014-2.124,0.015-4.248,0.007-6.372
	c-0.004-0.917-0.693-1.604-1.572-1.599c-0.862,0.005-1.549,0.688-1.55,1.579c-0.006,3.623-0.071,7.247,0.021,10.868
	c0.083,3.23,1.625,5.688,4.454,7.267c1.408,0.786,2.873,1.467,4.32,2.183c0.409,0.203,0.604,0.495,0.589,0.957
	c-0.018,0.586-0.003,1.173-0.003,1.759v1.96H34.169z"/>
<path fill="#FFFFFF" d="M36.526,21.802c0.407-0.432,0.758-0.855,1.16-1.222c2.592-2.351,6.787-1.899,8.841,1.021
	c1.896,2.695,1.991,5.569,0.509,8.491c-0.814,1.604-2.018,2.916-3.334,4.105c-2.166,1.956-4.383,3.856-6.582,5.773
	c-0.377,0.328-0.738,0.347-1.095,0.035c-2.593-2.278-5.337-4.389-7.725-6.894c-1.279-1.343-2.401-2.804-2.889-4.625
	c-0.814-3.037-0.215-5.75,2.122-7.932c1.924-1.798,6.025-2.422,8.602,0.766C36.266,21.48,36.395,21.64,36.526,21.802 M36.537,38.384
	c0.084-0.058,0.129-0.084,0.168-0.117c1.922-1.681,3.862-3.341,5.76-5.051c1.201-1.083,2.318-2.26,3.099-3.698
	c1.195-2.202,1.286-4.431-0.032-6.612c-1.421-2.354-4.555-2.967-6.607-1.333c-0.685,0.545-1.178,1.244-1.61,1.995
	c-0.424,0.74-1.087,0.725-1.54-0.007c-0.286-0.463-0.587-0.926-0.935-1.343c-1.975-2.355-5.049-1.737-6.493-0.273
	c-1.489,1.505-1.941,3.341-1.605,5.392c0.262,1.585,1.108,2.875,2.134,4.062c1.412,1.634,3.056,3.022,4.682,4.429
	C34.539,36.678,35.529,37.521,36.537,38.384"/>
</svg>
