<?xml version="1.0" encoding="utf-8"?>
<!-- Generator: Adobe Illustrator 16.0.0, SVG Export Plug-In . SVG Version: 6.00 Build 0)  -->
<!DOCTYPE svg PUBLIC "-//W3C//DTD SVG 1.1//EN" "http://www.w3.org/Graphics/SVG/1.1/DTD/svg11.dtd">
<svg version="1.1" id="Layer_1" xmlns="http://www.w3.org/2000/svg" xmlns:xlink="http://www.w3.org/1999/xlink" x="0px" y="0px"
	 width="214.667px" height="13.432px" viewBox="0 0 214.667 13.432" enable-background="new 0 0 214.667 13.432"
	 xml:space="preserve">
<g>
	<path fill="#E84444" d="M102.861,6.65c-0.403,0-0.809-0.014-1.207-0.027c-0.387-0.014-0.789-0.027-1.176-0.027H12.704
		c-0.077,0-0.14-0.026-0.192-0.078c-0.089-0.092-0.144-0.264-0.144-0.46c0-0.346,0.163-0.608,0.38-0.608l0.053,0.001
		c0.03,0.001,0.061,0.003,0.088,0c0.786-0.082,1.607-0.054,2.401-0.027c0.388,0.014,0.79,0.026,1.176,0.026h87.774
		c0.078,0,0.142,0.026,0.193,0.078c0.09,0.092,0.144,0.264,0.144,0.46c0,0.347-0.163,0.608-0.38,0.608l-0.053-0.001
		c-0.031-0.001-0.06-0.002-0.09,0.001C103.664,6.637,103.263,6.65,102.861,6.65"/>
	<path fill="#E84444" d="M204.719,6.65c-0.395,0-0.788-0.014-1.177-0.027c-0.379-0.014-0.77-0.027-1.146-0.027h-85.599
		c-0.074,0-0.137-0.026-0.187-0.078c-0.088-0.092-0.141-0.264-0.141-0.46c0-0.346,0.158-0.608,0.369-0.608l0.054,0.001
		c0.028,0.001,0.057,0.003,0.086,0c0.765-0.082,1.565-0.054,2.341-0.027c0.378,0.014,0.769,0.026,1.146,0.026h85.598
		c0.075,0,0.136,0.026,0.187,0.078c0.088,0.092,0.141,0.264,0.141,0.46c0,0.347-0.159,0.608-0.37,0.608l-0.052-0.001
		c-0.028-0.001-0.059-0.002-0.086,0.001C205.501,6.637,205.111,6.65,204.719,6.65"/>
	<path fill="#E84444" d="M156.132,4.353c0.894,0.744,1.946,1.284,2.77,2.112c0.104-0.128,0.208-0.257,0.312-0.385
		c-1.35,0.24-2.174,1.478-3.497,1.714c-0.202,0.036-0.498,0.484-0.176,0.427c1.35-0.24,2.174-1.478,3.497-1.713
		c0.107-0.019,0.461-0.236,0.313-0.385c-0.824-0.831-1.875-1.368-2.771-2.113C156.399,3.859,155.973,4.22,156.132,4.353"/>
	<path fill="#E84444" d="M155.491,8.364c-0.146,0-0.214-0.088-0.229-0.172c-0.037-0.206,0.229-0.499,0.428-0.534
		c0.632-0.113,1.141-0.46,1.68-0.829c0.33-0.226,0.668-0.456,1.039-0.63c-0.379-0.321-0.792-0.604-1.194-0.881
		c-0.392-0.27-0.798-0.548-1.171-0.86c-0.097-0.08-0.131-0.236,0.009-0.403c0.136-0.165,0.427-0.308,0.615-0.151
		c0.365,0.303,0.764,0.578,1.15,0.844c0.518,0.355,1.052,0.722,1.52,1.169l0.215-0.038l-0.113,0.138
		c0.002,0.003,0.005,0.005,0.008,0.008c0.069,0.07,0.094,0.164,0.064,0.257c-0.063,0.197-0.343,0.342-0.45,0.361
		c-0.63,0.112-1.139,0.46-1.678,0.828c-0.547,0.374-1.113,0.76-1.819,0.886C155.539,8.361,155.513,8.364,155.491,8.364
		 M156.893,7.469c-0.352,0.21-0.727,0.384-1.152,0.46c-0.049,0.008-0.124,0.081-0.169,0.146
		C156.062,7.977,156.479,7.742,156.893,7.469 M158.635,6.398c-0.27,0.116-0.523,0.267-0.775,0.433
		c0.262-0.154,0.533-0.29,0.829-0.381C158.672,6.433,158.652,6.415,158.635,6.398 M156.241,4.264c0.357,0.296,0.75,0.566,1.13,0.827
		c0.445,0.306,0.903,0.622,1.32,0.988c0.104-0.038,0.21-0.071,0.32-0.098c-0.417-0.366-0.89-0.691-1.349-1.006
		c-0.393-0.271-0.797-0.548-1.171-0.859c-0.008-0.005-0.033-0.008-0.078,0.008C156.327,4.157,156.262,4.227,156.241,4.264"/>
	<path fill="#E84444" d="M155.491,8.364c-0.146,0-0.214-0.088-0.229-0.172c-0.037-0.206,0.229-0.499,0.428-0.534
		c0.632-0.113,1.141-0.46,1.68-0.829c0.33-0.226,0.668-0.456,1.039-0.63c-0.379-0.321-0.792-0.604-1.194-0.881
		c-0.392-0.27-0.798-0.548-1.171-0.86c-0.097-0.08-0.131-0.236,0.009-0.403c0.136-0.165,0.426-0.308,0.615-0.151
		c0.365,0.303,0.764,0.578,1.15,0.844c0.518,0.355,1.052,0.722,1.52,1.169l0.215-0.038l-0.113,0.138
		c0.002,0.003,0.005,0.005,0.008,0.008c0.069,0.07,0.094,0.164,0.064,0.257c-0.063,0.197-0.343,0.342-0.45,0.361
		c-0.63,0.112-1.139,0.46-1.678,0.828c-0.547,0.374-1.113,0.76-1.819,0.886C155.539,8.361,155.513,8.364,155.491,8.364
		 M156.893,7.469c-0.352,0.21-0.727,0.384-1.152,0.46c-0.049,0.008-0.124,0.081-0.169,0.146
		C156.062,7.977,156.479,7.742,156.893,7.469 M158.635,6.398c-0.27,0.116-0.523,0.267-0.775,0.433
		c0.262-0.154,0.533-0.29,0.829-0.381C158.672,6.433,158.652,6.415,158.635,6.398 M156.241,4.264c0.357,0.296,0.75,0.566,1.13,0.827
		c0.445,0.306,0.903,0.622,1.32,0.988c0.104-0.038,0.21-0.071,0.32-0.098c-0.417-0.366-0.89-0.691-1.349-1.006
		c-0.393-0.271-0.797-0.548-1.171-0.859c-0.008-0.005-0.033-0.009-0.078,0.008C156.327,4.157,156.262,4.227,156.241,4.264"/>
	<path fill="#E84444" d="M155.49,8.501c-0.216,0-0.338-0.143-0.362-0.285c-0.053-0.288,0.27-0.647,0.54-0.694
		c0.601-0.107,1.098-0.447,1.624-0.807c0.274-0.188,0.559-0.381,0.864-0.545c-0.328-0.263-0.679-0.504-1.019-0.738
		c-0.396-0.272-0.803-0.552-1.183-0.868c-0.081-0.067-0.129-0.163-0.134-0.269c-0.004-0.077,0.016-0.197,0.124-0.329
		c0.199-0.239,0.567-0.371,0.811-0.169c0.362,0.302,0.759,0.574,1.141,0.837c0.504,0.347,1.023,0.703,1.485,1.135l0.51-0.09
		l-0.278,0.343c0.052,0.093,0.062,0.199,0.029,0.301c-0.086,0.271-0.428,0.434-0.557,0.455c-0.601,0.107-1.098,0.447-1.623,0.806
		c-0.562,0.383-1.14,0.777-1.873,0.908C155.555,8.5,155.521,8.501,155.49,8.501 M155.648,8.199c-0.016,0.004-0.033,0.007-0.05,0.011
		l-0.021,0.003C155.603,8.209,155.627,8.205,155.648,8.199 M156.823,7.352l0.146,0.233c0.113-0.075,0.224-0.15,0.335-0.226
		c0.211-0.144,0.416-0.284,0.626-0.409l-0.146-0.233c-0.113,0.076-0.226,0.151-0.337,0.228
		C157.237,7.086,157.032,7.227,156.823,7.352 M158.663,6.237l0.294,0.275l-0.183,0.055c0.085-0.024,0.173-0.044,0.264-0.06
		c0.069-0.013,0.3-0.134,0.342-0.268c0.013-0.044,0.004-0.084-0.03-0.118l-0.066-0.066l-0.237,0.059
		c-0.103,0.025-0.204,0.057-0.307,0.094L158.663,6.237z M158.658,6.233l-0.124,0.058c0.017-0.007,0.03-0.013,0.046-0.02l0.083-0.035
		L158.658,6.233z M156.41,4.575c0.288,0.222,0.59,0.428,0.883,0.629c0.403,0.278,0.82,0.565,1.205,0.889l0.031,0.027
		c-0.392-0.336-0.82-0.63-1.236-0.916C156.999,5.002,156.698,4.795,156.41,4.575 M158.581,5.804
		c0.048,0.039,0.095,0.079,0.142,0.119c0.002-0.001,0.003-0.001,0.004-0.002C158.68,5.882,158.631,5.843,158.581,5.804
		 M157.706,4.837c0.011,0.008,0.021,0.015,0.032,0.022c0.032,0.023,0.065,0.045,0.098,0.067c-0.031-0.021-0.063-0.042-0.093-0.063
		L157.706,4.837z"/>
	<path fill="#E84444" d="M152.081,4.328c0.894,0.744,1.946,1.284,2.77,2.112c0.104-0.128,0.208-0.257,0.311-0.385
		c-1.349,0.24-2.173,1.478-3.496,1.713c-0.202,0.037-0.498,0.486-0.176,0.428c1.35-0.24,2.174-1.478,3.497-1.713
		c0.107-0.019,0.46-0.235,0.313-0.385c-0.824-0.831-1.875-1.368-2.771-2.113C152.349,3.835,151.922,4.195,152.081,4.328"/>
	<path fill="#E84444" d="M151.439,8.339c-0.096,0-0.152-0.039-0.183-0.075c-0.03-0.037-0.074-0.117-0.027-0.246
		c0.057-0.158,0.24-0.354,0.412-0.385c0.63-0.112,1.138-0.46,1.677-0.828c0.331-0.226,0.668-0.456,1.038-0.631
		c-0.377-0.32-0.791-0.604-1.193-0.88c-0.391-0.271-0.797-0.549-1.171-0.861c-0.096-0.079-0.131-0.235,0.01-0.402
		c0.136-0.165,0.426-0.309,0.614-0.152c0.364,0.304,0.766,0.578,1.151,0.844c0.517,0.355,1.051,0.722,1.519,1.169l0.213-0.037
		l-0.109,0.139c0.002,0.002,0.005,0.005,0.007,0.007c0.07,0.071,0.092,0.164,0.063,0.257c-0.063,0.196-0.343,0.342-0.448,0.361
		c-0.63,0.111-1.141,0.46-1.68,0.829c-0.547,0.373-1.111,0.759-1.817,0.885C151.486,8.337,151.462,8.339,151.439,8.339
		 M152.842,7.445c-0.354,0.21-0.729,0.384-1.152,0.46c-0.048,0.008-0.125,0.081-0.168,0.145
		C152.012,7.952,152.428,7.718,152.842,7.445 M154.584,6.374c-0.27,0.115-0.521,0.266-0.773,0.432
		c0.259-0.154,0.532-0.29,0.828-0.38C154.619,6.408,154.603,6.391,154.584,6.374 M152.189,4.24c0.359,0.296,0.75,0.565,1.13,0.827
		c0.447,0.306,0.905,0.621,1.322,0.988c0.103-0.039,0.21-0.071,0.32-0.099c-0.419-0.366-0.892-0.691-1.352-1.006
		c-0.391-0.269-0.796-0.547-1.17-0.859c-0.006-0.005-0.034-0.008-0.078,0.008C152.275,4.132,152.211,4.201,152.189,4.24"/>
	<path fill="#E84444" d="M151.439,8.339c-0.096,0-0.152-0.039-0.183-0.075c-0.03-0.037-0.074-0.117-0.027-0.246
		c0.057-0.158,0.24-0.354,0.412-0.385c0.63-0.112,1.138-0.46,1.677-0.828c0.331-0.226,0.668-0.456,1.038-0.631
		c-0.377-0.32-0.791-0.604-1.193-0.88c-0.391-0.271-0.797-0.549-1.171-0.861c-0.096-0.079-0.131-0.235,0.01-0.402
		c0.136-0.165,0.427-0.309,0.614-0.152c0.364,0.304,0.766,0.578,1.151,0.844c0.517,0.355,1.051,0.722,1.519,1.169l0.215-0.037
		l-0.111,0.139c0.002,0.002,0.005,0.005,0.007,0.007c0.07,0.071,0.092,0.164,0.063,0.257c-0.063,0.196-0.343,0.342-0.448,0.361
		c-0.63,0.111-1.141,0.46-1.68,0.829c-0.547,0.373-1.111,0.759-1.817,0.885C151.486,8.337,151.462,8.339,151.439,8.339
		 M152.84,7.447c-0.353,0.208-0.728,0.382-1.15,0.458c-0.048,0.008-0.125,0.081-0.168,0.145
		C152.011,7.952,152.427,7.719,152.84,7.447 M154.584,6.374c-0.27,0.115-0.521,0.266-0.772,0.431
		c0.259-0.154,0.532-0.289,0.827-0.379C154.619,6.408,154.603,6.391,154.584,6.374 M152.189,4.24c0.359,0.296,0.75,0.565,1.13,0.827
		c0.447,0.306,0.905,0.621,1.322,0.988c0.103-0.039,0.21-0.071,0.32-0.098c-0.419-0.367-0.892-0.692-1.352-1.007
		c-0.391-0.269-0.796-0.547-1.17-0.859c-0.006-0.005-0.034-0.008-0.078,0.008C152.275,4.132,152.211,4.201,152.189,4.24"/>
	<path fill="#E84444" d="M151.439,8.477c-0.118,0-0.22-0.045-0.288-0.125c-0.04-0.048-0.124-0.18-0.052-0.381
		c0.07-0.197,0.29-0.433,0.517-0.474c0.6-0.107,1.098-0.446,1.624-0.805c0.278-0.19,0.562-0.383,0.866-0.546
		c-0.328-0.262-0.679-0.504-1.021-0.739c-0.394-0.271-0.803-0.551-1.182-0.868c-0.082-0.067-0.128-0.162-0.133-0.269
		c-0.004-0.077,0.014-0.197,0.124-0.329c0.089-0.107,0.22-0.196,0.351-0.239c0.173-0.056,0.336-0.032,0.458,0.07
		c0.358,0.297,0.75,0.568,1.131,0.829c0.513,0.353,1.031,0.708,1.495,1.144l0.509-0.09l-0.275,0.342
		c0.051,0.094,0.06,0.199,0.027,0.302c-0.084,0.268-0.427,0.432-0.556,0.455c-0.601,0.107-1.098,0.446-1.625,0.807
		c-0.559,0.381-1.136,0.776-1.872,0.907C151.501,8.474,151.47,8.477,151.439,8.477 M151.612,8.172
		c-0.021,0.004-0.043,0.009-0.065,0.013l-0.019,0.004C151.557,8.184,151.584,8.178,151.612,8.172 M152.77,7.328l0.146,0.233
		c0.115-0.075,0.229-0.152,0.339-0.229c0.211-0.144,0.416-0.284,0.627-0.409l-0.145-0.233c-0.115,0.074-0.227,0.151-0.337,0.226
		C153.188,7.061,152.981,7.203,152.77,7.328 M154.611,6.212l0.293,0.277l-0.179,0.054c0.085-0.024,0.172-0.045,0.262-0.06
		c0.07-0.013,0.299-0.135,0.34-0.267c0.016-0.045,0.005-0.085-0.029-0.119l-0.064-0.065l-0.24,0.059
		c-0.1,0.024-0.203,0.056-0.304,0.093L154.611,6.212l-0.004-0.003l-0.122,0.058c0.014-0.007,0.029-0.013,0.044-0.02L154.611,6.212z
		 M153.545,5.389c0.307,0.214,0.613,0.437,0.902,0.68l0.015,0.014C154.169,5.833,153.857,5.607,153.545,5.389 M154.521,5.773
		c0.051,0.041,0.1,0.083,0.149,0.125c0.001-0.001,0.003-0.001,0.006-0.002C154.625,5.854,154.573,5.813,154.521,5.773
		 M152.892,4.271c0.26,0.195,0.527,0.38,0.79,0.561c0.105,0.073,0.214,0.146,0.318,0.221c-0.103-0.073-0.208-0.145-0.311-0.216
		C153.421,4.652,153.151,4.466,152.892,4.271 M152.418,4.595c0.164,0.124,0.331,0.244,0.498,0.36
		C152.748,4.838,152.581,4.719,152.418,4.595 M152.142,4.082c-0.014,0.012-0.024,0.024-0.034,0.036v0.001
		C152.116,4.107,152.128,4.095,152.142,4.082 M152.427,3.949c0.029,0,0.061,0.007,0.089,0.025
		C152.489,3.958,152.459,3.949,152.427,3.949"/>
	<path fill="#E84444" d="M66.748,4.22c0.894,0.745,1.947,1.284,2.77,2.112c0.104-0.128,0.208-0.257,0.311-0.385
		c-1.349,0.24-2.172,1.478-3.496,1.714c-0.203,0.036-0.5,0.484-0.176,0.427c1.35-0.24,2.174-1.478,3.498-1.713
		c0.106-0.019,0.459-0.236,0.312-0.385c-0.824-0.831-1.875-1.368-2.771-2.113C67.015,3.727,66.588,4.087,66.748,4.22"/>
	<path fill="#E84444" d="M66.105,8.231c-0.144,0-0.211-0.088-0.228-0.172c-0.036-0.206,0.229-0.499,0.429-0.534
		c0.631-0.113,1.141-0.46,1.68-0.829c0.33-0.226,0.666-0.456,1.037-0.63c-0.377-0.321-0.791-0.604-1.192-0.881
		c-0.394-0.269-0.798-0.548-1.172-0.86c-0.067-0.055-0.097-0.137-0.08-0.224c0.028-0.165,0.205-0.313,0.356-0.369
		c0.135-0.05,0.26-0.036,0.349,0.039c0.364,0.303,0.764,0.578,1.149,0.844c0.519,0.355,1.051,0.722,1.521,1.169l0.214-0.038
		l-0.111,0.139c0.002,0.002,0.004,0.004,0.006,0.007c0.07,0.07,0.094,0.163,0.064,0.257c-0.063,0.196-0.343,0.342-0.45,0.361
		C69.048,6.623,68.539,6.971,68,7.338c-0.547,0.374-1.113,0.76-1.818,0.886C66.154,8.229,66.129,8.231,66.105,8.231 M67.509,7.336
		c-0.352,0.21-0.728,0.384-1.153,0.46c-0.047,0.008-0.123,0.082-0.168,0.146C66.678,7.844,67.094,7.609,67.509,7.336 M69.251,6.266
		c-0.271,0.116-0.522,0.267-0.774,0.432c0.26-0.154,0.532-0.289,0.828-0.38C69.287,6.301,69.27,6.282,69.251,6.266 M66.857,4.131
		c0.356,0.296,0.75,0.566,1.129,0.827c0.447,0.306,0.904,0.622,1.322,0.988c0.104-0.038,0.209-0.071,0.319-0.098
		c-0.418-0.366-0.89-0.691-1.349-1.006c-0.393-0.27-0.797-0.548-1.172-0.859c-0.006-0.006-0.033-0.009-0.078,0.008
		C66.943,4.024,66.877,4.094,66.857,4.131"/>
	<path fill="#E84444" d="M66.105,8.231c-0.144,0-0.211-0.088-0.228-0.172c-0.036-0.206,0.229-0.499,0.429-0.534
		c0.631-0.113,1.141-0.46,1.68-0.829c0.33-0.226,0.666-0.456,1.037-0.63c-0.377-0.321-0.791-0.604-1.192-0.881
		c-0.394-0.269-0.798-0.548-1.172-0.86c-0.097-0.08-0.132-0.236,0.009-0.403c0.137-0.165,0.428-0.308,0.616-0.151
		c0.364,0.303,0.764,0.578,1.149,0.844c0.519,0.355,1.051,0.722,1.521,1.169l0.214-0.038l-0.111,0.138
		c0.002,0.003,0.004,0.005,0.006,0.008c0.069,0.07,0.094,0.164,0.064,0.257c-0.063,0.197-0.343,0.342-0.449,0.361
		C69.047,6.623,68.539,6.971,68,7.338c-0.547,0.374-1.113,0.76-1.818,0.886C66.154,8.229,66.129,8.231,66.105,8.231 M67.509,7.336
		c-0.352,0.21-0.728,0.384-1.153,0.46c-0.047,0.008-0.123,0.081-0.168,0.146C66.678,7.844,67.094,7.609,67.509,7.336 M69.251,6.266
		c-0.271,0.116-0.522,0.267-0.774,0.433c0.26-0.154,0.531-0.29,0.828-0.381C69.287,6.301,69.268,6.282,69.251,6.266 M66.855,4.131
		c0.358,0.296,0.752,0.566,1.131,0.827c0.447,0.306,0.904,0.622,1.322,0.988c0.104-0.038,0.209-0.071,0.319-0.098
		c-0.418-0.366-0.89-0.691-1.349-1.006c-0.393-0.27-0.797-0.548-1.172-0.859c-0.006-0.006-0.033-0.008-0.078,0.008
		C66.943,4.024,66.877,4.094,66.855,4.131"/>
	<path fill="#E84444" d="M66.105,8.369c-0.216,0-0.338-0.143-0.363-0.285c-0.051-0.288,0.271-0.647,0.541-0.694
		c0.602-0.107,1.099-0.447,1.625-0.807c0.274-0.188,0.558-0.381,0.865-0.545c-0.328-0.263-0.68-0.504-1.02-0.738
		c-0.396-0.272-0.805-0.552-1.184-0.868c-0.08-0.067-0.127-0.163-0.133-0.268c-0.004-0.078,0.016-0.198,0.125-0.33
		c0.198-0.238,0.566-0.371,0.809-0.169c0.363,0.302,0.759,0.574,1.141,0.837c0.505,0.347,1.023,0.703,1.486,1.135l0.51-0.09
		L70.23,5.89c0.051,0.093,0.061,0.199,0.028,0.301c-0.086,0.271-0.429,0.434-0.558,0.455c-0.6,0.107-1.098,0.447-1.623,0.806
		c-0.562,0.383-1.139,0.777-1.873,0.908C66.171,8.367,66.137,8.369,66.105,8.369 M66.265,8.066c-0.016,0.004-0.034,0.007-0.05,0.011
		l-0.02,0.003C66.218,8.077,66.242,8.072,66.265,8.066 M67.439,7.219l0.146,0.233c0.112-0.074,0.225-0.15,0.336-0.226
		c0.21-0.144,0.416-0.284,0.626-0.409L68.4,6.583c-0.113,0.076-0.226,0.151-0.338,0.228C67.854,6.954,67.648,7.094,67.439,7.219
		 M69.279,6.104l0.293,0.275l-0.182,0.055c0.085-0.024,0.174-0.044,0.264-0.06c0.069-0.013,0.299-0.134,0.342-0.268
		C70.009,6.063,70,6.023,69.966,5.99L69.9,5.924l-0.24,0.059c-0.101,0.025-0.202,0.057-0.305,0.094L69.279,6.104z M69.273,6.101
		L69.15,6.159c0.016-0.007,0.029-0.013,0.045-0.02l0.082-0.035L69.273,6.101z M67.027,4.442c0.287,0.222,0.588,0.428,0.881,0.629
		c0.404,0.278,0.822,0.565,1.205,0.889l0.031,0.027c-0.391-0.335-0.82-0.63-1.236-0.916C67.615,4.87,67.314,4.663,67.027,4.442
		 M69.197,5.672c0.047,0.039,0.095,0.078,0.142,0.118c0.001,0,0.003-0.001,0.004-0.002C69.295,5.749,69.246,5.71,69.197,5.672
		 M68.322,4.705c0.011,0.008,0.021,0.015,0.031,0.023l0.098,0.066c-0.03-0.021-0.062-0.042-0.092-0.063L68.322,4.705z"/>
	<path fill="#E84444" d="M62.697,4.195c0.893,0.744,1.947,1.284,2.77,2.112c0.104-0.128,0.208-0.257,0.311-0.385
		c-1.349,0.24-2.172,1.478-3.496,1.714c-0.203,0.036-0.5,0.485-0.176,0.427c1.35-0.24,2.174-1.478,3.498-1.713
		c0.106-0.019,0.459-0.235,0.312-0.385c-0.824-0.831-1.875-1.368-2.771-2.113C62.964,3.702,62.537,4.062,62.697,4.195"/>
	<path fill="#E84444" d="M62.057,8.207c-0.146,0-0.215-0.088-0.229-0.172c-0.036-0.206,0.229-0.499,0.429-0.534
		c0.631-0.113,1.141-0.46,1.68-0.829c0.33-0.227,0.666-0.456,1.037-0.63c-0.377-0.32-0.791-0.604-1.191-0.881
		c-0.393-0.269-0.799-0.548-1.173-0.86c-0.097-0.08-0.13-0.236,0.009-0.403c0.137-0.165,0.426-0.309,0.616-0.151
		c0.364,0.303,0.764,0.578,1.149,0.843c0.519,0.355,1.051,0.723,1.521,1.17l0.214-0.038l-0.111,0.138
		c0.002,0.003,0.004,0.005,0.006,0.008c0.07,0.07,0.094,0.164,0.064,0.257c-0.063,0.197-0.343,0.342-0.45,0.36
		c-0.63,0.113-1.138,0.461-1.677,0.829c-0.547,0.374-1.113,0.76-1.818,0.885C62.104,8.204,62.078,8.207,62.057,8.207 M63.459,7.311
		c-0.352,0.21-0.728,0.385-1.154,0.461c-0.047,0.008-0.123,0.081-0.168,0.146C62.627,7.818,63.045,7.583,63.459,7.311 M65.199,6.24
		c-0.27,0.116-0.523,0.269-0.775,0.434c0.26-0.154,0.533-0.29,0.83-0.381C65.236,6.274,65.217,6.258,65.199,6.24 M62.807,4.106
		c0.357,0.296,0.75,0.566,1.129,0.828c0.447,0.306,0.904,0.621,1.322,0.987c0.104-0.038,0.209-0.071,0.319-0.099
		c-0.418-0.366-0.892-0.69-1.351-1.006c-0.392-0.27-0.797-0.548-1.17-0.859c-0.006-0.005-0.032-0.009-0.078,0.008
		C62.893,4,62.827,4.068,62.807,4.106"/>
	<path fill="#E84444" d="M62.056,8.206c-0.097,0-0.153-0.039-0.183-0.075c-0.03-0.037-0.074-0.117-0.027-0.246
		c0.057-0.158,0.24-0.354,0.411-0.385c0.63-0.112,1.139-0.46,1.678-0.828c0.33-0.226,0.667-0.456,1.038-0.631
		c-0.377-0.32-0.791-0.604-1.193-0.88c-0.392-0.271-0.797-0.549-1.172-0.86c-0.095-0.08-0.13-0.236,0.01-0.403
		c0.137-0.165,0.427-0.309,0.615-0.152c0.364,0.304,0.764,0.578,1.151,0.844c0.517,0.355,1.05,0.722,1.519,1.169l0.215-0.037
		L66.005,5.86c0.003,0.002,0.005,0.005,0.008,0.007c0.069,0.071,0.092,0.164,0.063,0.257c-0.063,0.197-0.344,0.342-0.448,0.361
		c-0.632,0.111-1.14,0.46-1.679,0.829c-0.547,0.373-1.112,0.759-1.818,0.885C62.102,8.204,62.078,8.206,62.056,8.206 M63.455,7.314
		c-0.352,0.208-0.727,0.382-1.149,0.458c-0.049,0.008-0.125,0.081-0.169,0.145C62.627,7.819,63.041,7.586,63.455,7.314
		 M65.199,6.241c-0.269,0.115-0.521,0.266-0.771,0.431c0.258-0.154,0.531-0.289,0.827-0.379C65.236,6.275,65.218,6.258,65.199,6.241
		 M62.806,4.107c0.358,0.296,0.75,0.565,1.13,0.827c0.447,0.306,0.905,0.621,1.322,0.988c0.104-0.038,0.21-0.071,0.318-0.098
		c-0.418-0.367-0.891-0.692-1.35-1.007c-0.391-0.269-0.796-0.547-1.171-0.859c-0.005-0.005-0.034-0.008-0.077,0.008
		C62.892,3.999,62.826,4.068,62.806,4.107"/>
	<path fill="#E84444" d="M62.056,8.344c-0.118,0-0.222-0.044-0.288-0.125c-0.04-0.048-0.125-0.18-0.052-0.381
		c0.071-0.196,0.288-0.433,0.516-0.474c0.601-0.107,1.099-0.446,1.624-0.805c0.279-0.19,0.563-0.383,0.867-0.546
		c-0.328-0.262-0.68-0.504-1.02-0.737c-0.396-0.272-0.804-0.552-1.183-0.869c-0.082-0.067-0.129-0.162-0.134-0.269
		c-0.003-0.077,0.015-0.197,0.125-0.329c0.089-0.107,0.219-0.196,0.352-0.239c0.172-0.056,0.336-0.032,0.457,0.07
		c0.357,0.297,0.75,0.568,1.131,0.83c0.512,0.352,1.03,0.707,1.496,1.143l0.508-0.09l-0.276,0.342
		c0.051,0.094,0.062,0.199,0.028,0.302c-0.084,0.268-0.426,0.432-0.556,0.455c-0.602,0.107-1.099,0.447-1.626,0.807
		c-0.558,0.381-1.136,0.776-1.871,0.907C62.117,8.341,62.084,8.344,62.056,8.344 M62.229,8.039
		c-0.021,0.005-0.043,0.009-0.064,0.013l-0.021,0.004C62.173,8.051,62.201,8.045,62.229,8.039 M63.386,7.196l0.146,0.232
		c0.114-0.075,0.228-0.152,0.34-0.229c0.209-0.144,0.416-0.284,0.625-0.409l-0.145-0.233c-0.113,0.074-0.227,0.151-0.336,0.226
		C63.804,6.929,63.598,7.07,63.386,7.196 M65.228,6.079l0.293,0.277L65.342,6.41c0.085-0.024,0.172-0.044,0.262-0.06
		c0.07-0.013,0.299-0.135,0.34-0.267c0.016-0.045,0.004-0.084-0.029-0.119L65.85,5.899l-0.24,0.059
		c-0.101,0.024-0.203,0.056-0.305,0.093L65.228,6.079l-0.004-0.003l-0.123,0.058c0.015-0.007,0.03-0.013,0.045-0.02L65.228,6.079z
		 M64.162,5.257c0.307,0.213,0.612,0.436,0.9,0.679L65.08,5.95C64.787,5.701,64.475,5.474,64.162,5.257 M65.138,5.64
		c0.05,0.041,0.101,0.083,0.149,0.125c0.002-0.001,0.004-0.001,0.006-0.002C65.24,5.722,65.188,5.68,65.138,5.64 M63.498,4.131
		c0.264,0.198,0.533,0.385,0.8,0.567c0.104,0.072,0.21,0.145,0.315,0.218c-0.103-0.072-0.205-0.142-0.308-0.212
		C64.033,4.517,63.762,4.329,63.498,4.131 M63.035,4.463c0.164,0.124,0.33,0.243,0.496,0.359
		C63.365,4.705,63.197,4.586,63.035,4.463 M62.758,3.949c-0.014,0.012-0.025,0.024-0.034,0.036c0,0.001-0.001,0.001-0.001,0.001
		C62.732,3.974,62.744,3.962,62.758,3.949 M63.041,3.816c0.031,0.001,0.063,0.008,0.091,0.026
		C63.105,3.825,63.076,3.816,63.041,3.816"/>
	<path fill="#E84444" d="M10.225,4.294c0.894,0.744,1.947,1.284,2.77,2.112c0.104-0.129,0.208-0.257,0.311-0.385
		c-1.349,0.24-2.172,1.478-3.496,1.713C9.606,7.771,9.311,8.22,9.633,8.162c1.35-0.24,2.174-1.478,3.498-1.714
		c0.106-0.018,0.459-0.235,0.312-0.384c-0.824-0.832-1.875-1.368-2.771-2.113C10.492,3.8,10.065,4.161,10.225,4.294"/>
	<path fill="#E84444" d="M9.583,8.305c-0.144,0-0.212-0.087-0.228-0.172C9.319,7.927,9.583,7.635,9.784,7.599
		c0.63-0.112,1.14-0.46,1.678-0.828c0.33-0.226,0.667-0.457,1.038-0.631c-0.377-0.32-0.79-0.604-1.191-0.88
		c-0.393-0.27-0.799-0.549-1.172-0.86c-0.066-0.056-0.096-0.137-0.082-0.225c0.028-0.165,0.205-0.313,0.358-0.369
		c0.133-0.05,0.257-0.036,0.347,0.039c0.364,0.304,0.764,0.578,1.151,0.844c0.517,0.354,1.051,0.722,1.519,1.169l0.215-0.038
		l-0.111,0.139c0.002,0.002,0.005,0.004,0.007,0.007c0.07,0.07,0.093,0.164,0.063,0.258c-0.063,0.196-0.344,0.341-0.448,0.36
		c-0.63,0.112-1.14,0.46-1.679,0.829c-0.547,0.373-1.112,0.759-1.818,0.885C9.63,8.303,9.605,8.305,9.583,8.305 M10.987,7.41
		c-0.353,0.21-0.729,0.384-1.154,0.46C9.785,7.879,9.708,7.952,9.664,8.016C10.155,7.917,10.572,7.683,10.987,7.41 M12.727,6.34
		c-0.27,0.116-0.523,0.268-0.775,0.434c0.26-0.154,0.534-0.29,0.831-0.381C12.764,6.374,12.746,6.357,12.727,6.34 M10.333,4.206
		c0.358,0.296,0.751,0.565,1.13,0.826c0.447,0.307,0.905,0.622,1.322,0.989c0.104-0.039,0.21-0.072,0.318-0.099
		c-0.418-0.366-0.891-0.69-1.35-1.006c-0.391-0.269-0.796-0.547-1.17-0.859c-0.006-0.006-0.033-0.008-0.078,0.008
		C10.419,4.098,10.354,4.167,10.333,4.206"/>
	<path fill="#E84444" d="M9.584,8.305c-0.146,0-0.213-0.087-0.229-0.172C9.318,7.927,9.584,7.635,9.783,7.599
		c0.631-0.112,1.141-0.46,1.68-0.829c0.33-0.226,0.668-0.456,1.037-0.63c-0.377-0.32-0.791-0.604-1.192-0.881
		c-0.394-0.269-0.798-0.548-1.171-0.86c-0.098-0.079-0.131-0.236,0.008-0.402c0.137-0.165,0.428-0.309,0.616-0.152
		c0.364,0.304,0.764,0.578,1.151,0.844c0.517,0.354,1.051,0.723,1.519,1.169l0.215-0.038l-0.112,0.139
		c0.002,0.002,0.004,0.005,0.006,0.007c0.07,0.071,0.094,0.164,0.064,0.257c-0.063,0.197-0.343,0.342-0.449,0.361
		c-0.63,0.112-1.139,0.46-1.678,0.829c-0.547,0.373-1.113,0.759-1.818,0.885C9.631,8.303,9.605,8.305,9.584,8.305 M10.986,7.411
		C10.634,7.62,10.258,7.794,9.832,7.87C9.785,7.879,9.709,7.952,9.664,8.016C10.154,7.917,10.572,7.683,10.986,7.411 M12.728,6.339
		c-0.271,0.116-0.522,0.268-0.774,0.434c0.26-0.154,0.533-0.29,0.828-0.381C12.764,6.374,12.746,6.357,12.728,6.339 M10.334,4.205
		c0.357,0.296,0.75,0.566,1.129,0.827c0.447,0.307,0.904,0.622,1.322,0.988c0.104-0.038,0.209-0.07,0.319-0.099
		c-0.418-0.366-0.89-0.689-1.349-1.006c-0.393-0.269-0.797-0.547-1.172-0.859c-0.006-0.005-0.032-0.008-0.077,0.008
		C10.42,4.098,10.354,4.167,10.334,4.205"/>
	<path fill="#E84444" d="M9.584,8.443c-0.218,0-0.34-0.143-0.365-0.285C9.168,7.87,9.49,7.511,9.76,7.464
		c0.602-0.107,1.099-0.447,1.625-0.807c0.274-0.188,0.559-0.381,0.865-0.545c-0.328-0.263-0.68-0.504-1.02-0.738
		c-0.396-0.272-0.805-0.552-1.184-0.868C9.967,4.438,9.92,4.343,9.914,4.237C9.91,4.16,9.93,4.04,10.039,3.908
		c0.198-0.239,0.566-0.372,0.81-0.169c0.362,0.302,0.759,0.574,1.141,0.837c0.505,0.347,1.022,0.703,1.485,1.135l0.51-0.09
		l-0.277,0.343c0.051,0.093,0.061,0.199,0.028,0.301c-0.086,0.271-0.428,0.433-0.558,0.455c-0.6,0.107-1.096,0.446-1.623,0.806
		c-0.561,0.382-1.139,0.777-1.873,0.908C9.647,8.44,9.613,8.443,9.584,8.443 M9.741,8.141c-0.016,0.004-0.034,0.007-0.05,0.011
		l-0.02,0.003C9.694,8.151,9.719,8.146,9.741,8.141 M10.916,7.293l0.146,0.233c0.111-0.075,0.225-0.151,0.335-0.226
		c0.21-0.144,0.416-0.284,0.626-0.41l-0.146-0.232c-0.113,0.076-0.226,0.151-0.336,0.228C11.33,7.028,11.125,7.168,10.916,7.293
		 M12.756,6.178l0.293,0.276l-0.182,0.055c0.086-0.024,0.174-0.044,0.264-0.061c0.069-0.012,0.299-0.133,0.342-0.267
		c0.013-0.044,0.004-0.084-0.03-0.118l-0.065-0.066l-0.24,0.059c-0.1,0.024-0.202,0.057-0.305,0.094L12.756,6.178z M12.75,6.175
		l-0.123,0.058c0.016-0.007,0.03-0.014,0.045-0.02l0.082-0.035L12.75,6.175z M10.504,4.517c0.287,0.222,0.588,0.428,0.881,0.629
		c0.404,0.278,0.822,0.565,1.205,0.889l0.031,0.027c-0.391-0.336-0.82-0.631-1.236-0.916C11.092,4.944,10.791,4.737,10.504,4.517
		 M12.674,5.745c0.047,0.039,0.095,0.079,0.142,0.119c0.001-0.001,0.003-0.001,0.004-0.002C12.771,5.823,12.724,5.784,12.674,5.745
		 M11.799,4.779c0.011,0.007,0.021,0.015,0.033,0.022c0.031,0.022,0.063,0.045,0.096,0.067l-0.092-0.063
		C11.823,4.797,11.812,4.788,11.799,4.779"/>
	<path fill="#E84444" d="M6.174,4.269c0.894,0.744,1.947,1.284,2.77,2.112c0.104-0.129,0.208-0.257,0.311-0.385
		c-1.349,0.24-2.172,1.478-3.496,1.713c-0.203,0.037-0.5,0.486-0.176,0.428c1.35-0.24,2.174-1.478,3.498-1.714
		c0.106-0.018,0.459-0.234,0.312-0.384C8.567,5.207,7.517,4.671,6.621,3.926C6.441,3.775,6.015,4.136,6.174,4.269"/>
	<path fill="#E84444" d="M5.532,8.28c-0.144,0-0.212-0.087-0.228-0.172C5.269,7.902,5.532,7.609,5.733,7.574
		c0.63-0.112,1.139-0.46,1.678-0.828c0.33-0.226,0.668-0.457,1.038-0.631C8.072,5.794,7.658,5.511,7.256,5.234
		c-0.392-0.271-0.797-0.548-1.172-0.86c-0.095-0.08-0.13-0.235,0.01-0.403C6.231,3.807,6.521,3.663,6.709,3.82
		C7.073,4.124,7.473,4.398,7.86,4.664C8.377,5.02,8.91,5.386,9.379,5.833l0.215-0.038l-0.111,0.14
		c0.002,0.002,0.005,0.005,0.007,0.007c0.069,0.07,0.093,0.164,0.063,0.257C9.49,6.396,9.209,6.54,9.104,6.56
		c-0.63,0.111-1.14,0.46-1.679,0.829C6.879,7.761,6.313,8.147,5.607,8.273C5.579,8.278,5.555,8.28,5.532,8.28 M6.938,7.384
		c-0.354,0.21-0.73,0.385-1.155,0.461C5.734,7.854,5.657,7.927,5.613,7.991C6.105,7.892,6.522,7.658,6.938,7.384 M8.676,6.314
		c-0.27,0.117-0.522,0.268-0.774,0.434c0.26-0.155,0.534-0.291,0.83-0.382C8.713,6.349,8.695,6.332,8.676,6.314 M6.282,4.18
		c0.358,0.296,0.75,0.566,1.129,0.826c0.447,0.308,0.906,0.623,1.323,0.99c0.104-0.039,0.21-0.071,0.32-0.099
		c-0.42-0.366-0.893-0.691-1.352-1.006C7.313,4.622,6.907,4.344,6.532,4.032C6.527,4.027,6.5,4.024,6.455,4.04
		C6.368,4.073,6.303,4.142,6.282,4.18 M6.262,4.163L6.262,4.163L6.262,4.163z"/>
	<path fill="#E84444" d="M5.532,8.28c-0.096,0-0.153-0.039-0.183-0.076c-0.03-0.036-0.074-0.116-0.027-0.246
		c0.057-0.157,0.24-0.354,0.411-0.384c0.63-0.112,1.139-0.46,1.678-0.828C7.742,6.521,8.078,6.29,8.449,6.115
		c-0.377-0.32-0.791-0.604-1.193-0.881c-0.391-0.27-0.797-0.548-1.172-0.86c-0.095-0.08-0.13-0.235,0.01-0.403
		C6.23,3.807,6.521,3.663,6.709,3.82C7.073,4.123,7.473,4.398,7.86,4.663c0.517,0.356,1.051,0.723,1.519,1.17L9.25,6.09l0.143-0.137
		C9.396,5.955,9.453,5.996,9.49,5.896c0.034-0.092,0.047,0.247,0.018,0.341C9.447,6.435,9.209,6.54,9.104,6.56
		c-0.63,0.111-1.14,0.46-1.679,0.829C6.879,7.761,6.313,8.147,5.607,8.273C5.579,8.278,5.555,8.28,5.532,8.28 M6.932,7.387
		C6.58,7.596,6.205,7.771,5.782,7.845C5.734,7.854,5.657,7.927,5.613,7.991C6.104,7.892,6.52,7.659,6.932,7.387 M8.676,6.315
		C8.407,6.43,8.155,6.581,7.904,6.746c0.259-0.154,0.531-0.289,0.827-0.379C8.713,6.349,8.695,6.331,8.676,6.315 M6.282,4.181
		c0.358,0.296,0.75,0.565,1.13,0.826c0.447,0.307,0.905,0.622,1.322,0.989c0.104-0.039,0.21-0.072,0.32-0.099
		c-0.42-0.366-0.893-0.691-1.352-1.006c-0.391-0.27-0.796-0.547-1.171-0.859C6.527,4.027,6.498,4.024,6.455,4.04
		C6.368,4.073,6.303,4.142,6.282,4.181"/>
	<path fill="#E84444" d="M5.532,8.418c-0.118,0-0.222-0.045-0.288-0.125c-0.04-0.048-0.124-0.18-0.053-0.381
		c0.072-0.197,0.291-0.434,0.517-0.474c0.601-0.107,1.099-0.446,1.624-0.805c0.279-0.19,0.563-0.383,0.867-0.546
		C7.871,5.824,7.52,5.583,7.18,5.348C6.784,5.077,6.376,4.797,5.997,4.48C5.915,4.413,5.868,4.318,5.864,4.212
		C5.86,4.134,5.878,4.015,5.988,3.883C6.077,3.776,6.207,3.688,6.34,3.645c0.172-0.056,0.336-0.032,0.457,0.07
		c0.357,0.297,0.75,0.568,1.131,0.829c0.53,0.365,1.069,0.735,1.547,1.191l0.008,0.007L9.546,5.75
		c0.188,0.064,0.095,0.524,0.095,0.528c-0.08,0.251-0.355,0.389-0.513,0.417C8.525,6.802,8.029,7.142,7.502,7.501
		C6.944,7.883,6.366,8.278,5.631,8.409C5.594,8.415,5.561,8.418,5.532,8.418 M5.705,8.112c-0.021,0.005-0.043,0.01-0.064,0.014
		L5.621,8.13C5.648,8.125,5.676,8.119,5.705,8.112 M6.862,7.27l0.146,0.233c0.114-0.075,0.228-0.152,0.34-0.229
		C7.557,7.13,7.764,6.99,7.975,6.864L7.828,6.631C7.715,6.706,7.602,6.783,7.492,6.858C7.28,7.002,7.074,7.145,6.862,7.27
		 M8.913,6.455L8.818,6.484C8.848,6.476,8.879,6.467,8.91,6.46L8.913,6.455z M9.383,6.153L9.114,6.414
		c0.083-0.026,0.228-0.104,0.262-0.218C9.379,6.187,9.383,6.171,9.383,6.153 M8.704,6.153l0.245,0.231L9.13,6.021L9.086,6.031
		C8.985,6.056,8.883,6.088,8.782,6.125L8.704,6.153L8.7,6.15L8.577,6.207c0.015-0.006,0.03-0.013,0.045-0.019L8.704,6.153z
		 M7.639,5.331c0.307,0.213,0.612,0.436,0.9,0.679l0.018,0.014C8.264,5.774,7.951,5.548,7.639,5.331 M8.614,5.714
		c0.05,0.041,0.101,0.083,0.149,0.125C8.766,5.838,8.768,5.838,8.77,5.837C8.719,5.795,8.666,5.754,8.614,5.714 M6.98,4.21
		c0.262,0.196,0.531,0.381,0.793,0.563c0.106,0.073,0.214,0.146,0.32,0.221C7.99,4.92,7.885,4.848,7.782,4.777
		C7.514,4.592,7.242,4.406,6.98,4.21 M6.512,4.536C6.676,4.66,6.842,4.78,7.01,4.896C6.842,4.779,6.674,4.66,6.512,4.536
		 M6.234,4.023C6.221,4.035,6.21,4.047,6.2,4.06c0,0,0,0.001-0.001,0.001C6.209,4.048,6.221,4.036,6.234,4.023 M6.518,3.89
		c0.031,0,0.063,0.007,0.09,0.026C6.582,3.899,6.553,3.89,6.518,3.89"/>
	<path fill="#E84444" d="M207.673,4.525c0.894,0.744,1.946,1.284,2.77,2.112c0.104-0.128,0.126-0.195,0.229-0.323
		c-1.35,0.24-2.092,1.416-3.415,1.652c-0.201,0.036-0.498,0.484-0.176,0.428c1.35-0.241,2.174-1.479,3.498-1.714
		c0.107-0.019,0.46-0.236,0.313-0.385c-0.825-0.831-1.876-1.368-2.771-2.113C207.94,4.032,207.514,4.393,207.673,4.525"/>
	<path fill="#E84444" d="M207.032,8.537c-0.145,0-0.214-0.088-0.229-0.172c-0.037-0.206,0.229-0.499,0.429-0.535
		c0.631-0.112,1.119-0.445,1.639-0.797c0.344-0.235,0.695-0.474,1.096-0.647c-0.382-0.326-0.801-0.614-1.21-0.895
		c-0.393-0.269-0.798-0.548-1.172-0.86c-0.096-0.08-0.131-0.236,0.009-0.403c0.136-0.165,0.427-0.308,0.616-0.151
		c0.364,0.303,0.763,0.578,1.149,0.844c0.532,0.366,1.083,0.744,1.562,1.209l0.09-0.016l-0.047,0.058
		c0.007,0.009,0.016,0.018,0.025,0.026c0.068,0.07,0.093,0.164,0.063,0.257c-0.063,0.196-0.343,0.342-0.45,0.361
		c-0.63,0.112-1.138,0.46-1.678,0.828c-0.547,0.374-1.113,0.76-1.819,0.886C207.08,8.534,207.054,8.537,207.032,8.537
		 M208.388,7.673c-0.334,0.194-0.693,0.355-1.106,0.429c-0.049,0.008-0.123,0.081-0.168,0.146
		C207.586,8.153,207.989,7.932,208.388,7.673 M210.196,6.59c-0.245,0.094-0.473,0.217-0.693,0.355
		c0.229-0.13,0.469-0.243,0.728-0.322C210.22,6.612,210.208,6.601,210.196,6.59 M207.782,4.437c0.357,0.296,0.751,0.566,1.131,0.828
		c0.455,0.312,0.924,0.634,1.347,1.01c0.107-0.034,0.218-0.064,0.334-0.086c-0.429-0.381-0.916-0.715-1.39-1.041
		c-0.393-0.271-0.797-0.548-1.171-0.859c-0.007-0.005-0.033-0.009-0.078,0.008C207.868,4.33,207.803,4.399,207.782,4.437"/>
	<path fill="#E84444" d="M207.032,8.537c-0.145,0-0.214-0.088-0.229-0.172c-0.037-0.206,0.229-0.499,0.429-0.534
		c0.631-0.113,1.14-0.46,1.679-0.829c0.331-0.226,0.668-0.456,1.039-0.63c-0.379-0.321-0.791-0.604-1.194-0.881
		c-0.392-0.27-0.797-0.548-1.171-0.86c-0.096-0.08-0.131-0.236,0.009-0.403c0.136-0.165,0.427-0.308,0.616-0.151
		c0.364,0.303,0.763,0.578,1.149,0.844c0.519,0.355,0.879,0.607,1.347,1.055l0.221,0.172l0.054,0.042
		c0.003,0.003,0.005,0.005,0.009,0.008c0.068,0.07,0.093,0.164,0.063,0.257c-0.063,0.197-0.343,0.342-0.45,0.361
		c-0.63,0.112-1.138,0.46-1.678,0.828c-0.547,0.374-1.113,0.76-1.819,0.886C207.08,8.535,207.054,8.537,207.032,8.537
		 M208.435,7.642c-0.352,0.21-0.728,0.384-1.153,0.46c-0.049,0.008-0.124,0.082-0.168,0.146
		C207.604,8.149,208.02,7.915,208.435,7.642 M210.176,6.571c-0.27,0.116-0.522,0.267-0.774,0.433
		c0.261-0.154,0.532-0.29,0.829-0.381C210.213,6.605,210.193,6.588,210.176,6.571 M207.782,4.437
		c0.357,0.296,0.751,0.566,1.13,0.827c0.445,0.306,0.904,0.622,1.321,0.988c0.104-0.038,0.21-0.071,0.319-0.098
		c-0.417-0.366-0.89-0.691-1.349-1.006c-0.393-0.27-0.797-0.547-1.171-0.859c-0.007-0.005-0.033-0.008-0.078,0.008
		C207.868,4.33,207.803,4.399,207.782,4.437"/>
	<path fill="#E84444" d="M207.032,8.675c-0.217,0-0.339-0.144-0.363-0.285c-0.052-0.288,0.271-0.647,0.54-0.695
		c0.601-0.106,1.098-0.446,1.625-0.806c0.273-0.188,0.557-0.382,0.865-0.545c-0.328-0.263-0.681-0.504-1.021-0.738
		c-0.395-0.272-0.803-0.552-1.182-0.869c-0.081-0.066-0.129-0.162-0.135-0.268c-0.004-0.077,0.016-0.197,0.125-0.329
		c0.199-0.239,0.567-0.371,0.811-0.169c0.362,0.302,0.757,0.574,1.14,0.837c0.54,0.371,0.896,0.621,1.364,1.069l0.264,0.206
		c0.126,0.125,0.162,0.272,0.117,0.414c-0.085,0.27-0.427,0.433-0.556,0.455c-0.601,0.107-1.097,0.446-1.623,0.807
		c-0.562,0.383-1.138,0.776-1.873,0.908C207.096,8.672,207.062,8.675,207.032,8.675 M207.19,8.373
		c-0.016,0.004-0.033,0.007-0.051,0.01l-0.019,0.004L207.19,8.373z M208.365,7.524l0.146,0.233c0.113-0.075,0.224-0.151,0.335-0.228
		c0.21-0.143,0.416-0.283,0.625-0.409l-0.145-0.233c-0.114,0.075-0.227,0.152-0.337,0.228C208.78,7.259,208.575,7.399,208.365,7.524
		 M210.205,6.41l0.293,0.275l-0.183,0.055c0.086-0.023,0.174-0.045,0.264-0.06c0.069-0.013,0.3-0.134,0.342-0.267
		c0.014-0.044,0.004-0.084-0.03-0.118l-0.079-0.062l-0.225,0.055c-0.102,0.025-0.204,0.056-0.306,0.093L210.205,6.41z M210.2,6.405
		l-0.124,0.059c0.016-0.007,0.029-0.014,0.046-0.02l0.082-0.035L210.2,6.405z M207.952,4.749c0.289,0.221,0.59,0.427,0.882,0.629
		c0.403,0.278,0.821,0.565,1.205,0.889l0.032,0.027c-0.393-0.336-0.821-0.63-1.237-0.916C208.541,5.176,208.24,4.969,207.952,4.749
		 M210.122,5.977c0.048,0.039,0.095,0.079,0.141,0.119c0.002-0.001,0.004-0.001,0.005-0.002
		C210.221,6.055,210.172,6.016,210.122,5.977 M209.242,5.006l0.038,0.026c0.016,0.011,0.03,0.022,0.047,0.032
		c-0.016-0.01-0.03-0.02-0.045-0.03C209.268,5.025,209.256,5.016,209.242,5.006"/>
	<path fill="#E84444" d="M203.622,4.5c0.894,0.744,1.946,1.284,2.77,2.112c0.104-0.128,0.104-0.187,0.208-0.314
		c-1.349,0.24-2.07,1.408-3.394,1.643c-0.202,0.037-0.498,0.486-0.176,0.428c1.35-0.24,2.174-1.478,3.498-1.713
		c0.107-0.019,0.46-0.235,0.312-0.385c-0.824-0.831-1.875-1.368-2.771-2.113C203.89,4.008,203.463,4.368,203.622,4.5"/>
	<path fill="#E84444" d="M202.981,8.512c-0.145,0-0.213-0.087-0.228-0.172c-0.037-0.205,0.228-0.498,0.429-0.534
		c0.63-0.112,1.114-0.443,1.626-0.794c0.346-0.237,0.701-0.478,1.105-0.651c-0.383-0.326-0.801-0.613-1.209-0.894
		c-0.392-0.271-0.798-0.549-1.172-0.861c-0.065-0.055-0.095-0.136-0.081-0.224c0.029-0.164,0.206-0.313,0.359-0.369
		c0.133-0.049,0.256-0.036,0.347,0.04c0.364,0.303,0.765,0.578,1.151,0.843c0.533,0.367,1.085,0.746,1.563,1.213l0.065-0.011
		l-0.034,0.041c0.011,0.012,0.023,0.023,0.035,0.034c0.069,0.071,0.092,0.164,0.063,0.257c-0.063,0.196-0.344,0.342-0.449,0.361
		c-0.63,0.111-1.14,0.46-1.68,0.829c-0.546,0.373-1.11,0.759-1.817,0.885C203.028,8.51,203.005,8.512,202.981,8.512 M204.355,7.636
		c-0.337,0.199-0.702,0.366-1.125,0.442c-0.048,0.008-0.124,0.081-0.168,0.145C203.542,8.127,203.949,7.9,204.355,7.636
		 M206.145,6.564c-0.275,0.104-0.525,0.244-0.771,0.401c0.255-0.149,0.52-0.279,0.808-0.367
		C206.167,6.587,206.155,6.576,206.145,6.564 M206.736,6.346l-0.03,0.038c-0.009,0.011-0.017,0.021-0.022,0.03
		c0.029-0.024,0.05-0.049,0.055-0.067L206.736,6.346z M203.731,4.413c0.358,0.296,0.75,0.565,1.13,0.827
		c0.455,0.313,0.924,0.635,1.349,1.011c0.106-0.033,0.22-0.063,0.336-0.084c-0.431-0.381-0.918-0.717-1.394-1.043
		c-0.391-0.27-0.796-0.548-1.171-0.86c-0.005-0.005-0.033-0.008-0.078,0.008C203.816,4.306,203.752,4.374,203.731,4.413"/>
	<path fill="#E84444" d="M202.98,8.512c-0.096,0-0.152-0.039-0.183-0.075c-0.03-0.037-0.074-0.117-0.027-0.246
		c0.057-0.158,0.241-0.354,0.412-0.385c0.63-0.112,1.138-0.46,1.678-0.828c0.33-0.226,0.667-0.456,1.038-0.631
		c-0.378-0.32-0.791-0.603-1.193-0.88c-0.392-0.271-0.798-0.549-1.172-0.86c-0.096-0.08-0.131-0.236,0.009-0.403
		c0.138-0.165,0.428-0.309,0.615-0.152c0.365,0.304,0.766,0.578,1.151,0.844c0.517,0.355,1.051,0.722,1.519,1.169l0.049,0.055
		l0.055,0.046c0.003,0.002,0.005,0.005,0.007,0.007c0.07,0.071,0.093,0.164,0.064,0.257c-0.063,0.196-0.344,0.342-0.449,0.361
		c-0.63,0.111-1.141,0.46-1.68,0.829c-0.547,0.373-1.111,0.759-1.817,0.885C203.027,8.51,203.003,8.512,202.98,8.512 M204.381,7.62
		c-0.353,0.208-0.727,0.382-1.15,0.458c-0.048,0.008-0.124,0.081-0.168,0.145C203.552,8.125,203.968,7.892,204.381,7.62
		 M206.124,6.547c-0.268,0.115-0.52,0.266-0.771,0.431c0.259-0.154,0.532-0.289,0.827-0.379
		C206.161,6.581,206.144,6.563,206.124,6.547 M203.731,4.413c0.358,0.296,0.75,0.565,1.129,0.827
		c0.447,0.306,0.905,0.621,1.322,0.988c0.103-0.038,0.211-0.071,0.32-0.098c-0.42-0.367-0.892-0.692-1.351-1.007
		c-0.391-0.269-0.796-0.547-1.171-0.859c-0.005-0.005-0.034-0.008-0.078,0.008C203.816,4.305,203.752,4.374,203.731,4.413"/>
	<path fill="#E84444" d="M202.98,8.649c-0.117,0-0.22-0.045-0.288-0.125c-0.04-0.048-0.124-0.18-0.051-0.381
		c0.07-0.197,0.289-0.433,0.516-0.474c0.602-0.107,1.099-0.446,1.624-0.805c0.278-0.19,0.562-0.383,0.867-0.546
		c-0.328-0.263-0.68-0.504-1.021-0.739c-0.394-0.271-0.803-0.551-1.182-0.868c-0.082-0.067-0.128-0.162-0.133-0.269
		c-0.004-0.077,0.014-0.197,0.125-0.329c0.088-0.107,0.219-0.196,0.35-0.239c0.174-0.056,0.336-0.032,0.459,0.07
		c0.357,0.297,0.75,0.568,1.13,0.829c0.531,0.365,1.07,0.735,1.548,1.191l0.097,0.095c0.121,0.122,0.157,0.269,0.112,0.411
		c-0.084,0.268-0.428,0.432-0.557,0.455c-0.601,0.107-1.098,0.446-1.625,0.807c-0.558,0.381-1.136,0.776-1.872,0.907
		C203.043,8.646,203.011,8.649,202.98,8.649 M203.154,8.345c-0.021,0.004-0.043,0.009-0.064,0.013l-0.021,0.004
		C203.098,8.356,203.125,8.351,203.154,8.345 M204.312,7.501l0.145,0.233c0.115-0.075,0.229-0.152,0.34-0.229
		c0.211-0.144,0.415-0.284,0.627-0.409l-0.146-0.233c-0.115,0.074-0.226,0.151-0.337,0.226
		C204.729,7.233,204.522,7.376,204.312,7.501 M206.152,6.385l0.293,0.277l-0.178,0.054c0.085-0.024,0.172-0.045,0.262-0.06
		c0.069-0.013,0.298-0.135,0.34-0.267c0.015-0.045,0.004-0.085-0.029-0.119l-0.07-0.063l-0.234,0.058
		c-0.101,0.024-0.204,0.056-0.305,0.093L206.152,6.385l-0.003-0.003l-0.123,0.058c0.014-0.007,0.029-0.013,0.044-0.02L206.152,6.385
		z M205.089,5.563c0.306,0.214,0.611,0.437,0.899,0.679l0.017,0.014C205.711,6.007,205.4,5.78,205.089,5.563 M206.063,5.946
		c0.05,0.041,0.099,0.083,0.148,0.125c0.003-0.001,0.004-0.001,0.006-0.002C206.166,6.027,206.114,5.985,206.063,5.946
		 M204.431,4.441c0.261,0.196,0.528,0.381,0.793,0.563c0.116,0.08,0.232,0.16,0.35,0.243c-0.115-0.081-0.229-0.16-0.343-0.238
		C204.961,4.825,204.691,4.638,204.431,4.441 M203.959,4.768c0.164,0.124,0.331,0.244,0.499,0.36
		C204.289,5.011,204.122,4.892,203.959,4.768 M203.683,4.255c-0.013,0.012-0.024,0.024-0.033,0.036
		c-0.001,0-0.001,0.001-0.001,0.001C203.657,4.28,203.669,4.268,203.683,4.255 M203.968,4.122c0.029,0,0.062,0.007,0.089,0.026
		C204.03,4.131,204.001,4.122,203.968,4.122"/>
	<path fill="#E84444" d="M112.275,4.546c-1.211-3.636-7.854-6.979-9.303-1.758c-0.548,1.973,1.168,3.926,2.37,5.274
		c1.564,1.753,3.523,3.134,5.039,4.921c0.161,0.188,0.831-0.648,0.592-0.928c-2.19-2.582-5.189-4.371-6.866-7.407
		c-0.39-0.707-0.662-1.562-0.438-2.365c0.44-1.591,2.672-1.396,3.8-1.01c1.804,0.618,3.534,2.299,4.134,4.104
		C111.694,5.647,112.381,4.866,112.275,4.546"/>
	<path fill="#E84444" d="M111.764,3.888c0.495-1.816,2.569-4.022,4.411-2.257c1.589,1.522,0.547,3.913-0.58,5.294
		c-1.732,2.125-4.274,3.475-5.775,5.807c-0.37,0.574,0.302,1.002,0.672,0.427c2.238-3.479,8.071-5.572,7.255-10.515
		c-0.283-1.716-1.6-2.859-3.335-2.61c-1.931,0.275-3.066,2.265-3.526,3.952C110.696,4.681,111.622,4.406,111.764,3.888"/>
</g>
</svg>
