<?xml version="1.0" encoding="utf-8"?>
<!-- Generator: Adobe Illustrator 16.0.0, SVG Export Plug-In . SVG Version: 6.00 Build 0)  -->
<!DOCTYPE svg PUBLIC "-//W3C//DTD SVG 1.1//EN" "http://www.w3.org/Graphics/SVG/1.1/DTD/svg11.dtd">
<svg version="1.1" id="Layer_1" xmlns="http://www.w3.org/2000/svg" xmlns:xlink="http://www.w3.org/1999/xlink" x="0px" y="0px"
	 width="8.583px" height="8.123px" viewBox="0 0 8.583 8.123" enable-background="new 0 0 8.583 8.123" xml:space="preserve">
<path d="M7.056,0.966c-1.24-0.93-3.793-1.459-5.082-0.314C1.358,1.196,0.781,2.083,0.523,3.011C0.495,3.03,0.468,3.062,0.447,3.104
	c-0.898,1.891,1.174,4.291,2.995,4.74c0.02,0.018,0.044,0.034,0.071,0.045C7.311,9.394,10.083,3.233,7.056,0.966 M6.989,6.274
	C6.349,7.249,5.08,7.763,3.943,7.464c-0.032-0.043-0.08-0.08-0.155-0.092c-0.649-0.107-1.257-0.457-1.73-0.918
	C2.42,6.661,2.809,6.823,3.239,6.958c0.676,0.215,2.088,0.084,2.625-0.424c1.188-1.114,1.745-3.764,0.031-4.75
	C4.436,0.946,2.328,1.94,2.424,3.702c0.084,1.57,2.024,2.514,2.983,1.045C5.613,4.431,5.613,4.079,5.49,3.765
	c0-0.008,0.004-0.016,0.004-0.023c0.032-0.166-0.076-0.28-0.199-0.321C4.842,2.812,3.963,2.521,3.625,3.3
	C3.26,4.136,4.185,4.78,4.869,4.554C4.663,4.839,4.258,5.004,3.88,4.923C2.67,4.677,2.769,2.985,3.557,2.382
	C5.012,1.269,6.718,2.747,6.4,4.354C6.221,5.249,5.872,6.151,4.885,6.379C4.218,6.534,3.55,6.517,2.913,6.278
	c-0.7-0.258-1.288-0.672-1.71-1.301C0.734,4.271,1,3.108,1.306,2.401c1.129-2.629,4.888-2.219,6.26-0.043
	C8.258,3.456,7.617,5.308,6.989,6.274"/>
</svg>
