<?xml version="1.0" encoding="utf-8"?>
<!-- Generator: Adobe Illustrator 16.0.0, SVG Export Plug-In . SVG Version: 6.00 Build 0)  -->
<!DOCTYPE svg PUBLIC "-//W3C//DTD SVG 1.1//EN" "http://www.w3.org/Graphics/SVG/1.1/DTD/svg11.dtd">
<svg version="1.1" id="Layer_1" xmlns="http://www.w3.org/2000/svg" xmlns:xlink="http://www.w3.org/1999/xlink" x="0px" y="0px"
	 width="8.113px" height="8.124px" viewBox="0 0 8.113 8.124" enable-background="new 0 0 8.113 8.124" xml:space="preserve">
<path fill="#FFFFFF" d="M1.311,7.171c1.236,0.932,3.781,1.463,5.065,0.315C6.99,6.939,7.565,6.051,7.823,5.123
	c0.026-0.021,0.055-0.052,0.075-0.096c0.895-1.892-1.169-4.299-2.984-4.749C4.892,0.262,4.87,0.245,4.842,0.234
	C1.057-1.272-1.707,4.899,1.311,7.171 M1.378,1.851c0.639-0.976,1.902-1.489,3.036-1.19c0.031,0.043,0.08,0.079,0.154,0.091
	c0.647,0.106,1.253,0.458,1.726,0.92c-0.362-0.208-0.75-0.37-1.178-0.506C4.441,0.951,3.034,1.081,2.5,1.592
	C1.314,2.708,0.76,5.361,2.468,6.35C3.923,7.19,6.022,6.194,5.927,4.429C5.844,2.855,3.91,1.912,2.956,3.381
	C2.749,3.701,2.749,4.05,2.872,4.365c0,0.008-0.005,0.015-0.005,0.023c-0.03,0.168,0.076,0.283,0.198,0.323
	c0.452,0.61,1.328,0.901,1.665,0.121C5.095,3.995,4.172,3.35,3.49,3.577C3.695,3.291,4.1,3.126,4.477,3.207
	c1.205,0.248,1.107,1.94,0.321,2.546c-1.45,1.115-3.15-0.367-2.833-1.977c0.178-0.896,0.525-1.8,1.509-2.028
	c0.665-0.155,1.332-0.139,1.965,0.099C6.137,2.106,6.724,2.521,7.144,3.15c0.469,0.709,0.202,1.873-0.103,2.582
	c-1.125,2.634-4.87,2.223-6.237,0.044C0.113,4.677,0.752,2.819,1.378,1.851"/>
</svg>
