<svg id="Layer_1" data-name="Layer 1" xmlns="http://www.w3.org/2000/svg" viewBox="0 0 59.29 59.29"><defs><style>.cls-1{fill:#15579f;}.cls-2{fill:#fff;fill-rule:evenodd;}</style></defs><title>Untitled-1</title><circle class="cls-1" cx="29.65" cy="29.65" r="29.5"/><path class="cls-2" d="M47.3,16c0,.81-.18,1.78-.27,2.76a3,3,0,0,0,.8,2.48c.61.66,1.23,1.31,1.8,2,1.46,1.82,1.45,3.33,0,5.15a11.71,11.71,0,0,1-1.25,1.38,4,4,0,0,0-1.26,4,10.61,10.61,0,0,1,.19,2.64A3,3,0,0,1,45.83,39c-.32.2-.28.33-.12.6,1.4,2.38,2.78,4.77,4.18,7.16.23.39.41.77.08,1.19s-.74.34-1.18.22c-2-.53-3.94-1-5.9-1.59-.38-.11-.5,0-.6.34-.5,1.94-1,3.87-1.55,5.81,0,.12-.07.23-.09.35a.84.84,0,0,1-.71.67.81.81,0,0,1-.86-.46l-1.26-2.2q-1.38-2.37-2.75-4.76c-.09-.15-.15-.33-.39-.36a11.93,11.93,0,0,1-2.76-1c-.31-.15-.63-.28-1-.42a3.09,3.09,0,0,0-2.61,0,18.24,18.24,0,0,1-2.86,1.2,2.58,2.58,0,0,0-1.75,1.46c-1.11,2-2.3,4-3.45,6a.89.89,0,0,1-.91.55.88.88,0,0,1-.75-.76l0-.15c-.53-2-1.07-3.94-1.58-5.91-.09-.35-.19-.47-.59-.35-2,.54-3.9,1.05-5.85,1.58-.45.12-.9.24-1.24-.2s-.13-.83.1-1.24c1.37-2.36,2.73-4.73,4.11-7.09.17-.3.22-.46-.14-.68A3,3,0,0,1,12,36.19a16.35,16.35,0,0,1,.26-3,3.35,3.35,0,0,0-.93-3A21.27,21.27,0,0,1,9.43,28a3.37,3.37,0,0,1,0-4.48,22.38,22.38,0,0,1,2-2.25,3.25,3.25,0,0,0,.85-2.77A26.34,26.34,0,0,1,12,15.58a3.31,3.31,0,0,1,2.54-3.48c1-.33,2.05-.46,3.08-.69a3.11,3.11,0,0,0,2.1-1.53c.54-.91,1-1.87,1.61-2.73a3.27,3.27,0,0,1,4.13-1.32,9.63,9.63,0,0,1,1,.4l1.94.86a3,3,0,0,0,2.52,0l2.13-1a7.46,7.46,0,0,1,1.47-.49,3.06,3.06,0,0,1,3.05,1,9.16,9.16,0,0,1,1.61,2.52,4,4,0,0,0,3.39,2.44,12.65,12.65,0,0,1,2,.44C46.55,12.63,47.34,13.74,47.3,16Zm-1.67.14c0-1.65-.27-2.11-1.68-2.49a13,13,0,0,0-1.73-.36A5.43,5.43,0,0,1,37.72,10a9.92,9.92,0,0,0-1.16-2,1.63,1.63,0,0,0-2.13-.67,13,13,0,0,0-2.09.91,5.5,5.5,0,0,1-5.4,0A16.18,16.18,0,0,0,25,7.48a1.73,1.73,0,0,0-2.47.79,22.29,22.29,0,0,0-1.23,2.11,5.05,5.05,0,0,1-3.88,2.79,14.76,14.76,0,0,0-2.52.56,1.62,1.62,0,0,0-1.32,1.79,11,11,0,0,0,.19,2.22,5.34,5.34,0,0,1-1.59,5.11,13.34,13.34,0,0,0-1.42,1.58,1.83,1.83,0,0,0,0,2.74c.56.7,1.19,1.35,1.8,2A4.76,4.76,0,0,1,13.89,33a24.37,24.37,0,0,0-.27,3.2,1.58,1.58,0,0,0,1.15,1.6,7.81,7.81,0,0,0,2,.48,5.7,5.7,0,0,1,4.95,3.55,10.73,10.73,0,0,0,.78,1.35c.8,1.21,1.4,1.41,2.76.87.77-.31,1.52-.66,2.27-1a4.94,4.94,0,0,1,4.31,0c.81.37,1.63.76,2.46,1.08a1.71,1.71,0,0,0,2.41-.76c.47-.72.9-1.48,1.3-2.24a4.91,4.91,0,0,1,3.68-2.66,18.12,18.12,0,0,0,2.72-.61,1.6,1.6,0,0,0,1.27-1.74,11.31,11.31,0,0,0-.2-2.32,5.27,5.27,0,0,1,1.53-5,13.56,13.56,0,0,0,1.56-1.74,1.81,1.81,0,0,0,0-2.55c-.22-.3-.48-.58-.73-.87-.45-.5-.91-1-1.35-1.5a4.35,4.35,0,0,1-1.09-3.41C45.46,17.81,45.56,16.86,45.63,16.11ZM11.8,46.05l.3-.06,5-1.32c.7-.19,1.06,0,1.25.7.12.41.22.83.33,1.25l1.11,4.13,2.81-4.9c.1-.16,0-.24-.1-.33a5.81,5.81,0,0,1-1.87-2.24c-.3-.54-.62-1.08-.92-1.62a2.89,2.89,0,0,0-2.11-1.52c-.57-.11-1.15-.21-1.72-.36a.51.51,0,0,0-.69.31C14.09,41.94,13,43.77,12,45.61,11.9,45.74,11.77,45.85,11.8,46.05Zm35.75.06-.33-.59c-.83-1.44-1.65-2.88-2.49-4.31-.28-.49-.49-1.21-.91-1.39s-1.13.15-1.7.23a3.42,3.42,0,0,0-2.74,2c-.25.52-.55,1-.83,1.5a5.5,5.5,0,0,1-1.75,2c-.21.13-.15.24-.06.41.87,1.49,1.73,3,2.6,4.49,0,.07.06.16.21.15s.05-.14.07-.21q.66-2.48,1.33-5c.2-.75.54-.94,1.3-.74l2.25.61Z"/><path class="cls-2" d="M29.62,38.72a12.94,12.94,0,1,1,13-12.91A13,13,0,0,1,29.62,38.72Zm0-1.68A11.27,11.27,0,1,0,18.34,25.77,11.28,11.28,0,0,0,29.63,37Z"/><path class="cls-2" d="M37.64,21.3a.77.77,0,0,1-.28.62q-4.43,4.45-8.87,8.89a.83.83,0,0,1-1.32,0l-5.24-5.24a.83.83,0,0,1-.06-1.24.82.82,0,0,1,1.24.08c1.43,1.43,2.87,2.85,4.28,4.3.34.34.51.39.88,0C30.82,26.11,33.39,23.55,36,21a3.79,3.79,0,0,1,.42-.38.81.81,0,0,1,1.26.7Z"/></svg>