<svg id="Layer_1" data-name="Layer 1" xmlns="http://www.w3.org/2000/svg" viewBox="0 0 59.29 59.29"><defs><style>.cls-1{fill:#009b94;}.cls-2{fill:#9a5699;}.cls-3{fill:#fff;fill-rule:evenodd;}</style></defs><title>Untitled-1</title><path class="cls-1" d="M33,25.87c-1.51-1.13-4.62-1.78-6.19-.38a6.13,6.13,0,0,0-1.77,2.87.4.4,0,0,0-.1.12c-1.09,2.3,1.43,5.23,3.66,5.78l.08.06C33.33,36.15,36.71,28.64,33,25.87Zm-.08,6.48a3.51,3.51,0,0,1-3.71,1.45.29.29,0,0,0-.19-.12,4,4,0,0,1-2.11-1.12,6.45,6.45,0,0,0,1.44.62,4.09,4.09,0,0,0,3.2-.52c1.45-1.36,2.13-4.59,0-5.79-1.78-1-4.35.19-4.24,2.34.11,1.91,2.47,3.06,3.64,1.27a1.27,1.27,0,0,0,.1-1.19v0a.34.34,0,0,0-.24-.4c-.56-.74-1.63-1.09-2-.14s.68,1.8,1.52,1.53a1.24,1.24,0,0,1-1.21.45c-1.48-.3-1.35-2.36-.39-3.1,1.77-1.36,3.85.44,3.46,2.4-.21,1.09-.64,2.2-1.84,2.47a4.25,4.25,0,0,1-4.49-1.7c-.58-.87-.25-2.28.12-3.15,1.38-3.2,6-2.7,7.64-.05C34.49,28.91,33.71,31.17,32.94,32.35Z"/><circle class="cls-2" cx="29.65" cy="29.65" r="29.5"/><path class="cls-3" d="M30.63,50.72a1.06,1.06,0,0,1-.37-.94q0-4.66,0-9.33A5.8,5.8,0,0,1,32,36.13c2.67-2.64,5.35-5.28,8-8a3.42,3.42,0,0,1,4.51-.84V16a1.63,1.63,0,0,0-1.2,1.62c0,1.13,0,2.25,0,3.37v3.79c0,.49-.22.76-.6.77s-.63-.28-.63-.78q0-3.54,0-7.08a3,3,0,0,1,2.25-3,.45.45,0,0,0,.35-.34,3.08,3.08,0,0,1,6,.19.46.46,0,0,0,.07.14V34.59a8.33,8.33,0,0,1-1.36,2.87L44.78,45a.94.94,0,0,0-.14.73c.07.33.14.67.18,1s.12.26.33.26c.52,0,1,0,1.56,0a.66.66,0,0,1,.74.61c.13.71.24,1.43.4,2.14a.83.83,0,0,1-.34,1Zm18.85-26.1V24c0-2.93,0-5.85,0-8.77a1.84,1.84,0,0,0-1.79-1.91,1.87,1.87,0,0,0-1.91,2c0,4.77,0,9.54,0,14.32a3.38,3.38,0,0,1-1.06,2.57l-8.26,8.26a2.18,2.18,0,0,1-.28.25.55.55,0,0,1-.78-.05.57.57,0,0,1,0-.82,2,2,0,0,1,.28-.3l8.14-8.14a3.16,3.16,0,0,0,.39-.43,1.82,1.82,0,0,0-1.07-2.9,1.93,1.93,0,0,0-1.86.63L32.91,37a4.54,4.54,0,0,0-1.41,3.42q0,3.08,0,6.13c0,.37.1.45.46.45H43.39c.19,0,.23-.06.19-.24-.08-.35-.1-.71-.2-1.05a1.37,1.37,0,0,1,.23-1.16c1.77-2.9,3.52-5.81,5.29-8.71a3.9,3.9,0,0,0,.59-2.1C49.47,30.71,49.48,27.67,49.48,24.62ZM39,49.48h6.78c.77,0,.75,0,.63-.77-.06-.38-.2-.47-.58-.47H32.35c-.86,0-.85,0-.86.86,0,.31.1.38.4.38Z"/><path class="cls-3" d="M8.58,14.67c.08-.07.07-.18.09-.27a3.07,3.07,0,0,1,5.89-.21.72.72,0,0,0,.52.53,3,3,0,0,1,2.13,2.87c0,2.4,0,4.8,0,7.2,0,.47-.25.75-.64.74s-.6-.28-.6-.73c0-2.36,0-4.72,0-7.08A1.74,1.74,0,0,0,14.77,16V27.34a4.46,4.46,0,0,1,1.2-.49,3.17,3.17,0,0,1,3,1l4.25,4.24,4.13,4.13A5.6,5.6,0,0,1,29,40.32c0,3.18,0,6.36,0,9.55a1.06,1.06,0,0,1-.38.85H11.79c-.22-.19-.45-.38-.38-.72q.21-1.23.45-2.46A.58.58,0,0,1,12.5,47h.82c.36,0,.8.11,1-.06s.15-.66.25-1a1.26,1.26,0,0,0-.2-1.11q-2.25-3.69-4.48-7.38a8.5,8.5,0,0,1-1.35-2.87Zm4.93,8c0-2.43,0-4.86,0-7.28a1.88,1.88,0,0,0-1.84-2,1.85,1.85,0,0,0-1.86,2V33.85a3.55,3.55,0,0,0,.53,1.91c1.63,2.68,3.22,5.39,4.9,8a3,3,0,0,1,.51,2.79c-.12.3-.05.44.33.43q5.64,0,11.28,0c.38,0,.44-.12.44-.46,0-2,0-4.06,0-6.09A4.62,4.62,0,0,0,26.34,37c-1.8-1.78-3.59-3.59-5.38-5.38-1-1-2-2-3-3a1.85,1.85,0,1,0-2.55,2.68l8.26,8.26a1.91,1.91,0,0,1,.33.37.55.55,0,0,1-.06.75.56.56,0,0,1-.78.09,1.6,1.6,0,0,1-.27-.25l-8.3-8.29a3.36,3.36,0,0,1-1.05-2.54C13.53,27.31,13.51,25,13.51,22.62Zm6.76,26.86h6.78c.75,0,.72,0,.75-.76,0-.41-.12-.48-.5-.48H13.85c-.86,0-.85,0-1,.83-.07.34,0,.41.33.41Z"/><path class="cls-3" d="M29.89,8.58A3.54,3.54,0,0,1,32,10.43c.1.24.21.07.31,0A3.26,3.26,0,0,1,34.9,10a1.17,1.17,0,0,1,.62.37,3.15,3.15,0,0,1,.86,2.37c0,.27,0,.35.33.33a3.34,3.34,0,0,1,2.09.62,2,2,0,0,1,.69,2.13A2.64,2.64,0,0,1,39,17.07c-.15.2-.1.28.11.38a3.19,3.19,0,0,1,1.69,2,1,1,0,0,1,0,.6,3.12,3.12,0,0,1-1.62,2c-.27.14-.33.21-.14.49A3.14,3.14,0,0,1,39.46,25a1.24,1.24,0,0,1-.4.7,3.29,3.29,0,0,1-2.35.83c-.27,0-.34,0-.33.33a3.3,3.3,0,0,1-.62,2.09c-.54.82-1.35.78-2.17.68a2.57,2.57,0,0,1-1.24-.51c-.21-.15-.28-.09-.38.11a3.19,3.19,0,0,1-2.06,1.7,1,1,0,0,1-.53,0,3.17,3.17,0,0,1-2-1.66c-.12-.24-.19-.29-.43-.13a3.1,3.1,0,0,1-2.48.46,1.19,1.19,0,0,1-.69-.4,3.16,3.16,0,0,1-.83-2.34c0-.28-.06-.35-.33-.33a3.4,3.4,0,0,1-2.09-.62c-.82-.55-.78-1.35-.68-2.17a2.52,2.52,0,0,1,.48-1.21c.19-.25.11-.32-.12-.44a3.16,3.16,0,0,1-1.66-2,1,1,0,0,1,0-.6,3.14,3.14,0,0,1,1.66-2c.24-.12.29-.19.12-.44a3.18,3.18,0,0,1-.46-2.48,1.2,1.2,0,0,1,.41-.69A3.25,3.25,0,0,1,22.58,13c.27,0,.34,0,.33-.33a3.3,3.3,0,0,1,.62-2.09c.55-.82,1.35-.78,2.17-.68a2.89,2.89,0,0,1,1.28.53c.1.06.2.18.29,0A3.49,3.49,0,0,1,29.4,8.58Zm-.24,16.13a4.94,4.94,0,1,0-4.94-4.95A5,5,0,0,0,29.65,24.71Zm-4.58,3.71a2,2,0,0,0,2-1.46c.11-.38.2-.77.31-1.14.06-.19,0-.31-.17-.38a5,5,0,0,1-1.3-.77.21.21,0,0,0-.34,0c-.31.32-.65.63-.95,1A2,2,0,0,0,24.4,28C24.56,28.29,24.77,28.48,25.07,28.42ZM38.3,15.25c.09-.37-.15-.6-.51-.77a2.08,2.08,0,0,0-1.43-.16,3,3,0,0,0-1.35,1c-.56.55-.59.58-.13,1.2.25.35.21,1,.71,1a4,4,0,0,0,1.34-.34A2,2,0,0,0,38.3,15.25ZM21,15.2a2,2,0,0,0,1.47,2l.63.17c.73.19.77.21,1.08-.5.17-.39.75-.67.55-1.11s-.63-.67-1-1a1.69,1.69,0,0,0-.29-.22,2,2,0,0,0-2,0C21.13,14.67,20.92,14.88,21,15.2Zm4.1-4.08c-.33-.07-.55.13-.72.45a2,2,0,0,0,.25,2.3c.3.34.64.64.95,1a.21.21,0,0,0,.34,0,5.47,5.47,0,0,1,1.3-.76c.18-.07.24-.16.18-.34-.13-.43-.22-.87-.37-1.3A2,2,0,0,0,25.1,11.12Zm9.13,17.3c.3.08.51-.13.67-.43a2.09,2.09,0,0,0,.2-1.47,2.91,2.91,0,0,0-1-1.39c-.55-.55-.56-.58-1.2-.13-.35.24-1,.25-1,.68a3.33,3.33,0,0,0,.31,1.3A2,2,0,0,0,34.23,28.42ZM21,24.3c-.08.35.15.57.48.74a2,2,0,0,0,2.32-.3c.32-.28.6-.6.91-.89a.22.22,0,0,0,0-.37A5.17,5.17,0,0,1,24,22.21c-.08-.19-.18-.25-.38-.19-.4.12-.82.21-1.22.34A2,2,0,0,0,21,24.3Zm17.31,0A2,2,0,0,0,37,22.39c-.26-.09-.52-.16-.79-.23-.73-.2-.77-.21-1.08.49-.17.39-.74.68-.54,1.12s.62.67,1,1a1.94,1.94,0,0,0,.29.21,2,2,0,0,0,2,.05C38.16,24.87,38.37,24.66,38.3,24.34ZM35.16,12.61a2.15,2.15,0,0,0-.25-1,.75.75,0,0,0-.77-.47,2,2,0,0,0-1.89,1.38c-.14.42-.23.84-.36,1.26a.25.25,0,0,0,.17.35,5.21,5.21,0,0,1,1.31.76c.16.13.25.07.37,0l.86-.87A2.06,2.06,0,0,0,35.16,12.61ZM21.77,18.35a2.08,2.08,0,0,0-2,1.15.57.57,0,0,0,0,.54,2,2,0,0,0,2.33,1.1c.39-.09.77-.21,1.15-.3.19-.05.28-.12.24-.34a4.21,4.21,0,0,1,0-1.46c0-.13,0-.26-.12-.3A9.87,9.87,0,0,0,21.77,18.35Zm15.77,0a10.79,10.79,0,0,0-1.63.39c-.17,0-.17.15-.15.28a4.78,4.78,0,0,1,0,1.51c0,.14,0,.25.14.29a7.91,7.91,0,0,0,1.8.38c.86,0,1.89-.81,1.86-1.44S38.55,18.37,37.54,18.34Zm-6.46,9.45a9.58,9.58,0,0,0-.4-1.78c0-.17-.18-.14-.3-.12a5.17,5.17,0,0,1-1.47,0c-.13,0-.26-.05-.3.12a6.24,6.24,0,0,0-.37,2c.09.73.83,1.6,1.39,1.63s1.22-.75,1.39-1.43A4.32,4.32,0,0,0,31.08,27.79Zm0-16.06A2,2,0,0,0,30,10a.64.64,0,0,0-.69,0,2,2,0,0,0-1,2.25c.08.41.21.82.31,1.23.05.18.13.24.32.2a4.5,4.5,0,0,1,1.51,0c.14,0,.25,0,.28-.16A8.71,8.71,0,0,0,31.07,11.73Z"/><path class="cls-3" d="M33.18,19.24a3.5,3.5,0,0,1-.71,1.87A8.25,8.25,0,0,1,30,23.34a.6.6,0,0,1-.7,0,7.35,7.35,0,0,1-2.92-3,2.78,2.78,0,0,1-.28-1.63,2.26,2.26,0,0,1,3.25-1.69.54.54,0,0,0,.56,0A2.28,2.28,0,0,1,33.18,19.24ZM32,19.1a1,1,0,0,0-.61-.93,1,1,0,0,0-1.14.2c-.45.4-.66.41-1.08,0a1,1,0,0,0-1.25-.18,1,1,0,0,0-.5,1.15,2.32,2.32,0,0,0,.32.84A6.46,6.46,0,0,0,29.46,22a.27.27,0,0,0,.37,0,6.55,6.55,0,0,0,1.75-1.77A2.33,2.33,0,0,0,32,19.1Z"/></svg>