<?xml version="1.0" encoding="utf-8"?>
<!-- Generator: Adobe Illustrator 22.0.1, SVG Export Plug-In . SVG Version: 6.00 Build 0)  -->
<svg version="1.1" id="Layer_1" xmlns="http://www.w3.org/2000/svg" xmlns:xlink="http://www.w3.org/1999/xlink" x="0px" y="0px"
	 viewBox="0 0 103.9 48.8" style="enable-background:new 0 0 103.9 48.8;" xml:space="preserve">
<style type="text/css">
	.st0{fill:#29A6DE;stroke-width:0.5;stroke-miterlimit:10;}
	.st1{fill:#fff;}
	.st2{font-family:'OpenSans-Semibold';}
	.st3{font-size:11px;}
	.st4{fill:#1858A3;}
	.st5{fill:#FFFFFF;}
	.st6{fill:none;stroke:#FFFFFF;stroke-width:0.5;stroke-miterlimit:10;}
	.st7{fill:none;stroke:#9F579D;stroke-width:0.5;stroke-miterlimit:10;}
	.st8{fill:#502A73;}
	.st9{fill:none;stroke:#502A73;stroke-width:0.5;stroke-miterlimit:10;}
</style>
<g>
	<path class="st0" d="M87.5,44.4H16.4c-6.6,0-12-5.4-12-12V16.3c0-6.6,5.4-12,12-12h71.1c6.6,0,12,5.4,12,12v16.1
		C99.5,39,94.1,44.4,87.5,44.4z"/>
	<g>
		<g>
			<path class="st1" d="M25.3,18.3c0-0.1,0-0.1,0.1-0.2c0.2-0.5,0.6-0.9,1.2-0.9c0.1,0,0.1,0,0.2,0c3.1,0,6.2,0,9.3,0
				c0.5,0,0.9,0.2,1.2,0.6c0.2,0.2,0.3,0.5,0.3,0.8c0,0.9,0,1.8,0,2.6c0,0.1,0,0.1,0,0.2c0.3,0,0.7,0.1,1,0.1c1.2,0.3,2,1,2.6,2
				c0.2,0.4,0.4,0.8,0.6,1.2c0.2,0.6,0.1,1.2-0.4,1.6c-0.7,0.5-1.4,1-2.2,1.2c-0.2,0.1-0.4,0-0.5-0.2c-0.1-0.2,0.1-0.4,0.3-0.4
				c0.7-0.2,1.4-0.6,2-1.1c0.2-0.2,0.3-0.4,0.2-0.7c-0.4-1-0.9-1.9-1.9-2.5c-0.5-0.3-1.1-0.5-1.7-0.4c0,0.1,0,0.1,0,0.2c0,1,0,2,0,3
				c0,0.2,0.1,0.2,0.2,0.2c0.4,0,0.7-0.1,1-0.4c0.2-0.3,0.2-0.7,0.1-1c0-0.1-0.1-0.1-0.1-0.2c-0.1-0.2-0.1-0.4,0-0.5
				c0.2-0.1,0.4-0.1,0.5,0.1c0.4,0.5,0.5,1.1,0.3,1.7c-0.3,0.7-1,1.2-1.8,1.1c0,0-0.1,0-0.1,0c0,0.1,0,0.2,0,0.2c0,1.5,0,3,0,4.5
				c0,0.1,0,0.1,0,0.2c0,0.2-0.1,0.3-0.3,0.3c-0.2,0-0.3-0.1-0.4-0.3c0-0.1,0-0.2,0-0.2c0-4.1,0-8.2,0-12.2c0-0.6-0.2-0.8-0.8-0.8
				c-3,0-6.1,0-9.1,0c-0.6,0-0.8,0.2-0.8,0.8c0,4.9,0,9.7,0,14.6c0,0.2,0,0.5,0.2,0.6c0.1,0.1,0.3,0.2,0.5,0.2c3.1,0,6.2,0,9.3,0
				c0.4,0,0.7-0.3,0.7-0.7c0-0.1,0-0.1,0-0.2c0-0.3,0.2-0.4,0.5-0.4c0.7,0.2,1.4,0.4,2.2,0.6c0.2,0.1,0.5,0.1,0.7,0.2
				c0.5,0.1,0.9,0,1-0.6c0.9-3.3,1.7-6.5,2.6-9.8c0.4-1.4,0.8-2.9,1.2-4.3c0.1-0.5,0-0.9-0.6-1c-2.9-0.8-5.9-1.6-8.8-2.4
				c-0.4-0.1-0.6-0.1-0.9,0.2c-0.1,0.2-0.3,0.2-0.5,0c-0.1-0.1-0.2-0.3,0-0.5c0.3-0.4,0.9-0.6,1.4-0.5c1.6,0.4,3.2,0.9,4.8,1.3
				c1.4,0.4,2.8,0.8,4.2,1.1c0.9,0.2,1.3,0.9,1,1.8c-1.3,4.7-2.5,9.5-3.8,14.2c-0.2,0.8-0.9,1.2-1.7,1c-0.8-0.2-1.6-0.4-2.4-0.6
				c0,0-0.1,0-0.1,0c0,0,0,0.1,0,0.1c-0.2,0.7-0.7,1.1-1.4,1.1c-3.1,0-6.1,0-9.2,0c-0.8,0-1.2-0.3-1.5-1.1c0,0,0,0,0,0
				C25.3,28.5,25.3,23.4,25.3,18.3z"/>
			<path class="st1" d="M26.8,25.9c0-1.9,0-3.7,0-5.6c0-0.3,0-0.4,0.4-0.5c0.5-0.2,0.9-0.5,1.1-1c0-0.1,0.1-0.2,0.2-0.3
				c0.1,0,0.3,0,0.3,0.1c0.1,0.1,0.1,0.3,0.1,0.4c-0.2,0.6-0.7,1-1.2,1.3c-0.1,0.1-0.2,0.1-0.2,0.3c0,3.5,0,7,0,10.5
				c0,0.1,0,0.2,0.2,0.3c0.5,0.2,0.8,0.6,1.1,1c0.1,0.1,0.1,0.1,0.2,0.1c1.6,0,3.1,0,4.7,0c0.1,0,0.2,0,0.2-0.1
				c0.3-0.5,0.6-0.8,1.1-1c0.1,0,0.1-0.1,0.1-0.2c0-3.6,0-7.1,0-10.7c0-0.1,0-0.2-0.1-0.2c-0.5-0.2-0.9-0.6-1.2-1
				c-0.1-0.1-0.1-0.1-0.2-0.1c-1,0-2,0-2.9,0c-0.1,0-0.1,0-0.2,0c-0.2,0-0.3-0.2-0.3-0.4c0-0.2,0.1-0.3,0.3-0.3c0.3,0,0.6,0,0.8,0
				c0.8,0,1.7,0,2.5,0c0.2,0,0.4,0.1,0.5,0.3c0.2,0.5,0.6,0.8,1.1,1c0.3,0.1,0.3,0.2,0.3,0.5c0,3.7,0,7.5,0,11.2
				c0,0.3-0.1,0.4-0.3,0.5c-0.5,0.2-0.9,0.5-1.1,1c-0.1,0.2-0.2,0.3-0.5,0.3c-1.7,0-3.5,0-5.2,0c-0.2,0-0.4-0.1-0.5-0.3
				c-0.2-0.5-0.6-0.8-1.1-1c-0.3-0.1-0.3-0.2-0.3-0.5C26.8,29.7,26.8,27.8,26.8,25.9z"/>
			<path class="st1" d="M33.1,28.1c-0.5-0.1-0.7,0.1-0.9,0.5c-0.1,0.1-0.1,0.2-0.2,0.3c-0.3,0.5-1.1,0.5-1.4,0
				c-0.2-0.2-0.3-0.5-0.4-0.7c0-0.1-0.1-0.1-0.2-0.1c-0.3,0-0.6,0-0.9,0c-0.7,0-1.1-0.7-0.7-1.3c0.1-0.2,0.3-0.5,0.4-0.7
				c0.1-0.1,0.1-0.2,0-0.3c-0.1-0.2-0.3-0.5-0.4-0.7c-0.3-0.6,0-1.3,0.7-1.3c0.3,0,0.5,0,0.8,0c0.2,0,0.2-0.1,0.3-0.2
				c0.1-0.2,0.2-0.4,0.4-0.6c0.4-0.6,1.1-0.6,1.5,0c0.1,0.2,0.3,0.4,0.4,0.7c0.1,0.1,0.1,0.1,0.2,0.1c0.3,0,0.5,0,0.8,0
				c0.7,0,1.1,0.7,0.8,1.3c-0.1,0.2-0.2,0.5-0.4,0.7c-0.1,0.1-0.1,0.2,0,0.4c0.1,0.2,0.3,0.5,0.4,0.7c0.3,0.6-0.1,1.3-0.7,1.3
				C33.4,28.1,33.2,28.1,33.1,28.1z M29.2,25.3c0-0.1,0.1-0.1,0.1-0.2c0.1-0.2,0.3-0.3,0.5-0.2c0.2,0.1,0.2,0.3,0.1,0.5
				c0,0.1-0.1,0.1-0.1,0.2c-0.3,0.5-0.6,1-0.9,1.5c-0.1,0.2-0.1,0.3,0.2,0.3c0.2,0,0.4,0,0.5,0c-0.1-0.3,0-0.4,0.1-0.5
				c0.2-0.1,0.4,0,0.5,0.2c0.3,0.5,0.6,1,0.8,1.5c0.1,0.2,0.2,0.2,0.4,0c0.1-0.1,0.2-0.3,0.2-0.4c-0.1-0.1-0.2-0.2-0.3-0.3
				c-0.1-0.2,0.1-0.4,0.4-0.4c0.6,0,1.1,0,1.7,0c0.2,0,0.3-0.1,0.2-0.3c-0.1-0.2-0.2-0.3-0.3-0.5c-0.1,0.1-0.1,0.1-0.1,0.2
				c-0.1,0.1-0.3,0.1-0.4,0c-0.1-0.1-0.2-0.2-0.1-0.4c0-0.1,0.1-0.1,0.1-0.2c0.3-0.5,0.6-1,0.9-1.5c0.1-0.2,0.1-0.3-0.1-0.3
				c-0.2,0-0.4,0-0.6,0c0,0.3-0.1,0.4-0.3,0.4c-0.2,0-0.3-0.1-0.4-0.3c-0.2-0.4-0.5-0.8-0.7-1.3c-0.1-0.2-0.2-0.2-0.4,0
				c-0.1,0.1-0.2,0.3-0.2,0.4c0.1,0,0.1,0,0.1,0c0.2,0.1,0.3,0.2,0.3,0.4c0,0.2-0.1,0.3-0.3,0.3c-0.1,0-0.1,0-0.2,0
				c-0.5,0-1.1,0-1.6,0c-0.2,0-0.3,0.1-0.2,0.3C29,25,29.1,25.1,29.2,25.3z"/>
			<path class="st1" d="M38.8,31.3c0.4,0.1,0.8,0.2,1.2,0.3c0.2,0.1,0.2,0.2,0.2,0.4c0,0.2-0.2,0.3-0.3,0.2
				c-0.4-0.1-0.8-0.2-1.2-0.3c-0.2-0.1-0.2-0.2-0.2-0.4C38.5,31.4,38.6,31.3,38.8,31.3z"/>
			<path class="st1" d="M39.3,19.5c-0.1,0.3-0.2,0.7-0.3,1.1c-0.1,0.2-0.2,0.2-0.4,0.2c-0.2,0-0.3-0.2-0.2-0.3
				c0.1-0.4,0.2-0.8,0.3-1.1c0.1-0.2,0.2-0.2,0.4-0.2C39.3,19.2,39.4,19.3,39.3,19.5z"/>
			<path class="st1" d="M41.9,21c-0.1,0.1-0.1,0.2-0.2,0.3c-0.2,0.2-0.5,0.4-0.7,0.6c-0.2,0.2-0.4,0.2-0.5,0
				c-0.1-0.2-0.1-0.3,0.1-0.5c0.2-0.2,0.5-0.4,0.7-0.6c0.1-0.1,0.3-0.1,0.4-0.1C41.7,20.7,41.8,20.9,41.9,21z"/>
			<path class="st1" d="M39.6,29.4c0,0.2-0.1,0.4-0.3,0.4c-0.2,0-0.3,0-0.4-0.2c-0.1-0.3-0.2-0.7-0.3-1.1c0-0.2,0-0.3,0.2-0.4
				c0.2-0.1,0.3,0,0.4,0.1C39.3,28.7,39.4,29.1,39.6,29.4z"/>
		</g>
		<path class="st6" d="M28.3,15.5c0-0.2,0.1-0.3,0.1-0.5c0.1-0.5,0.3-1.1,0.4-1.6c0,0,0-0.1,0-0.1c-0.5-0.4-1.1-0.9-1.6-1.3
			c0,0,0,0,0,0c0,0,0.1,0,0.1,0c0.4,0,0.9-0.1,1.3-0.1c0.2,0,0.5,0,0.7,0c0,0,0.1,0,0.1-0.1c0.2-0.6,0.5-1.2,0.7-1.9
			c0,0,0-0.1,0.1-0.1c0,0,0,0,0,0.1c0.3,0.6,0.5,1.3,0.8,1.9c0,0,0,0.1,0.1,0.1c0.5,0,0.9,0.1,1.4,0.1c0.2,0,0.4,0,0.6,0
			c0,0,0.1,0,0.1,0c0,0,0,0,0,0c0,0,0,0,0,0c-0.5,0.4-1,0.9-1.6,1.3c0,0-0.1,0.1,0,0.1c0.2,0.7,0.3,1.3,0.5,2c0,0,0,0,0,0.1
			c0,0,0,0-0.1,0c-0.6-0.4-1.2-0.7-1.8-1.1c0,0-0.1,0-0.1,0C29.6,14.8,29,15.1,28.3,15.5C28.4,15.5,28.3,15.5,28.3,15.5z"/>
	</g>
	<text transform="matrix(1 0 0 1 48.1428 29.7957)" class="st1 st2 st3">Silver</text>
</g>
</svg>
