<?xml version="1.0" encoding="utf-8"?>
<!-- Generator: Adobe Illustrator 16.0.0, SVG Export Plug-In . SVG Version: 6.00 Build 0)  -->
<!DOCTYPE svg PUBLIC "-//W3C//DTD SVG 1.1//EN" "http://www.w3.org/Graphics/SVG/1.1/DTD/svg11.dtd">
<svg version="1.1" id="Layer_1" xmlns="http://www.w3.org/2000/svg" xmlns:xlink="http://www.w3.org/1999/xlink" x="0px" y="0px"
	 width="4.896px" height="8.859px" viewBox="0 0 4.896 8.859" enable-background="new 0 0 4.896 8.859" xml:space="preserve">
<g>
	<path fill="#5F9944" d="M0.123,4.438c0-0.208,0.137-0.326,0.273-0.351C0.673,4.039,1.019,4.35,1.065,4.608
		c0.104,0.579,0.431,1.058,0.775,1.564C2.022,6.438,2.209,6.71,2.367,7.006C2.62,6.689,2.852,6.352,3.078,6.023
		c0.26-0.38,0.531-0.772,0.835-1.138c0.064-0.078,0.156-0.124,0.258-0.129c0.075-0.004,0.191,0.015,0.317,0.12
		c0.229,0.191,0.356,0.545,0.163,0.779C4.36,6.005,4.098,6.387,3.845,6.755C3.511,7.24,3.169,7.739,2.753,8.185l0.086,0.491
		l-0.33-0.268c-0.089,0.049-0.19,0.058-0.29,0.027C1.96,8.353,1.802,8.023,1.781,7.899C1.678,7.322,1.351,6.843,1.005,6.337
		C0.637,5.797,0.257,5.24,0.131,4.533C0.125,4.499,0.123,4.468,0.123,4.438 M0.414,4.591C0.41,4.575,0.407,4.559,0.403,4.542
		L0.399,4.523C0.404,4.546,0.409,4.569,0.414,4.591 M1.229,5.722l-0.224,0.14C1.077,5.971,1.15,6.078,1.223,6.185
		c0.139,0.202,0.274,0.4,0.395,0.603l0.224-0.141C1.769,6.537,1.696,6.429,1.623,6.322C1.485,6.121,1.35,5.925,1.229,5.722
		 M2.302,7.492L2.038,7.775L1.984,7.601c0.022,0.082,0.043,0.166,0.059,0.253c0.011,0.067,0.128,0.288,0.256,0.329
		C2.341,8.195,2.38,8.186,2.413,8.153l0.063-0.063L2.42,7.86C2.396,7.764,2.366,7.664,2.33,7.566L2.302,7.492z M2.306,7.488
		L2.25,7.369c0.006,0.015,0.013,0.028,0.019,0.043l0.034,0.08L2.306,7.488z M3.902,5.324C3.688,5.602,3.491,5.892,3.296,6.173
		c-0.267,0.39-0.543,0.791-0.854,1.16L2.415,7.364c0.323-0.378,0.606-0.791,0.881-1.191C3.491,5.891,3.69,5.602,3.902,5.324
		 M2.719,7.413C2.682,7.459,2.644,7.505,2.604,7.551c0.002,0,0.002,0.002,0.002,0.004C2.645,7.509,2.682,7.461,2.719,7.413
		 M3.65,6.571c-0.009,0.01-0.016,0.021-0.021,0.031C3.606,6.634,3.586,6.664,3.563,6.695c0.021-0.029,0.04-0.059,0.062-0.088
		C3.633,6.595,3.641,6.583,3.65,6.571"/>
	<path fill="#5F9944" d="M0.146,0.538c0-0.114,0.043-0.212,0.12-0.277c0.046-0.039,0.173-0.12,0.367-0.05
		C0.822,0.279,1.051,0.489,1.09,0.709c0.103,0.577,0.43,1.057,0.774,1.563c0.184,0.267,0.37,0.539,0.526,0.833
		C2.644,2.79,2.875,2.452,3.102,2.124c0.261-0.381,0.531-0.773,0.836-1.139c0.063-0.078,0.156-0.124,0.258-0.128
		c0.075-0.004,0.19,0.015,0.317,0.12C4.614,1.063,4.7,1.188,4.742,1.315c0.055,0.166,0.031,0.323-0.066,0.441
		C4.39,2.1,4.129,2.479,3.876,2.845c-0.339,0.493-0.682,0.993-1.1,1.439l0.087,0.49l-0.33-0.266c-0.091,0.048-0.19,0.058-0.29,0.026
		C1.984,4.454,1.826,4.124,1.806,4.001c-0.104-0.58-0.432-1.059-0.778-1.565C0.66,1.897,0.28,1.341,0.154,0.635
		C0.149,0.598,0.146,0.566,0.146,0.538 M0.44,0.704C0.437,0.684,0.432,0.663,0.428,0.643l-0.004-0.02
		C0.429,0.65,0.435,0.678,0.44,0.704 M1.251,1.818L1.026,1.959c0.074,0.11,0.148,0.219,0.221,0.327
		c0.139,0.202,0.274,0.4,0.396,0.603l0.223-0.14c-0.071-0.11-0.145-0.218-0.217-0.323C1.51,2.221,1.372,2.022,1.251,1.818
		 M2.326,3.591L2.061,3.873L2.009,3.701C2.03,3.783,2.052,3.867,2.066,3.953c0.012,0.068,0.129,0.289,0.256,0.329
		c0.043,0.014,0.082,0.004,0.115-0.029L2.5,4.19L2.443,3.96C2.419,3.863,2.39,3.764,2.354,3.666L2.325,3.593l0.004-0.005L2.274,3.47
		C2.28,3.484,2.286,3.498,2.292,3.513L2.326,3.591z M3.118,2.565C2.913,2.86,2.698,3.156,2.465,3.434L2.45,3.449
		C2.692,3.167,2.909,2.866,3.118,2.565 M2.749,3.505c-0.039,0.049-0.08,0.097-0.12,0.145C2.63,3.65,2.631,3.652,2.631,3.654
		C2.671,3.605,2.71,3.556,2.749,3.505 M4.195,1.936c-0.188,0.25-0.366,0.509-0.54,0.761c-0.068,0.103-0.14,0.205-0.212,0.308
		c0.071-0.1,0.139-0.2,0.208-0.3C3.828,2.446,4.008,2.186,4.195,1.936 M3.884,1.48C3.765,1.639,3.649,1.801,3.536,1.96
		C3.65,1.799,3.765,1.638,3.884,1.48 M4.378,1.214C4.365,1.202,4.354,1.19,4.343,1.181H4.342C4.354,1.19,4.365,1.201,4.378,1.214
		 M4.506,1.488C4.505,1.517,4.497,1.547,4.481,1.573C4.496,1.549,4.505,1.521,4.506,1.488"/>
</g>
</svg>
