<?xml version="1.0" encoding="utf-8"?>
<!-- Generator: Adobe Illustrator 16.0.0, SVG Export Plug-In . SVG Version: 6.00 Build 0)  -->
<!DOCTYPE svg PUBLIC "-//W3C//DTD SVG 1.1//EN" "http://www.w3.org/Graphics/SVG/1.1/DTD/svg11.dtd">
<svg version="1.1" id="Layer_1" xmlns="http://www.w3.org/2000/svg" xmlns:xlink="http://www.w3.org/1999/xlink" x="0px" y="0px"
	 width="8.492px" height="4.944px" viewBox="0 0 8.492 4.944" enable-background="new 0 0 8.492 4.944" xml:space="preserve">
<path fill="#5F9944" d="M4.255,5.097c-0.208,0-0.325-0.138-0.35-0.274C3.856,4.545,4.166,4.2,4.426,4.153
	c0.578-0.103,1.058-0.43,1.564-0.776C6.254,3.196,6.527,3.01,6.823,2.853C6.506,2.6,6.168,2.367,5.84,2.142
	C5.46,1.88,5.068,1.61,4.702,1.306C4.624,1.241,4.578,1.149,4.574,1.048c-0.003-0.075,0.014-0.19,0.12-0.316
	c0.191-0.23,0.545-0.358,0.779-0.163c0.349,0.29,0.729,0.552,1.099,0.806c0.485,0.334,0.984,0.677,1.429,1.093L8.492,2.38
	L8.226,2.71C8.274,2.8,8.283,2.901,8.252,3C8.169,3.26,7.84,3.416,7.716,3.438C7.14,3.541,6.659,3.868,6.154,4.214
	c-0.54,0.368-1.097,0.748-1.804,0.874C4.316,5.094,4.284,5.097,4.255,5.097 M4.408,4.806C4.393,4.81,4.375,4.813,4.359,4.816
	L4.34,4.819C4.363,4.815,4.387,4.811,4.408,4.806 M5.538,3.989l0.141,0.225c0.108-0.071,0.217-0.146,0.322-0.218
	c0.202-0.139,0.401-0.273,0.604-0.395L6.463,3.378C6.354,3.45,6.245,3.523,6.14,3.597C5.938,3.734,5.741,3.869,5.538,3.989
	 M7.31,2.917l0.282,0.265L7.417,3.235C7.499,3.212,7.583,3.192,7.67,3.177C7.738,3.165,7.958,3.048,7.999,2.92
	c0.014-0.043,0.003-0.081-0.028-0.114L7.908,2.743L7.678,2.8C7.58,2.823,7.481,2.854,7.383,2.89L7.31,2.917z M7.306,2.913
	L7.187,2.969C7.2,2.963,7.214,2.956,7.229,2.95l0.08-0.034L7.306,2.913z M5.142,1.317C5.418,1.53,5.708,1.729,5.99,1.923
	c0.389,0.267,0.791,0.543,1.16,0.855l0.031,0.026C6.804,2.481,6.391,2.197,5.99,1.923C5.707,1.729,5.418,1.529,5.142,1.317
	 M7.23,2.5c0.046,0.037,0.092,0.075,0.137,0.114c0-0.001,0.002-0.001,0.003-0.002C7.325,2.574,7.278,2.537,7.23,2.5 M6.389,1.569
	c0.01,0.007,0.021,0.015,0.03,0.021C6.45,1.612,6.481,1.634,6.513,1.654c-0.029-0.02-0.06-0.04-0.089-0.06
	C6.411,1.586,6.4,1.577,6.389,1.569"/>
<path fill="#5F9944" d="M0.355,5.072c-0.114,0-0.212-0.042-0.278-0.119c-0.039-0.047-0.12-0.174-0.049-0.367
	C0.097,4.396,0.307,4.169,0.526,4.13C1.104,4.027,1.582,3.7,2.088,3.354c0.269-0.183,0.54-0.369,0.834-0.525
	C2.607,2.576,2.27,2.344,1.941,2.118C1.561,1.856,1.167,1.587,0.803,1.282C0.725,1.217,0.679,1.125,0.674,1.024
	C0.67,0.949,0.688,0.833,0.794,0.707c0.085-0.103,0.211-0.189,0.338-0.23c0.166-0.054,0.323-0.03,0.442,0.067
	C1.916,0.83,2.295,1.091,2.661,1.343c0.494,0.339,0.994,0.683,1.44,1.101l0.489-0.088l-0.266,0.33
	c0.048,0.091,0.058,0.191,0.027,0.29C4.271,3.234,3.941,3.392,3.817,3.414C3.238,3.517,2.76,3.844,2.252,4.191
	C1.714,4.558,1.158,4.938,0.451,5.063C0.415,5.07,0.383,5.072,0.355,5.072 M0.521,4.778C0.5,4.783,0.48,4.788,0.459,4.792
	L0.44,4.796C0.467,4.791,0.494,4.785,0.521,4.778 M1.636,3.967l0.141,0.226c0.11-0.073,0.218-0.147,0.327-0.221
	c0.202-0.139,0.399-0.273,0.602-0.395L2.566,3.353C2.455,3.425,2.349,3.498,2.242,3.571C2.037,3.71,1.839,3.846,1.636,3.967
	 M3.408,2.893L3.69,3.158L3.519,3.211c0.082-0.023,0.166-0.043,0.252-0.058C3.837,3.141,4.06,3.024,4.1,2.896
	c0.014-0.044,0.004-0.081-0.028-0.114L4.007,2.719L3.777,2.776C3.681,2.799,3.58,2.829,3.483,2.865L3.408,2.893L3.405,2.89
	L3.286,2.945c0.015-0.007,0.029-0.013,0.043-0.02L3.408,2.893z M2.382,2.101C2.678,2.306,2.974,2.52,3.25,2.755l0.017,0.013
	C2.984,2.527,2.684,2.31,2.382,2.101 M3.322,2.47C3.37,2.509,3.418,2.549,3.466,2.59C3.467,2.589,3.47,2.589,3.472,2.588
	C3.422,2.548,3.372,2.509,3.322,2.47 M1.752,1.024c0.25,0.188,0.51,0.364,0.762,0.538c0.103,0.07,0.205,0.142,0.308,0.214
	c-0.1-0.071-0.201-0.14-0.3-0.208C2.264,1.391,2.002,1.212,1.752,1.024 M1.297,1.336c0.158,0.119,0.32,0.234,0.481,0.347
	C1.616,1.569,1.454,1.455,1.297,1.336 M1.031,0.842C1.02,0.854,1.007,0.864,0.997,0.877C1.007,0.865,1.019,0.854,1.031,0.842
	 M1.306,0.714c0.027,0,0.059,0.007,0.085,0.024C1.366,0.723,1.337,0.714,1.306,0.714"/>
</svg>
