<?xml version="1.0" encoding="utf-8"?>
<!-- Generator: Adobe Illustrator 16.0.0, SVG Export Plug-In . SVG Version: 6.00 Build 0)  -->
<!DOCTYPE svg PUBLIC "-//W3C//DTD SVG 1.1//EN" "http://www.w3.org/Graphics/SVG/1.1/DTD/svg11.dtd">
<svg version="1.1" id="Layer_1" xmlns="http://www.w3.org/2000/svg" xmlns:xlink="http://www.w3.org/1999/xlink" x="0px" y="0px"
	 width="4.896px" height="8.859px" viewBox="0 0 4.896 8.859" enable-background="new 0 0 4.896 8.859" xml:space="preserve">
<path fill="#5F9944" d="M0.248,4.256c0-0.208,0.137-0.326,0.273-0.351C0.798,3.856,1.144,4.167,1.19,4.426
	C1.294,5.005,1.621,5.483,1.966,5.99c0.182,0.265,0.368,0.537,0.526,0.833c0.253-0.316,0.484-0.654,0.711-0.982
	c0.26-0.38,0.531-0.772,0.835-1.138c0.064-0.078,0.156-0.124,0.258-0.129c0.075-0.004,0.191,0.015,0.317,0.12
	C4.843,4.886,4.97,5.239,4.776,5.474C4.485,5.822,4.223,6.204,3.97,6.572c-0.334,0.485-0.676,0.984-1.092,1.43l0.086,0.491
	l-0.33-0.268c-0.089,0.049-0.19,0.058-0.29,0.027C2.085,8.17,1.927,7.841,1.906,7.717C1.803,7.14,1.476,6.66,1.13,6.154
	c-0.368-0.54-0.748-1.097-0.874-1.804C0.25,4.316,0.248,4.285,0.248,4.256 M0.539,4.408C0.535,4.393,0.532,4.376,0.528,4.359
	L0.524,4.341C0.529,4.363,0.534,4.387,0.539,4.408 M1.354,5.539L1.13,5.679c0.072,0.109,0.146,0.217,0.218,0.323
	c0.139,0.202,0.274,0.4,0.395,0.603l0.224-0.141C1.894,6.354,1.821,6.246,1.748,6.14C1.61,5.938,1.475,5.742,1.354,5.539
	 M2.427,7.31L2.163,7.593L2.109,7.418C2.132,7.5,2.152,7.584,2.168,7.671C2.179,7.738,2.296,7.959,2.424,8
	c0.042,0.013,0.081,0.003,0.114-0.029l0.063-0.063l-0.056-0.23c-0.024-0.097-0.054-0.196-0.09-0.294L2.427,7.31z M2.431,7.306
	L2.375,7.187c0.006,0.015,0.013,0.028,0.019,0.043l0.034,0.08L2.431,7.306z M4.027,5.142C3.813,5.419,3.616,5.709,3.421,5.99
	C3.154,6.38,2.878,6.781,2.566,7.15L2.54,7.182C2.863,6.804,3.146,6.391,3.421,5.99C3.616,5.708,3.815,5.419,4.027,5.142
	 M2.844,7.23C2.807,7.276,2.769,7.322,2.729,7.368c0.002,0,0.002,0.002,0.002,0.004C2.77,7.326,2.807,7.278,2.844,7.23 M3.775,6.389
	C3.767,6.398,3.76,6.41,3.754,6.42C3.731,6.451,3.711,6.481,3.688,6.513C3.71,6.483,3.729,6.454,3.75,6.425
	C3.758,6.412,3.766,6.4,3.775,6.389"/>
<path fill="#5F9944" d="M0.271,0.355c0-0.114,0.043-0.212,0.12-0.277c0.046-0.039,0.173-0.12,0.367-0.05
	c0.188,0.068,0.417,0.278,0.456,0.498c0.103,0.577,0.43,1.057,0.774,1.563c0.184,0.267,0.37,0.539,0.526,0.833
	C2.769,2.607,3,2.27,3.227,1.941c0.261-0.381,0.531-0.773,0.836-1.139C4.126,0.725,4.219,0.679,4.32,0.675
	c0.075-0.004,0.19,0.015,0.317,0.12C4.739,0.88,4.825,1.006,4.867,1.133c0.055,0.166,0.031,0.323-0.066,0.441
	c-0.286,0.343-0.547,0.722-0.8,1.088c-0.339,0.493-0.682,0.993-1.1,1.439l0.087,0.49l-0.33-0.266
	c-0.091,0.048-0.19,0.058-0.29,0.026C2.109,4.271,1.951,3.941,1.931,3.818C1.826,3.238,1.499,2.76,1.152,2.253
	C0.785,1.715,0.405,1.158,0.279,0.452C0.274,0.415,0.271,0.384,0.271,0.355 M0.565,0.521C0.562,0.501,0.557,0.48,0.553,0.46
	L0.549,0.44C0.554,0.468,0.56,0.495,0.565,0.521 M1.376,1.636L1.151,1.776C1.226,1.887,1.3,1.995,1.372,2.104
	c0.139,0.202,0.274,0.4,0.396,0.603l0.223-0.14c-0.071-0.11-0.145-0.218-0.217-0.323C1.635,2.038,1.497,1.84,1.376,1.636
	 M2.451,3.408L2.186,3.69L2.134,3.519c0.021,0.082,0.043,0.166,0.058,0.252C2.203,3.839,2.32,4.06,2.447,4.1
	C2.49,4.113,2.529,4.104,2.563,4.07l0.063-0.063l-0.057-0.23C2.544,3.681,2.515,3.581,2.479,3.483L2.45,3.41l0.004-0.005
	L2.399,3.287C2.405,3.302,2.411,3.315,2.417,3.33L2.451,3.408z M3.243,2.383C3.038,2.678,2.823,2.974,2.59,3.251L2.575,3.267
	C2.817,2.984,3.034,2.684,3.243,2.383 M2.874,3.322c-0.039,0.049-0.08,0.097-0.12,0.145C2.755,3.468,2.756,3.47,2.756,3.472
	C2.796,3.423,2.835,3.373,2.874,3.322 M4.32,1.753c-0.188,0.25-0.366,0.509-0.54,0.761c-0.068,0.103-0.14,0.205-0.212,0.308
	c0.071-0.1,0.139-0.2,0.208-0.3C3.953,2.264,4.133,2.003,4.32,1.753 M4.009,1.298C3.89,1.456,3.774,1.618,3.661,1.777
	C3.775,1.616,3.89,1.455,4.009,1.298 M4.503,1.031C4.49,1.02,4.479,1.008,4.468,0.998H4.467C4.479,1.008,4.49,1.019,4.503,1.031
	 M4.631,1.306C4.63,1.334,4.622,1.364,4.606,1.391C4.621,1.366,4.63,1.338,4.631,1.306"/>
</svg>
