<svg id="Layer_1" data-name="Layer 1" xmlns="http://www.w3.org/2000/svg" viewBox="0 0 12 12"><defs><style>.cls-1{fill:#009b94;}</style></defs><title>head-des</title><path class="cls-1" d="M9.38,2.22C7.86,1.09,4.75.45,3.18,1.84A6.29,6.29,0,0,0,1.41,4.72a.25.25,0,0,0-.09.11C.22,7.14,2.75,10.07,5,10.62l.09.05C9.69,12.5,13.07,5,9.38,2.22ZM9.3,8.7a3.5,3.5,0,0,1-3.72,1.45A.28.28,0,0,0,5.39,10,4.07,4.07,0,0,1,3.28,8.92a7.17,7.17,0,0,0,1.44.61A4,4,0,0,0,7.92,9c1.45-1.36,2.13-4.59,0-5.8-1.78-1-4.35.19-4.23,2.34.1,1.92,2.47,3.07,3.64,1.28a1.29,1.29,0,0,0,.1-1.2v0a.34.34,0,0,0-.24-.39c-.55-.74-1.63-1.1-2-.15S5.88,6.88,6.71,6.6a1.21,1.21,0,0,1-1.21.45C4,6.75,4.15,4.69,5.11,4,6.88,2.59,9,4.4,8.58,6.36c-.22,1.09-.65,2.19-1.85,2.47A4,4,0,0,1,4.32,8.7,4.14,4.14,0,0,1,2.24,7.12,3.65,3.65,0,0,1,2.37,4C3.74.77,8.33,1.27,10,3.92,10.84,5.26,10.06,7.52,9.3,8.7Z"/></svg>