<?xml version="1.0" encoding="utf-8"?>
<!-- Generator: Adobe Illustrator 16.0.0, SVG Export Plug-In . SVG Version: 6.00 Build 0)  -->
<!DOCTYPE svg PUBLIC "-//W3C//DTD SVG 1.1//EN" "http://www.w3.org/Graphics/SVG/1.1/DTD/svg11.dtd">
<svg version="1.1" id="Layer_1" xmlns="http://www.w3.org/2000/svg" xmlns:xlink="http://www.w3.org/1999/xlink" x="0px" y="0px"
	 width="77px" height="81.136px" viewBox="0 0 77 81.136" enable-background="new 0 0 77 81.136" xml:space="preserve">
<path fill="#00B6A9" d="M75.266,28.134H73.95l-0.091-0.243C66.551,8.49,44.899-1.316,25.495,5.991
	C15.383,9.8,7.403,17.78,3.594,27.891L3.5,28.134H2.187l0.186-0.504C9.829,7.554,32.149-2.678,52.227,4.779
	C62.806,8.707,71.149,17.051,75.079,27.63L75.266,28.134z"/>
<path fill="#00B6A9" d="M73.721,60.501c-0.29-0.17-0.636-0.214-0.96-0.122c-0.318,0.095-0.62,0.236-0.894,0.424
	c-0.634,0.401-1.231,0.857-1.794,1.353c1.162-2.048,2.131-4.232,2.84-6.554c0.266-0.821,0.506-1.701,0.739-2.693l0.188-0.81
	l-0.646,0.535c-0.14,0.106-0.282,0.218-0.426,0.322l-0.085,0.062l-0.025,0.1c-0.125,0.513-0.248,0.964-0.372,1.392
	c-0.021-0.308-0.043-0.613-0.111-0.919c-0.061-0.332-0.235-0.734-0.573-0.733c-0.182,0.014-0.342,0.122-0.424,0.284
	c-0.078,0.161-0.126,0.336-0.14,0.513c-0.245,1.374-0.189,2.779,0.13,4.136c-0.438,1.094-0.953,2.141-1.503,3.164
	c0.152-0.585,0.242-1.186,0.229-1.799c0-0.324-0.058-0.704-0.356-0.81c-0.188-0.053-0.391,0.002-0.529,0.143
	c-0.131,0.14-0.232,0.304-0.295,0.485c-0.585,1.252-0.641,2.673-0.211,3.978c-1.198,1.886-2.578,3.63-4.125,5.202
	c0.325-0.543,0.599-1.116,0.758-1.729c0.073-0.227,0.093-0.466,0.062-0.702c-0.035-0.238-0.2-0.439-0.429-0.519
	c-0.322-0.089-0.647,0.163-0.862,0.424c-0.556,0.633-0.988,1.364-1.272,2.157c-0.121,0.334-0.67,1.98-0.371,2.341
	c-0.903,0.764-1.861,1.459-2.845,2.117c0.09-0.126,0.173-0.246,0.239-0.344c0.505-0.741,0.858-1.573,1.036-2.454
	c0.068-0.339,0.07-0.771-0.231-0.947c-0.198-0.097-0.433-0.077-0.614,0.051c-0.175,0.127-0.322,0.289-0.435,0.475
	c-0.83,1.214-1.445,2.563-1.818,3.986c-0.04,0.154-0.088,0.307-0.11,0.432c-1.677,0.956-3.442,1.757-5.279,2.395
	c0.83-0.645,1.51-1.473,1.929-2.46c0.103-0.2,0.162-0.423,0.175-0.646c0.01-0.232-0.104-0.449-0.298-0.574
	c-0.225-0.103-0.486-0.07-0.683,0.079c-0.189,0.15-0.348,0.335-0.468,0.545c-0.445,0.679-0.876,1.364-1.294,2.063
	c-0.189,0.32-0.706,0.978-0.9,1.485c-1.09,0.316-2.201,0.571-3.331,0.77c1.067-0.729,1.826-1.855,2.073-3.162
	c0.062-0.242,0.062-0.494,0-0.737c-0.07-0.246-0.283-0.424-0.537-0.449c-0.243,0.025-0.466,0.15-0.619,0.343
	c-0.772,0.769-1.436,1.64-1.976,2.586c-0.177,0.313-0.72,1.179-0.742,1.683c-1.433,0.167-2.884,0.26-4.358,0.228h-0.117
	l-0.013,0.013c-0.114-0.004-0.23-0.01-0.338-0.01C23.738,77.572,8.872,66.209,4.4,49.837l-0.057-0.208H3.259l0.096,0.354
	c4.548,16.896,19.862,28.641,37.357,28.651h0.017c0.392,0.021,0.783,0.021,1.171,0.021c2.463-0.01,4.869-0.315,7.196-0.854
	c0.457,0.319,1.499,0.65,1.743,0.731c0.7,0.235,1.427,0.378,2.164,0.427c0.278,0.03,0.558,0.008,0.827-0.068
	c0.272-0.081,0.488-0.287,0.579-0.557c0.063-0.363-0.103-0.729-0.42-0.917c-0.315-0.178-0.666-0.279-1.027-0.297
	c-0.148-0.017-0.595-0.05-1.139-0.069c0.526-0.171,1.041-0.365,1.555-0.563c1.419,0.132,3.865,0.152,4.268,0.071
	c0.323-0.023,0.615-0.194,0.79-0.465c0.104-0.312-0.022-0.655-0.301-0.827c-0.278-0.162-0.596-0.246-0.917-0.24
	c-0.259,0.031-0.516,0.075-0.773,0.115c0.705-0.357,1.393-0.742,2.069-1.147c0.52,0.245,1.531,0.347,1.824,0.371
	c0.738,0.059,1.481-0.026,2.188-0.252c0.388-0.106,0.744-0.311,1.037-0.589c0.294-0.287,0.41-0.71,0.307-1.107
	c-0.142-0.362-0.457-0.629-0.837-0.712c-0.373-0.075-0.759-0.071-1.131,0.014c-0.03,0.005-0.07,0.014-0.112,0.023
	c0.618-0.481,1.218-0.981,1.799-1.507c0.836,0.545,3.447,0.435,4.014,0.367c0.51-0.036,1.006-0.184,1.456-0.429
	c0.366-0.178,0.64-0.508,0.75-0.9c0.214-0.761-0.231-1.553-0.993-1.768c-0.606-0.2-1.26-0.214-1.873-0.039
	c-0.308,0.07-0.604,0.177-0.897,0.289c1.163-1.303,2.225-2.7,3.172-4.188c0.046,0.031,0.082,0.062,0.148,0.088
	c1.33,0.404,2.77,0.147,3.88-0.688c0.413-0.277,0.725-0.682,0.889-1.152C74.29,61.338,74.125,60.809,73.721,60.501"/>
<path fill="#00B6A9" d="M71.128,40.114c0,17.896-14.507,32.402-32.402,32.402c-17.896,0-32.403-14.507-32.403-32.402
	c0-17.896,14.507-32.403,32.403-32.403C56.621,7.711,71.128,22.218,71.128,40.114"/>
<path fill="#FFFFFF" d="M19.126,31.108c0.147-0.784,0.239-1.585,0.453-2.353c0.767-2.756,2.391-4.9,4.777-6.466
	c1.956-1.283,4.125-1.831,6.453-1.827c5.258,0.007,10.516,0.005,15.774,0.001c4.044-0.004,7.311,1.572,9.671,4.868
	c1.73,2.414,2.358,5.14,1.952,8.088c-0.384,2.779-1.647,5.098-3.743,6.95c-2.185,1.931-4.757,2.857-7.669,2.853h-1.101
	c0,0.499-0.011,0.955,0.009,1.41c0.004,0.084,0.111,0.191,0.197,0.239c1.143,0.643,1.683,1.638,1.687,2.926
	c0.01,2.846,0.014,5.692-0.001,8.537c-0.008,1.761-0.996,2.94-2.703,3.29c-0.036,0.007-0.068,0.031-0.103,0.047H32.681
	c-0.034-0.016-0.067-0.04-0.103-0.047c-1.707-0.35-2.695-1.528-2.703-3.289c-0.015-2.846-0.011-5.69-0.001-8.535
	c0.004-1.287,0.543-2.283,1.684-2.927c0.087-0.05,0.196-0.154,0.2-0.237c0.02-0.455,0.009-0.912,0.009-1.428
	c-0.618,0-1.202-0.014-1.784,0.009c-0.156,0.007-0.346,0.085-0.453,0.194c-0.49,0.502-0.957,1.026-1.431,1.544
	c-0.983,1.071-1.969,2.142-2.948,3.217c-0.445,0.488-0.979,0.78-1.649,0.733c-1.105-0.077-1.841-0.893-1.844-2.047
	c-0.008-2.488,0.004-4.977-0.014-7.464c-0.001-0.244-0.096-0.527-0.239-0.724c-1.021-1.389-1.71-2.92-2.048-4.607
	c-0.085-0.422-0.154-0.848-0.23-1.271V31.108z M45.654,41.972c0.414,0,0.794,0.004,1.174,0c1.817-0.022,3.549-0.402,5.117-1.344
	c3.214-1.929,4.956-4.77,5.097-8.531c0.095-2.568-0.73-4.851-2.402-6.794c-2.087-2.426-4.768-3.575-7.963-3.571
	c-5.295,0.007-10.591,0.001-15.885,0.004c-0.447,0-0.897-0.001-1.338,0.051c-2.318,0.271-4.338,1.198-6.008,2.834
	c-1.76,1.725-2.783,3.831-3.002,6.283c-0.244,2.735,0.517,5.191,2.232,7.351c0.143,0.18,0.238,0.453,0.239,0.684
	c0.016,2.553,0.009,5.104,0.011,7.655c0,0.166-0.002,0.334,0.026,0.496c0.081,0.475,0.588,0.711,0.993,0.456
	c0.148-0.093,0.272-0.229,0.391-0.36c1.538-1.673,3.075-3.345,4.601-5.026c0.182-0.198,0.359-0.27,0.628-0.252
	c0.623,0.043,1.249,0.035,1.872,0.07c0.286,0.017,0.374-0.071,0.425-0.367c0.485-2.812,2.069-4.76,4.785-5.623
	c2.641-0.841,5.019-0.207,7.01,1.728C44.834,38.856,45.464,40.286,45.654,41.972 M38.737,58.403c1.811,0,3.624,0.003,5.435-0.001
	c1.403-0.003,2.142-0.748,2.142-2.154c0.001-2.769,0.001-5.537,0-8.306c0-1.443-0.746-2.188-2.194-2.189
	c-3.599-0.001-7.197-0.001-10.795,0c-1.423,0.001-2.18,0.753-2.18,2.165c-0.001,2.769-0.001,5.538,0,8.307
	c0,1.448,0.733,2.177,2.194,2.179C35.139,58.405,36.938,58.403,38.737,58.403 M44.45,44.48c-0.04-0.961,0.002-1.91-0.133-2.834
	c-0.598-4.096-5.569-6.126-8.9-3.67c-2.234,1.646-2.577,3.955-2.323,6.503h1.205c0-0.643-0.012-1.265,0.002-1.887
	c0.072-2.941,2.745-4.999,5.546-4.275c1.946,0.503,3.278,2.233,3.314,4.315c0.01,0.607,0.002,1.218,0.002,1.848H44.45z
	 M35.684,41.949h6.091c-0.143-1.361-1.539-2.5-3.042-2.502C37.229,39.446,35.845,40.574,35.684,41.949 M41.869,43.249h-6.262v1.227
	h6.262V43.249z"/>
<path fill="#FFFFFF" d="M27.36,35.009c-1.715,0.015-3.175-1.439-3.174-3.16c0.001-1.722,1.461-3.178,3.17-3.163
	c1.719,0.015,3.118,1.408,3.153,3.141C30.544,33.522,29.086,34.994,27.36,35.009 M27.34,33.732c1.053,0.004,1.898-0.837,1.897-1.887
	c-0.001-1.033-0.832-1.875-1.862-1.888c-1.054-0.013-1.903,0.819-1.912,1.872C25.453,32.889,26.281,33.728,27.34,33.732"/>
<path fill="#FFFFFF" d="M53.272,31.897c-0.052,1.752-1.527,3.175-3.22,3.109c-1.746-0.068-3.15-1.513-3.1-3.191
	c0.053-1.762,1.512-3.187,3.201-3.128C51.92,28.75,53.324,30.194,53.272,31.897 M51.997,31.854c0.005-1.053-0.836-1.897-1.887-1.896
	c-1.033,0-1.875,0.832-1.886,1.861c-0.013,1.053,0.819,1.902,1.871,1.912C51.153,33.741,51.993,32.913,51.997,31.854"/>
<path fill="#FFFFFF" d="M41.88,31.847c0.002,1.723-1.402,3.141-3.13,3.162c-1.723,0.021-3.172-1.425-3.17-3.161
	c0.001-1.741,1.453-3.19,3.169-3.161C40.487,28.715,41.879,30.12,41.88,31.847 M38.744,33.731c1.046-0.007,1.906-0.877,1.885-1.908
	c-0.022-1.046-0.886-1.88-1.932-1.864c-1.022,0.014-1.87,0.873-1.866,1.893C36.835,32.893,37.696,33.739,38.744,33.731"/>
<path fill="#FFFFFF" d="M40.633,57.126h-3.807v-0.403c0-1.225-0.005-2.449,0.004-3.674c0.002-0.231-0.056-0.394-0.238-0.56
	c-1.313-1.207-1.355-3.236-0.11-4.52c1.2-1.236,3.251-1.243,4.478-0.017c1.255,1.254,1.228,3.31-0.077,4.52
	c-0.19,0.177-0.256,0.345-0.254,0.591C40.639,54.402,40.633,55.741,40.633,57.126 M39.355,55.854c0-1.033,0.024-2.039-0.011-3.043
	c-0.017-0.519,0.083-0.873,0.559-1.192c0.792-0.532,0.935-1.647,0.417-2.458c-0.504-0.787-1.549-1.088-2.391-0.682
	c-0.665,0.321-1.04,0.866-1.083,1.595c-0.044,0.747,0.283,1.345,0.929,1.723c0.277,0.161,0.344,0.352,0.335,0.646
	c-0.019,0.638-0.006,1.276-0.006,1.914v1.498H39.355z"/>
</svg>
