<svg id="Layer_1" data-name="Layer 1" xmlns="http://www.w3.org/2000/svg" viewBox="0 0 59.29 59.29"><defs><style>.cls-1{fill:#009b94;}.cls-2{fill:#fff;fill-rule:evenodd;}</style></defs><title>Untitled-1</title><circle class="cls-1" cx="29.65" cy="29.65" r="29.5"/><path class="cls-2" d="M37.33,51.56c-.95-.51-1.93-1-2.83-1.57-.32-.21-.64-.42-1-.64a.61.61,0,1,1,.69-1,26.6,26.6,0,0,0,3,1.78.61.61,0,0,0,.57,0A17.71,17.71,0,0,0,48,36.75c.07-.38-.07-.5-.42-.57a16.64,16.64,0,0,1-5.08-1.7A14.71,14.71,0,0,1,38,30.72c-.34-.41-.54-.42-.85,0A14.85,14.85,0,0,1,28,36.08c-1.14.23-1,.09-.79,1.19a17.86,17.86,0,0,0,5.1,9.48c.35.34.37.7.08,1s-.61.23-.94-.08a16.59,16.59,0,0,1-2.37-2.79.75.75,0,0,0-.73-.37H19.65a1.11,1.11,0,0,1-.87-.36c-.51-.53-1.06-1-1.56-1.58a.86.86,0,0,0-.72-.28H13.29a1.33,1.33,0,0,1-1.51-1.52c0-1.45,0-2.9,0-4.36q0-12.67,0-25.35a1.51,1.51,0,0,1,1-1.62H15c.25.22.49.44.34.83s-.47.41-.82.41h-1c-.56,0-.56,0-.56.55V40.83c0,.13.05.21.2.21h2.36l.06-.1c-.26-.24-.5-.5-.77-.72A1.38,1.38,0,0,1,14.35,39q0-12.81,0-25.63c0-1.17.45-1.62,1.61-1.62h18.1c.73,0,.61.09.65-.63,0-.39-.08-.51-.49-.51-5.61,0-11.22,0-16.83,0-.36,0-.67-.05-.8-.43A.66.66,0,0,1,17,9.42H35a1.56,1.56,0,0,1,1,1.76c0,.66-.09.59.57.6h1.2a1.34,1.34,0,0,1,1.52,1.51v9.29c0,.39,0,.77,0,1.16s-.25.72-.61.72-.6-.29-.62-.74v-.41c0-3.27,0-6.55,0-9.83,0-.38-.11-.48-.48-.47H16.07c-.37,0-.48.08-.48.47q0,12.45,0,24.89c0,.39.11.48.48.47.83,0,1.67,0,2.51,0A1.33,1.33,0,0,1,20,40.26c0,.9,0,1.79,0,2.68,0,.21,0,.32.29.32h7.61l.11,0c0-.15-.06-.24-.12-.35a19.54,19.54,0,0,1-1.78-5c-.08-.39-.23-.53-.62-.49a6,6,0,0,1-1,0,.6.6,0,0,1-.65-.59.61.61,0,0,1,.65-.64,2.08,2.08,0,0,1,.25,0c.56,0,1.16.13,1.36-.64,0-.12.2-.21.31-.32-.09-.14-.22-.07-.33-.08-.52,0-1,0-1.56,0a.61.61,0,0,1-.68-.62c0-.37.24-.59.67-.61h.5c1.71,0,3.42,0,5.14,0a2.72,2.72,0,0,0,1.48-.37c.36-.21.73-.41,1.14-.63a.89.89,0,0,0-.49-.06H24.78a1.5,1.5,0,0,1-.37,0,.61.61,0,0,1,0-1.21,2.84,2.84,0,0,1,.41,0h9.3a.89.89,0,0,0,.69-.27A14.59,14.59,0,0,0,36.13,30a1.67,1.67,0,0,1,1.67-.75c.28.05.22-.13.22-.26V26.55a2.3,2.3,0,0,1,0-.37.58.58,0,0,1,.64-.56.57.57,0,0,1,.57.59c0,.42,0,.85,0,1.27,0,.84,0,1.67,0,2.51a.84.84,0,0,0,.25.62,13.6,13.6,0,0,0,7.67,4.24l.76.17a1.43,1.43,0,0,1,1.25,1.82,20.53,20.53,0,0,1-2.53,6.95,19.34,19.34,0,0,1-8.55,7.58c-.12.05-.24.13-.36.19ZM16.67,40.07c.71.7,1.43,1.41,2.11,2.1,0-.57,0-1.21,0-1.84,0-.17-.06-.26-.24-.26Z"/><path class="cls-2" d="M30.5,19.67H25.69c-.85,0-1.11-.26-1.11-1.09V16.4a.85.85,0,0,1,1-1h9.9c.67,0,1,.31,1,1v2.26c0,.67-.3,1-1,1Zm0-1.23c1.44,0,2.88,0,4.32,0,.29,0,.39-.08.37-.37a9.55,9.55,0,0,1,0-1.07c0-.28-.09-.34-.35-.34-1,0-2,0-3,0-1.89,0-3.78,0-5.67,0-.31,0-.42.07-.39.39a8.68,8.68,0,0,1,0,1c0,.3.08.38.37.37C27.62,18.43,29.06,18.44,30.5,18.44Z"/><path class="cls-2" d="M20.78,23.1H19a1,1,0,0,1-1.15-1c-.06-.41-.13-.82-.16-1.22a1.4,1.4,0,0,1,.9-1.55c.93-.45.88-.43.42-1.35A3.16,3.16,0,0,1,19,15a2,2,0,0,1,2.21-1,2,2,0,0,1,1.65,1.77,3.11,3.11,0,0,1-.51,2.54.48.48,0,0,0,.17.72.05.05,0,0,0,0,0c1.34.49,1.53,1.17,1.28,2.39,0,.08,0,.17,0,.25-.15,1.15-.4,1.37-1.56,1.37Zm0-1.24h1.07c.71,0,.71,0,.82-.71s.11-.62-.48-.88a1.58,1.58,0,0,1-1-1c-.06-.19-.12-.27-.33-.27a.32.32,0,0,0-.37.28,1.31,1.31,0,0,1-.73.83,6.54,6.54,0,0,1-.6.28c-.15.07-.26.16-.22.34.09.36,0,.77.23,1.09,0,.05.19,0,.28,0Zm-.84-5.35h0a4,4,0,0,0,0,.49.86.86,0,0,0,1.7.05,3.42,3.42,0,0,0,0-1.15.82.82,0,0,0-.87-.65.81.81,0,0,0-.79.69A5.48,5.48,0,0,0,19.91,16.51Z"/><path class="cls-2" d="M29.61,24.8H34.5a.63.63,0,0,1,.71.48.6.6,0,0,1-.47.74,2.3,2.3,0,0,1-.37,0H24.78a1.75,1.75,0,0,1-.4,0,.58.58,0,0,1-.47-.64.57.57,0,0,1,.55-.56c.28,0,.55,0,.83,0Z"/><path class="cls-2" d="M29.56,30.59H24.7c-.53,0-.79-.22-.79-.62s.27-.62.8-.62h9.87a.64.64,0,0,1,.66.64.6.6,0,0,1-.67.58h-5Z"/><path class="cls-2" d="M29.55,28.31c-1.57,0-3.15,0-4.73,0a2.27,2.27,0,0,1-.45,0,.56.56,0,0,1-.46-.59.55.55,0,0,1,.48-.58,1.84,1.84,0,0,1,.41,0h9.54a1.93,1.93,0,0,1,.41,0,.6.6,0,0,1,0,1.17,2.22,2.22,0,0,1-.45,0C32.73,28.32,31.14,28.31,29.55,28.31Z"/><path class="cls-2" d="M20.39,26H19.11c-.45,0-.71-.24-.72-.62s.25-.61.71-.62h2.63c.44,0,.71.26.7.63a.64.64,0,0,1-.69.61C21.29,26.05,20.84,26,20.39,26Z"/><path class="cls-2" d="M20.42,30.59H19.06a.6.6,0,0,1-.67-.61.6.6,0,0,1,.68-.61h2.67a.61.61,0,0,1,.69.64c0,.35-.27.58-.7.59Z"/><path class="cls-2" d="M20.41,33.93h1.36a.61.61,0,0,1,.66.58.6.6,0,0,1-.65.64c-.91,0-1.83,0-2.75,0a.59.59,0,0,1-.64-.65c0-.35.26-.56.67-.57Z"/><path class="cls-2" d="M20.38,37.43H19.07c-.44,0-.68-.24-.68-.61a.6.6,0,0,1,.67-.62q1.34,0,2.67,0c.45,0,.71.26.7.63s-.26.59-.69.6Z"/><path class="cls-2" d="M20.41,32.87c-.44,0-.88,0-1.31,0s-.71-.24-.71-.62a.61.61,0,0,1,.68-.61c.89,0,1.78,0,2.68,0a.62.62,0,1,1,0,1.23C21.29,32.88,20.85,32.87,20.41,32.87Z"/><path class="cls-2" d="M20.42,28.31c-.46,0-.91,0-1.36,0a.6.6,0,0,1-.67-.62c0-.37.24-.6.68-.61.9,0,1.8,0,2.71,0a.6.6,0,0,1,.65.59.61.61,0,0,1-.66.63C21.32,28.32,20.87,28.31,20.42,28.31Z"/><path class="cls-2" d="M26.36,20.84c.29,0,.58,0,.87,0a.57.57,0,0,1,.57.58.54.54,0,0,1-.53.62,15.44,15.44,0,0,1-1.8,0,.61.61,0,0,1,0-1.21c.29,0,.57,0,.86,0Z"/><path class="cls-2" d="M35,20.84c.28,0,.57,0,.86,0a.57.57,0,0,1,.57.58.54.54,0,0,1-.52.62A9.84,9.84,0,0,1,34,22a.6.6,0,0,1,.07-1.19c.3,0,.6,0,.9,0Z"/><path class="cls-2" d="M30.66,20.84c.29,0,.58,0,.86,0a.61.61,0,0,1,0,1.21,15.44,15.44,0,0,1-1.8,0,.57.57,0,0,1-.55-.6.6.6,0,0,1,.6-.6C30.09,20.83,30.37,20.84,30.66,20.84Z"/><path class="cls-2" d="M41.55,41.8c0,.71,0,1.43,0,2.14a1.78,1.78,0,0,1-1.89,1.88H35.43a1.8,1.8,0,0,1-1.91-1.91c0-1.4,0-2.79,0-4.19a1.78,1.78,0,0,1,1.4-1.88c.18-.06.25-.13.24-.31a6.12,6.12,0,0,1,0-.74,2.37,2.37,0,0,1,4.74,0,.48.48,0,0,1,0,.12A.88.88,0,0,0,40.59,38a1.53,1.53,0,0,1,1,1.51c0,.75,0,1.51,0,2.26Zm-4,2.79h2.13c.46,0,.66-.19.66-.65,0-1.41,0-2.82,0-4.23,0-.48-.2-.67-.69-.67H35.44c-.48,0-.68.19-.68.67,0,1.4,0,2.79,0,4.19,0,.51.19.69.7.69Zm0-6.8h.25c1,0,1,0,.88-1a1.15,1.15,0,0,0-1.14-1,1.14,1.14,0,0,0-1.1,1c0,.21,0,.44,0,.65s.07.41.36.38S37.27,37.79,37.53,37.79Z"/><path class="cls-2" d="M38.15,41.64c0-.12,0-.24,0-.37a.62.62,0,1,0-1.23,0,6.06,6.06,0,0,0,0,.74.6.6,0,0,0,.59.61.61.61,0,0,0,.63-.62C38.16,41.89,38.15,41.76,38.15,41.64Z"/><path class="cls-2" d="M38.15,41.64c0,.12,0,.25,0,.37a.61.61,0,0,1-.63.62.6.6,0,0,1-.59-.61,6.06,6.06,0,0,1,0-.74.62.62,0,1,1,1.23,0C38.16,41.4,38.15,41.52,38.15,41.64Z"/></svg>