<svg id="Layer_1" data-name="Layer 1" xmlns="http://www.w3.org/2000/svg" viewBox="0 0 21.77 21.77"><defs><style>.cls-1{fill:#fff;}</style></defs><title>w-des</title><path class="cls-1" d="M15.72,5.76C13.63,4.19,9.34,3.3,7.17,5.23a8.57,8.57,0,0,0-2.44,4,.32.32,0,0,0-.13.15c-1.51,3.19,2,7.22,5,8a.24.24,0,0,0,.12.07C16.15,19.93,20.81,9.57,15.72,5.76Zm-.12,8.93a4.81,4.81,0,0,1-5.12,2,.38.38,0,0,0-.26-.16A5.51,5.51,0,0,1,7.31,15a9.94,9.94,0,0,0,2,.85c1.13.36,3.51.14,4.41-.72,2-1.87,2.94-6.33,0-8-2.45-1.41-6,.27-5.84,3.23.15,2.64,3.41,4.23,5,1.76a1.74,1.74,0,0,0,.14-1.65s0,0,0,0a.48.48,0,0,0-.34-.55c-.76-1-2.24-1.51-2.81-.2s1,2.49,2.1,2.11a1.68,1.68,0,0,1-1.67.62c-2-.41-1.86-3.26-.54-4.27,2.45-1.87,5.32.61,4.78,3.32-.3,1.5-.89,3-2.54,3.4a5.9,5.9,0,0,1-6.2-2.35c-.79-1.19-.34-3.15.17-4.34,1.9-4.42,8.23-3.73,10.54-.07C17.74,10,16.66,13.06,15.6,14.69Z"/></svg>